<svg xmlns="http://www.w3.org/2000/svg" width="1000" height="320" viewBox="0 0 1000 320">
  <rect width="100%" height="100%" fill="#ffffff"/>
  <text x="60" y="24" font-family="Arial" font-size="18" font-weight="bold">encoded_720p.mp4 - upscaled_3840x2160 VMAF Over Time</text>
  <text x="60" y="308" font-family="Arial" font-size="12" fill="#555">Mean=80.368 Min=65.168 Max=87.319</text>
  <line x1="60" y1="40" x2="60" y2="276" stroke="#333" stroke-width="1"/>
  <line x1="60" y1="276" x2="976" y2="276" stroke="#333" stroke-width="1"/>
  <line x1="60" y1="63.6" x2="976" y2="63.6" stroke="#ddd" stroke-width="1"/>
  <line x1="60" y1="87.2" x2="976" y2="87.2" stroke="#eee" stroke-width="1"/>
  <line x1="60" y1="158.0" x2="976" y2="158.0" stroke="#eee" stroke-width="1"/>
  <text x="12" y="44" font-family="Arial" font-size="12">100</text>
  <text x="20" y="67.6" font-family="Arial" font-size="12">90</text>
  <text x="20" y="91.2" font-family="Arial" font-size="12">80</text>
  <text x="20" y="162.0" font-family="Arial" font-size="12">50</text>
  <text x="60" y="300" font-family="Arial" font-size="12">00:00.000</text>
  <text x="924" y="300" font-family="Arial" font-size="12">00:14.982</text>
  <polyline points="60.00,117.34 61.02,119.13 62.04,119.93 63.06,119.93 64.08,119.91 65.10,120.50 66.12,120.37 67.14,120.38 68.16,119.31 69.18,121.40 70.20,119.31 71.22,118.78 72.24,118.18 73.26,121.78 74.28,121.23 75.30,121.80 76.32,119.03 77.34,122.20 78.36,120.52 79.38,122.00 80.40,117.78 81.42,113.43 82.44,111.22 83.46,109.46 84.48,107.66 85.50,95.32 86.52,93.81 87.54,92.05 88.56,90.19 89.58,84.89 90.60,84.57 91.62,83.08 92.64,80.29 93.66,80.69 94.68,79.64 95.70,79.32 96.72,76.52 97.74,77.99 98.76,77.80 99.78,77.61 100.80,74.83 101.82,76.86 102.84,77.79 103.86,78.29 104.88,74.58 105.90,78.15 106.92,77.78 107.94,79.19 108.96,76.11 109.98,79.54 111.00,78.75 112.02,79.73 113.04,76.49 114.06,80.32 115.08,79.18 116.10,80.23 117.12,78.50 118.14,81.21 119.16,81.87 120.18,81.25 121.20,81.06 122.22,82.09 123.24,82.61 124.26,82.77 125.28,81.37 126.30,82.92 127.32,83.62 128.34,84.27 129.36,83.00 130.38,85.30 131.40,84.63 132.42,84.59 133.44,83.35 134.46,85.32 135.48,86.65 136.50,74.69 137.52,82.53 138.54,83.15 139.56,83.64 140.58,78.44 141.60,83.84 142.62,81.97 143.64,82.08 144.66,77.66 145.68,82.19 146.70,82.16 147.72,82.82 148.74,79.52 149.76,85.03 150.78,85.34 151.80,85.46 152.82,80.32 153.84,85.29 154.86,85.41 155.88,86.12 156.90,80.93 157.92,86.26 158.94,85.57 159.96,87.68 160.98,82.91 162.00,87.21 163.02,86.62 164.04,85.94 165.06,82.40 166.08,86.83 167.10,86.55 168.12,86.06 169.14,83.93 170.16,87.80 171.18,87.15 172.20,86.87 173.22,84.90 174.24,88.45 175.27,88.84 176.29,88.71 177.31,85.60 178.33,89.77 179.35,89.25 180.37,89.13 181.39,85.89 182.41,89.97 183.43,89.15 184.45,87.92 185.47,85.43 186.49,88.91 187.51,89.41 188.53,89.35 189.55,86.79 190.57,89.80 191.59,89.64 192.61,89.48 193.63,85.71 194.65,89.77 195.67,89.33 196.69,89.59 197.71,85.96 198.73,89.41 199.75,89.85 200.77,90.46 201.79,86.17 202.81,90.48 203.83,89.08 204.85,87.24 205.87,84.66 206.89,88.83 207.91,87.51 208.93,85.82 209.95,81.89 210.97,85.82 211.99,84.20 213.01,85.58 214.03,81.86 215.05,87.65 216.07,86.78 217.09,87.04 218.11,82.72 219.13,85.64 220.15,84.35 221.17,84.74 222.19,77.90 223.21,84.62 224.23,82.36 225.25,83.01 226.27,77.49 227.29,85.49 228.31,84.86 229.33,84.80 230.35,81.15 231.37,87.24 232.39,87.84 233.41,88.34 234.43,84.82 235.45,89.80 236.47,90.25 237.49,89.77 238.51,84.51 239.53,89.62 240.55,87.39 241.57,87.68 242.59,81.26 243.61,87.52 244.63,87.34 245.65,88.13 246.67,82.77 247.69,90.70 248.71,89.58 249.73,91.15 250.75,86.44 251.77,90.21 252.79,89.67 253.81,88.79 254.83,83.69 255.85,90.28 256.87,87.80 257.89,88.66 258.91,82.67 259.93,86.75 260.95,84.61 261.97,84.13 262.99,77.61 264.01,83.40 265.03,81.57 266.05,83.16 267.07,80.24 268.09,87.15 269.11,86.50 270.13,85.88 271.15,83.34 272.17,88.92 273.19,87.66 274.21,89.21 275.23,84.33 276.25,89.61 277.27,87.84 278.29,86.67 279.31,80.20 280.33,85.55 281.35,84.70 282.37,83.94 283.39,78.76 284.41,85.40 285.43,83.73 286.45,83.76 287.47,80.11 288.49,85.18 289.51,84.02 290.53,83.98 291.55,80.07 292.57,84.52 293.59,85.40 294.61,86.57 295.63,83.55 296.65,90.47 297.67,90.19 298.69,88.99 299.71,83.97 300.73,90.10 301.75,89.62 302.77,90.58 303.79,88.66 304.81,92.33 305.83,91.14 306.85,90.57 307.87,85.50 308.89,90.91 309.91,90.26 310.93,88.82 311.95,84.50 312.97,89.02 313.99,88.36 315.01,87.86 316.03,82.09 317.05,88.10 318.07,85.68 319.09,85.72 320.11,81.77 321.13,88.32 322.15,87.35 323.17,88.82 324.19,82.89 325.21,89.66 326.23,87.36 327.25,88.02 328.27,81.99 329.29,87.87 330.31,87.17 331.33,86.17 332.35,81.22 333.37,87.74 334.39,86.10 335.41,86.46 336.43,82.86 337.45,91.85 338.47,91.13 339.49,91.12 340.51,86.14 341.53,91.78 342.55,90.56 343.57,90.73 344.59,83.99 345.61,90.29 346.63,86.25 347.65,86.35 348.67,79.50 349.69,86.25 350.71,84.36 351.73,86.07 352.75,85.34 353.77,89.97 354.79,90.34 355.81,92.83 356.83,88.68 357.85,91.86 358.87,89.06 359.89,88.35 360.91,83.35 361.93,87.05 362.95,86.36 363.97,86.30 364.99,80.51 366.01,87.72 367.03,89.33 368.05,90.33 369.07,87.24 370.09,93.38 371.11,92.77 372.13,92.65 373.15,86.04 374.17,91.91 375.19,90.04 376.21,90.28 377.23,86.13 378.25,90.99 379.27,90.94 380.29,92.61 381.31,87.15 382.33,91.52 383.35,88.30 384.37,87.91 385.39,83.08 386.41,88.04 387.43,84.43 388.45,84.33 389.47,79.19 390.49,84.47 391.51,72.42 392.53,80.46 393.55,83.02 394.57,83.50 395.59,80.70 396.61,87.22 397.63,87.75 398.65,88.91 399.67,85.50 400.69,91.03 401.71,92.21 402.73,92.76 403.76,88.39 404.78,92.67 405.80,92.41 406.82,92.78 407.84,86.21 408.86,90.95 409.88,92.43 410.90,92.60 411.92,87.42 412.94,92.76 413.96,92.66 414.98,93.62 416.00,87.63 417.02,91.74 418.04,91.78 419.06,90.89 420.08,87.83 421.10,91.94 422.12,92.07 423.14,90.86 424.16,84.31 425.18,89.80 426.20,88.30 427.22,88.16 428.24,82.43 429.26,91.88 430.28,91.71 431.30,94.14 432.32,87.04 433.34,92.76 434.36,91.79 435.38,91.89 436.40,85.22 437.42,92.58 438.44,92.09 439.46,93.54 440.48,87.40 441.50,93.68 442.52,92.57 443.54,92.46 444.56,86.15 445.58,91.33 446.60,90.33 447.62,90.51 448.64,85.81 449.66,90.52 450.68,89.39 451.70,90.10 452.72,85.55 453.74,90.02 454.76,89.00 455.78,88.86 456.80,81.76 457.82,85.18 458.84,84.46 459.86,85.93 460.88,80.16 461.90,84.45 462.92,82.98 463.94,84.20 464.96,79.09 465.98,87.26 467.00,94.90 468.02,95.01 469.04,88.54 470.06,90.74 471.08,88.21 472.10,85.25 473.12,80.15 474.14,86.54 475.16,84.58 476.18,84.68 477.20,79.81 478.22,86.01 479.24,85.49 480.26,85.95 481.28,80.62 482.30,84.68 483.32,84.83 484.34,85.04 485.36,80.93 486.38,87.19 487.40,87.72 488.42,88.59 489.44,84.95 490.46,89.27 491.48,88.66 492.50,89.57 493.52,83.33 494.54,87.92 495.56,87.12 496.58,86.73 497.60,83.40 498.62,86.71 499.64,87.84 500.66,89.79 501.68,85.85 502.70,89.26 503.72,88.94 504.74,89.90 505.76,85.61 506.78,88.50 507.80,87.71 508.82,87.79 509.84,83.27 510.86,88.14 511.88,88.97 512.90,89.42 513.92,86.12 514.94,89.71 515.96,91.10 516.98,91.24 518.00,84.98 519.02,88.66 520.04,86.67 521.06,86.66 522.08,82.32 523.10,88.98 524.12,88.68 525.14,88.58 526.16,82.87 527.18,88.17 528.20,85.08 529.22,84.98 530.24,78.32 531.26,83.98 532.28,82.74 533.30,88.26 534.32,84.18 535.34,89.50 536.36,87.60 537.38,86.71 538.40,82.04 539.42,87.05 540.44,88.09 541.46,88.09 542.48,83.22 543.50,88.84 544.52,88.25 545.54,89.17 546.56,84.66 547.58,89.21 548.60,89.47 549.62,88.09 550.64,84.42 551.66,89.17 552.68,89.27 553.70,90.15 554.72,85.44 555.74,90.32 556.76,91.62 557.78,91.40 558.80,86.68 559.82,90.23 560.84,87.94 561.86,87.24 562.88,81.82 563.90,86.34 564.92,85.35 565.94,86.94 566.96,83.47 567.98,89.06 569.00,88.83 570.02,90.42 571.04,86.45 572.06,91.89 573.08,91.00 574.10,89.80 575.12,84.73 576.14,88.17 577.16,87.42 578.18,87.65 579.20,84.01 580.22,88.45 581.24,90.12 582.26,89.84 583.28,85.38 584.30,88.53 585.32,88.41 586.34,90.19 587.36,86.97 588.38,89.24 589.40,87.68 590.42,89.42 591.44,84.25 592.46,86.70 593.48,85.89 594.50,85.91 595.52,81.58 596.54,85.44 597.56,85.82 598.58,86.60 599.60,82.33 600.62,85.77 601.64,86.61 602.66,85.69 603.68,81.88 604.70,85.46 605.72,82.98 606.74,82.79 607.76,76.13 608.78,81.61 609.80,81.53 610.82,83.16 611.84,84.33 612.86,90.60 613.88,88.98 614.90,89.73 615.92,82.19 616.94,85.99 617.96,82.97 618.98,84.40 620.00,77.82 621.02,83.05 622.04,81.94 623.06,83.16 624.08,77.62 625.10,83.64 626.12,81.39 627.14,82.53 628.16,77.10 629.18,82.39 630.20,81.86 631.22,82.13 632.24,77.59 633.27,83.08 634.29,83.23 635.31,85.16 636.33,78.90 637.35,85.08 638.37,86.03 639.39,87.39 640.41,83.12 641.43,89.16 642.45,88.71 643.47,88.70 644.49,83.18 645.51,89.28 646.53,75.69 647.55,85.22 648.57,85.65 649.59,86.63 650.61,81.84 651.63,88.00 652.65,87.35 653.67,88.69 654.69,84.04 655.71,91.60 656.73,90.80 657.75,92.42 658.77,87.14 659.79,93.15 660.81,93.03 661.83,92.49 662.85,87.61 663.87,93.08 664.89,91.56 665.91,91.61 666.93,85.04 667.95,90.91 668.97,88.38 669.99,87.50 671.01,81.89 672.03,89.01 673.05,87.70 674.07,87.54 675.09,82.26 676.11,89.34 677.13,88.46 678.15,88.67 679.17,83.60 680.19,89.90 681.21,90.10 682.23,90.27 683.25,87.35 684.27,93.93 685.29,92.27 686.31,92.90 687.33,85.18 688.35,90.28 689.37,89.10 690.39,89.33 691.41,81.66 692.43,87.72 693.45,87.20 694.47,88.71 695.49,83.35 696.51,88.50 697.53,88.27 698.55,87.86 699.57,83.68 700.59,88.86 701.61,88.20 702.63,88.30 703.65,84.08 704.67,89.04 705.69,89.22 706.71,89.85 707.73,85.75 708.75,90.33 709.77,88.98 710.79,90.83 711.81,86.26 712.83,89.73 713.85,88.82 714.87,89.52 715.89,85.88 716.91,89.32 717.93,88.96 718.95,89.84 719.97,84.93 720.99,93.58 722.01,93.14 723.03,92.24 724.05,88.68 725.07,90.25 726.09,89.77 727.11,90.99 728.13,87.94 729.15,90.26 730.17,90.82 731.19,91.21 732.21,88.69 733.23,92.57 734.25,91.97 735.27,91.68 736.29,87.87 737.31,91.88 738.33,90.20 739.35,89.46 740.37,85.76 741.39,89.40 742.41,88.13 743.43,87.42 744.45,83.35 745.47,87.58 746.49,86.72 747.51,89.08 748.53,85.62 749.55,90.05 750.57,89.33 751.59,90.06 752.61,85.96 753.63,90.44 754.65,90.26 755.67,89.85 756.69,85.21 757.71,90.75 758.73,89.39 759.75,86.86 760.77,82.82 761.79,89.73 762.81,88.58 763.83,89.00 764.85,83.64 765.87,89.60 766.89,89.49 767.91,90.00 768.93,85.45 769.95,90.10 770.97,87.56 771.99,84.81 773.01,79.96 774.03,85.52 775.05,83.99 776.07,83.51 777.09,76.88 778.11,82.38 779.13,80.39 780.15,80.38 781.17,74.94 782.19,78.94 783.21,78.23 784.23,78.25 785.25,78.12 786.27,85.24 787.29,86.62 788.31,85.92 789.33,82.62 790.35,86.46 791.37,83.55 792.39,82.35 793.41,78.38 794.43,84.52 795.45,83.79 796.47,84.42 797.49,81.38 798.51,86.24 799.53,87.21 800.55,87.47 801.57,84.42 802.59,87.67 803.61,87.81 804.63,87.26 805.65,84.70 806.67,88.36 807.69,88.29 808.71,89.85 809.73,86.45 810.75,90.46 811.77,90.03 812.79,90.49 813.81,84.32 814.83,89.63 815.85,87.67 816.87,86.43 817.89,84.23 818.91,88.50 819.93,86.96 820.95,87.95 821.97,83.44 822.99,87.37 824.01,87.32 825.03,87.82 826.05,81.23 827.07,86.31 828.09,84.80 829.11,85.13 830.13,79.09 831.15,86.57 832.17,84.74 833.19,86.45 834.21,82.27 835.23,91.39 836.25,91.37 837.27,92.89 838.29,88.40 839.31,93.07 840.33,90.07 841.35,87.42 842.37,80.68 843.39,85.55 844.41,85.41 845.43,85.57 846.45,81.78 847.47,88.36 848.49,88.18 849.51,89.36 850.53,85.24 851.55,89.74 852.57,88.71 853.59,88.60 854.61,86.20 855.63,90.85 856.65,90.16 857.67,90.27 858.69,87.13 859.71,90.67 860.73,89.16 861.76,90.76 862.78,87.65 863.80,90.93 864.82,91.28 865.84,90.73 866.86,87.34 867.88,91.30 868.90,90.49 869.92,92.28 870.94,88.21 871.96,92.24 872.98,91.60 874.00,92.63 875.02,92.03 876.04,94.47 877.06,95.77 878.08,96.21 879.10,69.93 880.12,72.23 881.14,73.38 882.16,73.45 883.18,73.39 884.20,74.82 885.22,74.89 886.24,75.00 887.26,74.76 888.28,74.84 889.30,74.83 890.32,75.00 891.34,74.58 892.36,75.01 893.38,75.22 894.40,74.99 895.42,74.87 896.44,75.12 897.46,74.91 898.48,74.63 899.50,73.28 900.52,73.85 901.54,73.81 902.56,73.83 903.58,73.32 904.60,74.30 905.62,75.06 906.64,75.19 907.66,74.72 908.68,74.89 909.70,74.91 910.72,74.74 911.74,74.75 912.76,74.51 913.78,74.57 914.80,74.63 915.82,74.51 916.84,74.73 917.86,74.70 918.88,74.61 919.90,73.95 920.92,74.50 921.94,74.45 922.96,74.75 923.98,74.52 925.00,74.59 926.02,74.40 927.04,74.42 928.06,73.92 929.08,74.49 930.10,74.40 931.12,74.31 932.14,74.29 933.16,74.38 934.18,74.64 935.20,74.75 936.22,74.28 937.24,74.65 938.26,74.47 939.28,74.43 940.30,74.25 941.32,74.55 942.34,74.83 943.36,74.92 944.38,74.56 945.40,75.12 946.42,75.40 947.44,75.30 948.46,74.53 949.48,75.98 950.50,75.78 951.52,75.93 952.54,75.72 953.56,76.44 954.58,76.55 955.60,76.67 956.62,76.47 957.64,77.47 958.66,77.27 959.68,76.75 960.70,76.20 961.72,77.69 962.74,77.59 963.76,78.04 964.78,77.63 965.80,78.35 966.82,78.31 967.84,78.75 968.86,79.02 969.88,79.56 970.90,79.67 971.92,80.61 972.94,81.07 973.96,82.18 974.98,88.41 976.00,89.34" fill="none" stroke="#0d6efd" stroke-width="2"/>
</svg>
