<svg xmlns="http://www.w3.org/2000/svg" width="1000" height="320" viewBox="0 0 1000 320">
  <rect width="100%" height="100%" fill="#ffffff"/>
  <text x="60" y="24" font-family="Arial" font-size="18" font-weight="bold">encoded_1080p.mp4 - native VMAF Over Time</text>
  <text x="60" y="308" font-family="Arial" font-size="12" fill="#555">Mean=93.564 Min=87.605 Max=96.386</text>
  <line x1="60" y1="40" x2="60" y2="276" stroke="#333" stroke-width="1"/>
  <line x1="60" y1="276" x2="976" y2="276" stroke="#333" stroke-width="1"/>
  <line x1="60" y1="63.6" x2="976" y2="63.6" stroke="#ddd" stroke-width="1"/>
  <line x1="60" y1="87.2" x2="976" y2="87.2" stroke="#eee" stroke-width="1"/>
  <line x1="60" y1="158.0" x2="976" y2="158.0" stroke="#eee" stroke-width="1"/>
  <text x="12" y="44" font-family="Arial" font-size="12">100</text>
  <text x="20" y="67.6" font-family="Arial" font-size="12">90</text>
  <text x="20" y="91.2" font-family="Arial" font-size="12">80</text>
  <text x="20" y="162.0" font-family="Arial" font-size="12">50</text>
  <text x="60" y="300" font-family="Arial" font-size="12">00:00.000</text>
  <text x="924" y="300" font-family="Arial" font-size="12">00:14.982</text>
  <polyline points="60.00,66.27 61.02,67.82 62.04,68.06 63.06,68.20 64.08,66.95 65.10,68.02 66.12,68.02 67.14,68.25 68.16,67.45 69.18,69.24 70.20,68.62 71.22,68.35 72.24,66.88 73.26,69.14 74.28,68.64 75.30,69.25 76.32,67.23 77.34,68.51 78.36,67.86 79.38,67.90 80.40,66.69 81.42,65.41 82.44,64.89 83.46,64.00 84.48,62.28 85.50,59.27 86.52,58.28 87.54,57.26 88.56,55.23 89.58,54.55 90.60,54.39 91.62,54.14 92.64,52.15 93.66,53.09 94.68,52.84 95.70,52.39 96.72,50.76 97.74,52.27 98.76,51.90 99.78,51.94 100.80,50.11 101.82,51.43 102.84,51.49 103.86,51.67 104.88,49.84 105.90,51.92 106.92,51.96 107.94,51.76 108.96,50.49 109.98,52.28 111.00,52.08 112.02,52.47 113.04,51.02 114.06,52.39 115.08,52.55 116.10,53.03 117.12,52.10 118.14,53.13 119.16,53.37 120.18,53.34 121.20,52.90 122.22,53.44 123.24,53.65 124.26,53.99 125.28,53.02 126.30,54.22 127.32,54.04 128.34,54.76 129.36,53.78 130.38,55.04 131.40,54.72 132.42,55.53 133.44,55.17 134.46,55.96 135.48,56.19 136.50,48.74 137.52,52.42 138.54,53.44 139.56,54.10 140.58,51.96 141.60,53.71 142.62,53.64 143.64,54.13 144.66,51.23 145.68,53.55 146.70,53.56 147.72,53.94 148.74,51.27 149.76,53.84 150.78,53.94 151.80,54.24 152.82,51.56 153.84,53.79 154.86,53.88 155.88,54.02 156.90,51.50 157.92,54.14 158.94,53.97 159.96,53.98 160.98,52.38 162.00,54.48 163.02,54.14 164.04,53.85 165.06,52.33 166.08,54.37 167.10,54.44 168.12,54.14 169.14,52.73 170.16,54.40 171.18,54.09 172.20,54.32 173.22,52.61 174.24,54.18 175.27,54.36 176.29,54.52 177.31,52.46 178.33,54.57 179.35,54.39 180.37,54.58 181.39,52.53 182.41,54.69 183.43,54.51 184.45,54.12 185.47,52.95 186.49,54.47 187.51,54.13 188.53,54.36 189.55,53.23 190.57,54.98 191.59,54.20 192.61,54.47 193.63,52.64 194.65,54.44 195.67,54.54 196.69,54.83 197.71,52.82 198.73,54.65 199.75,54.45 200.77,54.95 201.79,53.11 202.81,54.67 203.83,54.05 204.85,54.15 205.87,52.73 206.89,54.04 207.91,54.02 208.93,54.36 209.95,51.58 210.97,53.62 211.99,53.72 213.01,53.88 214.03,52.14 215.05,54.90 216.07,54.44 217.09,54.61 218.11,52.05 219.13,54.62 220.15,53.96 221.17,53.84 222.19,51.67 223.21,54.42 224.23,53.66 225.25,54.45 226.27,51.34 227.29,53.89 228.31,54.28 229.33,54.50 230.35,52.24 231.37,55.50 232.39,54.94 233.41,55.39 234.43,52.85 235.45,55.60 236.47,55.68 237.49,55.53 238.51,52.51 239.53,55.01 240.55,54.47 241.57,54.64 242.59,51.60 243.61,53.96 244.63,54.35 245.65,54.57 246.67,51.97 247.69,55.67 248.71,55.38 249.73,55.96 250.75,53.58 251.77,56.49 252.79,55.44 253.81,55.33 254.83,52.49 255.85,55.04 256.87,55.34 257.89,55.48 258.91,52.48 259.93,55.33 260.95,53.85 261.97,54.13 262.99,51.10 264.01,54.95 265.03,54.06 266.05,54.57 267.07,52.66 268.09,55.30 269.11,55.37 270.13,55.37 271.15,53.24 272.17,55.57 273.19,55.53 274.21,55.85 275.23,52.98 276.25,56.26 277.27,55.28 278.29,55.01 279.31,52.60 280.33,55.57 281.35,55.10 282.37,54.96 283.39,52.26 284.41,55.55 285.43,55.00 286.45,54.77 287.47,52.37 288.49,55.15 289.51,54.49 290.53,54.59 291.55,52.17 292.57,54.74 293.59,54.80 294.61,55.01 295.63,52.99 296.65,56.42 297.67,56.06 298.69,56.34 299.71,53.18 300.73,55.95 301.75,55.96 302.77,55.80 303.79,53.35 304.81,55.63 305.83,55.75 306.85,55.88 307.87,53.44 308.89,56.41 309.91,56.19 310.93,56.08 311.95,53.36 312.97,56.04 313.99,56.15 315.01,56.18 316.03,53.42 317.05,55.63 318.07,55.61 319.09,55.61 320.11,53.03 321.13,56.10 322.15,55.85 323.17,56.15 324.19,53.00 325.21,56.38 326.23,55.86 327.25,56.64 328.27,53.71 329.29,56.57 330.31,55.77 331.33,56.14 332.35,53.77 333.37,56.97 334.39,56.04 335.41,56.89 336.43,54.14 337.45,57.56 338.47,57.45 339.49,57.44 340.51,55.30 341.53,58.75 342.55,58.04 343.57,58.22 344.59,55.45 345.61,57.66 346.63,56.69 347.65,57.40 348.67,54.04 349.69,58.23 350.71,57.28 351.73,57.76 352.75,54.64 353.77,56.72 354.79,56.83 355.81,57.33 356.83,54.78 357.85,56.72 358.87,56.03 359.89,56.27 360.91,53.69 361.93,56.59 362.95,56.74 363.97,57.54 364.99,54.34 366.01,57.97 367.03,57.68 368.05,57.42 369.07,54.44 370.09,57.69 371.11,57.19 372.13,57.03 373.15,54.77 374.17,56.65 375.19,56.95 376.21,56.66 377.23,55.04 378.25,57.27 379.27,57.09 380.29,57.66 381.31,55.19 382.33,57.51 383.35,56.87 384.37,56.92 385.39,55.31 386.41,56.77 387.43,55.98 388.45,56.30 389.47,53.66 390.49,57.17 391.51,49.24 392.53,54.16 393.55,54.89 394.57,55.63 395.59,53.00 396.61,55.51 397.63,56.24 398.65,56.45 399.67,54.14 400.69,56.62 401.71,57.44 402.73,57.55 403.76,55.05 404.78,57.33 405.80,57.10 406.82,57.20 407.84,54.64 408.86,57.51 409.88,57.87 410.90,57.75 411.92,54.79 412.94,57.72 413.96,57.96 414.98,58.41 416.00,55.86 417.02,57.69 418.04,57.90 419.06,58.08 420.08,55.22 421.10,58.43 422.12,58.18 423.14,58.50 424.16,54.54 425.18,57.63 426.20,57.30 427.22,58.06 428.24,54.31 429.26,57.22 430.28,56.93 431.30,58.62 432.32,54.78 433.34,58.63 434.36,57.23 435.38,58.44 436.40,54.45 437.42,58.18 438.44,57.48 439.46,58.70 440.48,55.01 441.50,58.67 442.52,57.65 443.54,58.23 444.56,53.96 445.58,57.41 446.60,56.66 447.62,57.43 448.64,55.13 449.66,57.78 450.68,57.38 451.70,58.02 452.72,56.01 453.74,58.06 454.76,57.98 455.78,57.66 456.80,54.35 457.82,57.06 458.84,56.25 459.86,56.50 460.88,53.65 461.90,56.81 462.92,55.96 463.94,56.53 464.96,53.30 465.98,57.12 467.00,58.25 468.02,57.90 469.04,54.54 470.06,56.81 471.08,55.91 472.10,55.79 473.12,52.79 474.14,55.38 475.16,55.37 476.18,55.91 477.20,53.16 478.22,55.40 479.24,55.94 480.26,55.78 481.28,52.96 482.30,55.41 483.32,55.34 484.34,55.64 485.36,53.27 486.38,56.22 487.40,56.29 488.42,55.96 489.44,53.99 490.46,56.81 491.48,55.61 492.50,56.02 493.52,53.49 494.54,56.27 495.56,56.16 496.58,56.06 497.60,53.88 498.62,56.03 499.64,55.99 500.66,56.44 501.68,54.22 502.70,56.52 503.72,56.20 504.74,56.84 505.76,54.37 506.78,56.56 507.80,56.91 508.82,57.00 509.84,54.35 510.86,57.09 511.88,56.68 512.90,57.88 513.92,54.93 514.94,57.17 515.96,57.10 516.98,57.94 518.00,54.99 519.02,56.81 520.04,56.51 521.06,56.90 522.08,54.07 523.10,56.97 524.12,56.79 525.14,57.19 526.16,54.48 527.18,57.07 528.20,56.45 529.22,57.14 530.24,53.71 531.26,56.43 532.28,56.25 533.30,56.69 534.32,54.16 535.34,56.87 536.36,55.91 537.38,56.29 538.40,53.49 539.42,55.86 540.44,56.54 541.46,57.24 542.48,54.48 543.50,56.75 544.52,56.49 545.54,56.76 546.56,53.62 547.58,56.63 548.60,56.76 549.62,56.39 550.64,53.75 551.66,55.97 552.68,56.14 553.70,56.51 554.72,54.00 555.74,56.04 556.76,56.09 557.78,56.71 558.80,54.33 559.82,55.81 560.84,55.42 561.86,55.88 562.88,53.60 563.90,56.03 564.92,55.69 565.94,56.06 566.96,54.01 567.98,56.70 569.00,56.02 570.02,56.57 571.04,54.68 572.06,57.21 573.08,56.21 574.10,56.40 575.12,54.15 576.14,56.21 577.16,55.63 578.18,55.96 579.20,53.45 580.22,56.39 581.24,56.32 582.26,56.20 583.28,54.27 584.30,55.65 585.32,55.46 586.34,55.73 587.36,54.02 588.38,55.27 589.40,55.02 590.42,55.40 591.44,53.24 592.46,55.88 593.48,55.85 594.50,55.64 595.52,53.60 596.54,55.18 597.56,55.12 598.58,55.74 599.60,53.05 600.62,55.31 601.64,55.40 602.66,56.13 603.68,53.10 604.70,55.96 605.72,55.64 606.74,56.00 607.76,52.63 608.78,55.68 609.80,55.64 610.82,56.74 611.84,54.02 612.86,58.14 613.88,56.94 614.90,57.70 615.92,54.21 616.94,56.59 617.96,55.40 618.98,55.83 620.00,52.70 621.02,55.05 622.04,54.98 623.06,55.18 624.08,52.68 625.10,55.70 626.12,55.07 627.14,55.58 628.16,52.74 629.18,55.90 630.20,55.37 631.22,56.49 632.24,53.48 633.27,55.61 634.29,55.34 635.31,56.25 636.33,53.35 637.35,56.44 638.37,55.75 639.39,57.33 640.41,53.77 641.43,56.63 642.45,56.02 643.47,56.40 644.49,54.03 645.51,57.08 646.53,50.18 647.55,55.08 648.57,54.93 649.59,55.67 650.61,53.69 651.63,57.10 652.65,56.09 653.67,57.60 654.69,54.18 655.71,57.53 656.73,56.68 657.75,57.92 658.77,54.02 659.79,57.85 660.81,57.43 661.83,57.71 662.85,54.69 663.87,56.99 664.89,57.12 665.91,57.04 666.93,54.57 667.95,57.05 668.97,56.17 669.99,56.89 671.01,53.45 672.03,57.31 673.05,56.85 674.07,57.37 675.09,54.34 676.11,57.62 677.13,56.71 678.15,56.66 679.17,53.97 680.19,56.90 681.21,56.73 682.23,56.82 683.25,54.39 684.27,57.28 685.29,57.13 686.31,57.60 687.33,54.12 688.35,57.19 689.37,55.87 690.39,55.60 691.41,52.70 692.43,56.24 693.45,55.85 694.47,56.20 695.49,53.30 696.51,56.05 697.53,55.62 698.55,56.03 699.57,53.65 700.59,55.99 701.61,55.34 702.63,55.48 703.65,53.42 704.67,55.85 705.69,55.50 706.71,55.60 707.73,53.50 708.75,55.88 709.77,55.39 710.79,56.17 711.81,53.59 712.83,54.90 713.85,55.15 714.87,55.02 715.89,53.32 716.91,54.76 717.93,54.29 718.95,54.99 719.97,53.18 720.99,56.10 722.01,55.91 723.03,55.74 724.05,53.35 725.07,54.63 726.09,54.21 727.11,55.09 728.13,53.66 729.15,54.78 730.17,54.98 731.19,54.75 732.21,53.98 733.23,55.81 734.25,55.21 735.27,55.48 736.29,53.67 737.31,55.61 738.33,55.58 739.35,55.53 740.37,53.24 741.39,55.03 742.41,54.48 743.43,54.22 744.45,52.63 745.47,54.83 746.49,54.57 747.51,55.38 748.53,53.22 749.55,56.25 750.57,56.02 751.59,56.31 752.61,54.23 753.63,56.05 754.65,55.78 755.67,56.13 756.69,54.40 757.71,56.15 758.73,55.70 759.75,56.63 760.77,53.37 761.79,57.29 762.81,56.40 763.83,56.80 764.85,53.31 765.87,56.42 766.89,56.24 767.91,56.69 768.93,53.78 769.95,55.94 770.97,55.34 771.99,55.51 773.01,52.81 774.03,55.72 775.05,54.84 776.07,55.43 777.09,52.49 778.11,55.16 779.13,55.30 780.15,54.84 781.17,52.32 782.19,54.59 783.21,54.31 784.23,54.59 785.25,52.84 786.27,55.71 787.29,55.45 788.31,55.68 789.33,53.46 790.35,55.56 791.37,54.93 792.39,55.15 793.41,52.66 794.43,55.63 795.45,56.06 796.47,55.03 797.49,53.00 798.51,55.23 799.53,55.33 800.55,55.08 801.57,53.62 802.59,54.92 803.61,54.90 804.63,55.53 805.65,53.95 806.67,55.50 807.69,55.49 808.71,55.95 809.73,54.19 810.75,56.21 811.77,56.19 812.79,56.71 813.81,53.65 814.83,56.62 815.85,55.83 816.87,56.46 817.89,54.19 818.91,56.12 819.93,55.75 820.95,55.61 821.97,53.43 822.99,56.33 824.01,56.46 825.03,56.47 826.05,53.76 827.07,57.01 828.09,56.06 829.11,56.01 830.13,52.83 831.15,56.79 832.17,55.76 833.19,57.03 834.21,53.96 835.23,57.79 836.25,56.88 837.27,57.62 838.29,53.88 839.31,57.39 840.33,55.90 841.35,56.38 842.37,53.94 843.39,56.41 844.41,55.99 845.43,55.46 846.45,53.05 847.47,56.32 848.49,55.50 849.51,56.10 850.53,53.73 851.55,55.63 852.57,55.83 853.59,55.48 854.61,54.16 855.63,55.82 856.65,55.78 857.67,56.48 858.69,53.98 859.71,56.25 860.73,55.67 861.76,55.49 862.78,53.58 863.80,55.84 864.82,55.79 865.84,56.61 866.86,54.43 867.88,56.14 868.90,56.04 869.92,56.37 870.94,55.35 871.96,57.02 872.98,56.92 874.00,57.36 875.02,56.57 876.04,57.82 877.06,58.72 878.08,59.33 879.10,48.53 880.12,49.74 881.14,50.53 882.16,51.03 883.18,50.53 884.20,51.23 885.22,51.29 886.24,51.22 887.26,51.12 888.28,51.26 889.30,51.17 890.32,51.18 891.34,51.07 892.36,51.30 893.38,51.32 894.40,51.22 895.42,50.97 896.44,51.10 897.46,51.12 898.48,51.31 899.50,51.01 900.52,51.01 901.54,51.23 902.56,51.43 903.58,51.06 904.60,51.47 905.62,51.45 906.64,51.45 907.66,51.14 908.68,51.35 909.70,51.47 910.72,51.39 911.74,51.15 912.76,51.51 913.78,51.32 914.80,51.46 915.82,51.04 916.84,51.43 917.86,51.29 918.88,51.26 919.90,51.00 920.92,51.29 921.94,51.51 922.96,51.48 923.98,51.20 925.00,51.38 926.02,51.63 927.04,51.50 928.06,51.17 929.08,51.35 930.10,51.31 931.12,51.26 932.14,50.92 933.16,51.17 934.18,51.32 935.20,51.43 936.22,51.07 937.24,51.52 938.26,51.31 939.28,51.40 940.30,51.25 941.32,51.52 942.34,51.47 943.36,51.50 944.38,51.26 945.40,51.76 946.42,52.07 947.44,51.93 948.46,51.14 949.48,51.95 950.50,51.82 951.52,51.85 952.54,51.47 953.56,52.01 954.58,52.17 955.60,52.09 956.62,51.54 957.64,52.38 958.66,52.65 959.68,52.52 960.70,51.73 961.72,52.46 962.74,52.74 963.76,52.66 964.78,52.46 965.80,52.69 966.82,52.85 967.84,53.04 968.86,52.89 969.88,53.09 970.90,53.42 971.92,53.80 972.94,54.11 973.96,54.29 974.98,56.08 976.00,57.40" fill="none" stroke="#0d6efd" stroke-width="2"/>
</svg>
