<svg xmlns="http://www.w3.org/2000/svg" width="1000" height="320" viewBox="0 0 1000 320">
  <rect width="100%" height="100%" fill="#ffffff"/>
  <text x="60" y="24" font-family="Arial" font-size="18" font-weight="bold">encoded_1080p.mp4 - upscaled_3840x2160 VMAF Over Time</text>
  <text x="60" y="308" font-family="Arial" font-size="12" fill="#555">Mean=86.139 Min=76.870 Max=92.572</text>
  <line x1="60" y1="40" x2="60" y2="276" stroke="#333" stroke-width="1"/>
  <line x1="60" y1="276" x2="976" y2="276" stroke="#333" stroke-width="1"/>
  <line x1="60" y1="63.6" x2="976" y2="63.6" stroke="#ddd" stroke-width="1"/>
  <line x1="60" y1="87.2" x2="976" y2="87.2" stroke="#eee" stroke-width="1"/>
  <line x1="60" y1="158.0" x2="976" y2="158.0" stroke="#eee" stroke-width="1"/>
  <text x="12" y="44" font-family="Arial" font-size="12">100</text>
  <text x="20" y="67.6" font-family="Arial" font-size="12">90</text>
  <text x="20" y="91.2" font-family="Arial" font-size="12">80</text>
  <text x="20" y="162.0" font-family="Arial" font-size="12">50</text>
  <text x="60" y="300" font-family="Arial" font-size="12">00:00.000</text>
  <text x="924" y="300" font-family="Arial" font-size="12">00:14.982</text>
  <polyline points="60.00,88.23 61.02,92.29 62.04,92.19 63.06,91.74 64.08,90.80 65.10,92.17 66.12,92.60 67.14,93.01 68.16,91.59 69.18,94.42 70.20,91.95 71.22,92.53 72.24,91.95 73.26,94.59 74.28,93.97 75.30,94.17 76.32,91.59 77.34,94.25 78.36,91.24 79.38,92.21 80.40,90.26 81.42,89.01 82.44,87.52 83.46,86.55 84.48,84.51 85.50,78.47 86.52,76.72 87.54,75.69 88.56,73.32 89.58,71.27 90.60,70.81 91.62,70.35 92.64,67.32 93.66,68.46 94.68,67.10 95.70,66.29 96.72,64.14 97.74,66.26 98.76,65.41 99.78,65.16 100.80,62.46 101.82,64.65 102.84,64.78 103.86,65.46 104.88,62.51 105.90,64.86 106.92,65.29 107.94,66.07 108.96,63.48 109.98,66.35 111.00,66.22 112.02,66.47 113.04,64.20 114.06,67.18 115.08,66.40 116.10,67.80 117.12,65.95 118.14,68.41 119.16,69.10 120.18,68.41 121.20,67.69 122.22,68.18 123.24,68.45 124.26,70.04 125.28,68.07 126.30,69.71 127.32,69.54 128.34,71.48 129.36,69.59 130.38,72.41 131.40,70.90 132.42,71.96 133.44,71.26 134.46,72.90 135.48,73.03 136.50,61.29 137.52,68.05 138.54,68.64 139.56,69.95 140.58,65.60 141.60,69.70 142.62,68.37 143.64,69.64 144.66,65.44 145.68,69.94 146.70,69.35 147.72,70.24 148.74,65.87 149.76,70.68 150.78,70.21 151.80,71.42 152.82,67.22 153.84,71.23 154.86,70.63 155.88,71.34 156.90,67.59 157.92,71.53 158.94,71.61 159.96,71.62 160.98,68.64 162.00,72.61 163.02,71.71 164.04,71.28 165.06,68.47 166.08,72.11 167.10,71.87 168.12,71.77 169.14,69.57 170.16,72.55 171.18,71.89 172.20,72.30 173.22,69.75 174.24,73.49 175.27,73.02 176.29,73.10 177.31,70.10 178.33,74.25 179.35,72.78 180.37,73.06 181.39,70.32 182.41,74.93 183.43,73.90 184.45,73.40 185.47,70.97 186.49,73.93 187.51,73.14 188.53,73.83 189.55,71.60 190.57,74.18 191.59,73.71 192.61,73.84 193.63,70.46 194.65,73.94 195.67,73.58 196.69,73.99 197.71,71.14 198.73,73.88 199.75,73.79 200.77,74.82 201.79,71.05 202.81,74.24 203.83,72.98 204.85,72.11 205.87,69.87 206.89,73.20 207.91,72.20 208.93,71.54 209.95,67.12 210.97,70.65 211.99,69.94 213.01,70.36 214.03,67.68 215.05,72.52 216.07,71.98 217.09,72.66 218.11,68.75 219.13,71.84 220.15,70.66 221.17,70.48 222.19,65.77 223.21,70.84 224.23,68.32 225.25,70.23 226.27,65.51 227.29,71.00 228.31,70.24 229.33,71.37 230.35,67.50 231.37,72.91 232.39,73.15 233.41,74.03 234.43,71.11 235.45,75.24 236.47,75.41 237.49,75.28 238.51,70.33 239.53,75.51 240.55,73.50 241.57,74.14 242.59,67.97 243.61,72.11 244.63,72.35 245.65,72.70 246.67,68.64 247.69,75.46 248.71,74.68 249.73,75.97 250.75,72.83 251.77,76.21 252.79,75.00 253.81,74.44 254.83,69.65 255.85,74.71 256.87,74.01 257.89,73.95 258.91,69.36 259.93,73.11 260.95,70.55 261.97,70.67 262.99,65.41 264.01,71.31 265.03,69.58 266.05,70.27 267.07,67.53 268.09,72.83 269.11,73.07 270.13,72.94 271.15,70.20 272.17,74.54 273.19,73.81 274.21,74.70 275.23,71.22 276.25,75.33 277.27,73.46 278.29,73.03 279.31,68.16 280.33,72.83 281.35,71.73 282.37,70.87 283.39,67.13 284.41,72.18 285.43,71.68 286.45,70.81 287.47,67.58 288.49,72.16 289.51,70.80 290.53,71.45 291.55,67.35 292.57,71.70 293.59,72.44 294.61,72.51 295.63,70.72 296.65,76.35 297.67,75.79 298.69,76.28 299.71,70.45 300.73,76.38 301.75,75.37 302.77,76.18 303.79,75.15 304.81,77.97 305.83,76.72 306.85,76.61 307.87,71.97 308.89,76.36 309.91,75.82 310.93,75.56 311.95,70.80 312.97,75.27 313.99,75.09 315.01,74.72 316.03,69.83 317.05,74.29 318.07,73.19 319.09,73.17 320.11,69.39 321.13,75.30 322.15,74.35 323.17,74.41 324.19,69.91 325.21,76.20 326.23,74.05 327.25,74.56 328.27,69.85 329.29,75.23 330.31,73.71 331.33,74.00 332.35,69.34 333.37,75.18 334.39,73.39 335.41,74.16 336.43,70.87 337.45,77.40 338.47,76.82 339.49,76.80 340.51,73.65 341.53,79.08 342.55,77.21 343.57,77.80 344.59,73.35 345.61,77.54 346.63,74.77 347.65,75.56 348.67,70.19 349.69,75.30 350.71,74.11 351.73,74.80 352.75,73.88 353.77,76.88 354.79,77.20 355.81,78.07 356.83,75.15 357.85,76.66 358.87,75.47 359.89,75.36 360.91,70.91 361.93,74.49 362.95,73.97 363.97,74.32 364.99,69.76 366.01,75.22 367.03,75.04 368.05,76.74 369.07,73.04 370.09,78.70 371.11,78.62 372.13,78.32 373.15,74.24 374.17,78.09 375.19,77.12 376.21,77.27 377.23,73.93 378.25,77.09 379.27,77.20 380.29,78.32 381.31,73.40 382.33,76.71 383.35,75.66 384.37,75.59 385.39,71.77 386.41,74.14 387.43,72.63 388.45,72.71 389.47,69.22 390.49,74.28 391.51,61.23 392.53,69.37 393.55,71.25 394.57,72.14 395.59,68.81 396.61,73.49 397.63,75.12 398.65,76.09 399.67,72.82 400.69,76.59 401.71,78.37 402.73,78.57 403.76,75.20 404.78,78.62 405.80,78.35 406.82,78.27 407.84,73.85 408.86,77.31 409.88,79.98 410.90,79.22 411.92,74.21 412.94,78.56 413.96,78.81 414.98,80.14 416.00,75.73 417.02,77.81 418.04,78.20 419.06,79.03 420.08,75.35 421.10,78.78 422.12,78.40 423.14,78.25 424.16,72.54 425.18,75.47 426.20,75.73 427.22,76.27 428.24,70.41 429.26,77.23 430.28,78.38 431.30,80.10 432.32,74.33 433.34,78.91 434.36,76.60 435.38,78.43 436.40,72.93 437.42,78.28 438.44,77.60 439.46,80.07 440.48,74.44 441.50,79.56 442.52,77.70 443.54,79.11 444.56,72.97 445.58,78.07 446.60,77.23 447.62,77.63 448.64,73.13 449.66,76.95 450.68,76.53 451.70,77.73 452.72,73.53 453.74,76.99 454.76,77.04 455.78,77.03 456.80,70.73 457.82,74.52 458.84,73.61 459.86,74.43 460.88,69.07 461.90,73.69 462.92,71.81 463.94,73.53 464.96,68.04 465.98,74.81 467.00,80.96 468.02,81.62 469.04,75.11 470.06,76.17 471.08,75.39 472.10,74.18 473.12,69.28 474.14,73.09 475.16,72.63 476.18,73.10 477.20,68.66 478.22,73.30 479.24,73.14 480.26,73.10 481.28,68.80 482.30,72.03 483.32,71.85 484.34,72.35 485.36,69.54 486.38,74.48 487.40,75.00 488.42,75.89 489.44,72.39 490.46,76.29 491.48,74.70 492.50,74.99 493.52,70.94 494.54,74.85 495.56,73.99 496.58,74.22 497.60,70.91 498.62,73.59 499.64,74.45 500.66,76.42 501.68,73.03 502.70,75.62 503.72,75.42 504.74,76.54 505.76,72.46 506.78,75.63 507.80,75.88 508.82,75.81 509.84,71.51 510.86,75.74 511.88,75.59 512.90,77.44 513.92,74.18 514.94,77.10 515.96,78.41 516.98,78.75 518.00,73.29 519.02,74.99 520.04,73.74 521.06,74.63 522.08,70.34 523.10,76.49 524.12,75.47 525.14,76.42 526.16,71.30 527.18,75.48 528.20,73.11 529.22,74.23 530.24,68.24 531.26,72.31 532.28,72.17 533.30,75.31 534.32,72.22 535.34,76.45 536.36,74.45 537.38,74.66 538.40,70.37 539.42,73.79 540.44,74.79 541.46,75.36 542.48,71.42 543.50,75.85 544.52,75.58 545.54,76.64 546.56,71.74 547.58,75.74 548.60,75.55 549.62,75.38 550.64,71.92 551.66,75.30 552.68,75.17 553.70,75.76 554.72,72.44 555.74,77.08 556.76,76.97 557.78,77.98 558.80,74.25 559.82,76.17 560.84,74.62 561.86,74.91 562.88,69.96 563.90,73.96 564.92,74.00 565.94,74.56 566.96,71.23 567.98,76.03 569.00,75.68 570.02,77.55 571.04,73.77 572.06,78.71 573.08,77.53 574.10,77.63 575.12,72.29 576.14,75.31 577.16,73.67 578.18,74.83 579.20,70.86 580.22,75.56 581.24,76.23 582.26,75.92 583.28,72.89 584.30,75.97 585.32,75.65 586.34,76.70 587.36,73.36 588.38,75.27 589.40,73.71 590.42,74.60 591.44,70.89 592.46,74.15 593.48,73.43 594.50,73.65 595.52,69.30 596.54,72.28 597.56,73.49 598.58,74.72 599.60,69.73 600.62,73.38 601.64,73.58 602.66,73.92 603.68,69.98 604.70,74.01 605.72,72.92 606.74,73.52 607.76,66.84 608.78,72.25 609.80,71.22 610.82,72.94 611.84,71.41 612.86,78.38 613.88,75.85 614.90,76.84 615.92,70.55 616.94,74.75 617.96,71.67 618.98,72.49 620.00,67.46 621.02,71.93 622.04,71.04 623.06,71.30 624.08,66.93 625.10,71.37 626.12,70.83 627.14,71.66 628.16,67.21 629.18,71.48 630.20,71.01 631.22,72.05 632.24,67.83 633.27,71.83 634.29,71.12 635.31,73.24 636.33,68.48 637.35,73.58 638.37,73.86 639.39,75.76 640.41,71.43 641.43,76.68 642.45,75.08 643.47,75.55 644.49,71.63 645.51,76.75 646.53,63.68 647.55,71.67 648.57,72.16 649.59,73.69 650.61,69.53 651.63,74.81 652.65,73.81 653.67,74.96 654.69,71.40 655.71,77.11 656.73,76.76 657.75,77.95 658.77,73.07 659.79,79.40 660.81,77.72 661.83,77.16 662.85,74.23 663.87,77.72 664.89,78.57 665.91,77.84 666.93,72.81 667.95,76.99 668.97,75.63 669.99,75.01 671.01,70.29 672.03,76.36 673.05,75.13 674.07,74.78 675.09,70.68 676.11,75.89 677.13,75.34 678.15,75.41 679.17,71.32 680.19,77.03 681.21,75.78 682.23,77.05 683.25,73.77 684.27,79.23 685.29,77.47 686.31,78.74 687.33,72.19 688.35,76.74 689.37,74.79 690.39,74.88 691.41,69.78 692.43,74.33 693.45,73.64 694.47,74.48 695.49,70.67 696.51,75.05 697.53,74.46 698.55,74.67 699.57,71.27 700.59,74.98 701.61,73.28 702.63,74.02 703.65,71.32 704.67,74.72 705.69,74.75 706.71,75.11 707.73,72.25 708.75,75.12 709.77,74.52 710.79,75.27 711.81,72.21 712.83,74.23 713.85,73.90 714.87,73.77 715.89,71.77 716.91,73.83 717.93,73.02 718.95,72.95 719.97,71.16 720.99,78.61 722.01,77.84 723.03,76.92 724.05,73.75 725.07,75.08 726.09,73.90 727.11,74.96 728.13,72.92 729.15,75.07 730.17,74.85 731.19,75.33 732.21,73.42 733.23,76.52 734.25,75.42 735.27,74.96 736.29,72.31 737.31,75.53 738.33,74.67 739.35,74.56 740.37,71.18 741.39,73.38 742.41,73.11 743.43,72.53 744.45,69.70 745.47,72.57 746.49,72.38 747.51,73.57 748.53,70.18 749.55,74.84 750.57,74.88 751.59,75.72 752.61,72.46 753.63,75.67 754.65,75.19 755.67,75.28 756.69,72.16 757.71,75.69 758.73,74.72 759.75,75.10 760.77,70.42 761.79,76.06 762.81,74.88 763.83,75.26 764.85,69.88 765.87,76.29 766.89,75.47 767.91,76.61 768.93,71.41 769.95,74.80 770.97,72.75 771.99,73.13 773.01,68.39 774.03,72.54 775.05,71.44 776.07,71.67 777.09,66.66 778.11,71.34 779.13,70.16 780.15,69.76 781.17,64.88 782.19,68.31 783.21,68.09 784.23,68.26 785.25,67.09 786.27,72.75 787.29,73.16 788.31,74.28 789.33,70.86 790.35,73.28 791.37,71.62 792.39,71.12 793.41,67.23 794.43,71.76 795.45,71.84 796.47,71.54 797.49,69.45 798.51,73.44 799.53,74.25 800.55,73.96 801.57,71.32 802.59,73.50 803.61,73.48 804.63,73.61 805.65,71.46 806.67,73.92 807.69,74.41 808.71,74.96 809.73,72.06 810.75,75.88 811.77,74.29 812.79,75.54 813.81,70.51 814.83,75.22 815.85,73.19 816.87,73.40 817.89,70.00 818.91,74.25 819.93,74.23 820.95,74.63 821.97,70.50 822.99,74.37 824.01,73.99 825.03,73.36 826.05,69.32 827.07,74.10 828.09,73.11 829.11,72.95 830.13,67.72 831.15,74.13 832.17,71.49 833.19,73.52 834.21,70.78 835.23,77.40 836.25,77.11 837.27,78.91 838.29,74.41 839.31,78.92 840.33,75.09 841.35,74.08 842.37,69.33 843.39,73.05 844.41,72.91 845.43,73.03 846.45,69.32 847.47,74.48 848.49,73.69 849.51,75.06 850.53,71.58 851.55,75.07 852.57,75.16 853.59,74.56 854.61,72.80 855.63,75.80 856.65,76.39 857.67,76.08 858.69,72.66 859.71,76.15 860.73,75.56 861.76,75.70 862.78,72.54 863.80,76.09 864.82,75.59 865.84,75.89 866.86,72.85 867.88,76.81 868.90,75.96 869.92,75.88 870.94,74.17 871.96,77.28 872.98,77.36 874.00,77.86 875.02,77.26 876.04,79.81 877.06,80.01 878.08,81.21 879.10,57.53 880.12,59.78 881.14,60.98 882.16,61.46 883.18,60.69 884.20,62.15 885.22,62.40 886.24,62.21 887.26,61.87 888.28,62.04 889.30,62.08 890.32,62.30 891.34,62.07 892.36,62.63 893.38,62.73 894.40,62.23 895.42,61.75 896.44,62.12 897.46,61.87 898.48,61.89 899.50,60.98 900.52,61.36 901.54,61.70 902.56,62.06 903.58,61.70 904.60,62.55 905.62,63.03 906.64,63.15 907.66,62.49 908.68,62.89 909.70,62.77 910.72,62.62 911.74,62.15 912.76,62.88 913.78,62.63 914.80,62.76 915.82,62.11 916.84,62.48 917.86,62.49 918.88,62.40 919.90,61.75 920.92,62.63 921.94,63.00 922.96,63.17 923.98,62.41 925.00,62.70 926.02,62.96 927.04,62.93 928.06,62.35 929.08,63.19 930.10,63.15 931.12,62.96 932.14,62.65 933.16,63.08 934.18,63.38 935.20,63.41 936.22,62.66 937.24,63.31 938.26,63.18 939.28,63.05 940.30,62.55 941.32,62.87 942.34,62.86 943.36,62.72 944.38,62.28 945.40,63.24 946.42,63.51 947.44,63.49 948.46,61.97 949.48,63.55 950.50,63.27 951.52,63.13 952.54,62.39 953.56,63.50 954.58,63.48 955.60,63.79 956.62,62.79 957.64,64.22 958.66,64.37 959.68,64.50 960.70,63.33 961.72,64.85 962.74,64.95 963.76,64.95 964.78,64.51 965.80,65.07 966.82,65.17 967.84,65.19 968.86,65.47 969.88,65.93 970.90,66.43 971.92,66.91 972.94,67.30 973.96,68.09 974.98,74.21 976.00,75.32" fill="none" stroke="#0d6efd" stroke-width="2"/>
</svg>
