<svg xmlns="http://www.w3.org/2000/svg" width="1000" height="320" viewBox="0 0 1000 320">
  <rect width="100%" height="100%" fill="#ffffff"/>
  <text x="60" y="24" font-family="Arial" font-size="18" font-weight="bold">encoded_2160p.mp4 - upscaled_3840x2160 VMAF Over Time</text>
  <text x="60" y="308" font-family="Arial" font-size="12" fill="#555">Mean=89.429 Min=85.036 Max=95.082</text>
  <line x1="60" y1="40" x2="60" y2="276" stroke="#333" stroke-width="1"/>
  <line x1="60" y1="276" x2="976" y2="276" stroke="#333" stroke-width="1"/>
  <line x1="60" y1="63.6" x2="976" y2="63.6" stroke="#ddd" stroke-width="1"/>
  <line x1="60" y1="87.2" x2="976" y2="87.2" stroke="#eee" stroke-width="1"/>
  <line x1="60" y1="158.0" x2="976" y2="158.0" stroke="#eee" stroke-width="1"/>
  <text x="12" y="44" font-family="Arial" font-size="12">100</text>
  <text x="20" y="67.6" font-family="Arial" font-size="12">90</text>
  <text x="20" y="91.2" font-family="Arial" font-size="12">80</text>
  <text x="20" y="162.0" font-family="Arial" font-size="12">50</text>
  <text x="60" y="300" font-family="Arial" font-size="12">00:00.000</text>
  <text x="924" y="300" font-family="Arial" font-size="12">00:14.982</text>
  <polyline points="60.00,69.76 61.02,72.84 62.04,71.89 63.06,72.56 64.08,70.83 65.10,72.87 66.12,73.32 67.14,74.84 68.16,71.05 69.18,73.80 70.20,72.38 71.22,73.95 72.24,71.31 73.26,74.88 74.28,73.55 75.30,73.96 76.32,71.76 77.34,73.85 78.36,72.64 79.38,73.59 80.40,70.59 81.42,73.96 82.44,73.43 83.46,75.32 84.48,72.17 85.50,71.66 86.52,69.35 87.54,68.57 88.56,66.61 89.58,65.97 90.60,65.47 91.62,65.11 92.64,63.52 93.66,63.63 94.68,62.81 95.70,62.38 96.72,60.91 97.74,60.93 98.76,60.36 99.78,60.31 100.80,58.37 101.82,59.06 102.84,58.50 103.86,58.91 104.88,56.91 105.90,58.33 106.92,57.91 107.94,58.21 108.96,56.47 109.98,57.58 111.00,57.54 112.02,57.86 113.04,56.87 114.06,58.11 115.08,57.86 116.10,58.42 117.12,57.22 118.14,57.86 119.16,58.50 120.18,57.56 121.20,59.65 122.22,58.96 123.24,59.71 124.26,58.78 125.28,60.04 126.30,59.35 127.32,60.33 128.34,59.39 129.36,60.65 130.38,61.14 131.40,60.87 132.42,60.76 133.44,61.94 134.46,62.15 135.48,62.70 136.50,53.98 137.52,59.20 138.54,60.55 139.56,58.87 140.58,61.13 141.60,61.19 142.62,61.83 143.64,59.28 144.66,61.23 145.68,61.47 146.70,61.57 147.72,59.09 148.74,62.09 149.76,62.17 150.78,62.31 151.80,59.57 152.82,61.66 153.84,62.17 154.86,61.60 155.88,59.87 156.90,61.83 157.92,62.21 158.94,62.56 159.96,60.29 160.98,62.33 162.00,63.07 163.02,63.00 164.04,60.21 165.06,62.27 166.08,62.46 167.10,62.62 168.12,60.37 169.14,63.08 170.16,62.79 171.18,62.90 172.20,60.95 173.22,62.71 174.24,63.21 175.27,63.02 176.29,61.05 177.31,63.43 178.33,63.56 179.35,63.56 180.37,60.55 181.39,63.36 182.41,63.37 183.43,63.38 184.45,61.44 185.47,62.86 186.49,63.80 187.51,63.43 188.53,61.94 189.55,62.93 190.57,63.50 191.59,63.64 192.61,61.37 193.63,63.76 194.65,63.98 195.67,63.82 196.69,62.25 197.71,63.57 198.73,64.15 199.75,63.97 200.77,62.40 201.79,63.52 202.81,63.79 203.83,63.48 204.85,61.28 205.87,62.70 206.89,63.00 207.91,63.74 208.93,60.71 209.95,63.45 210.97,63.12 211.99,64.08 213.01,60.76 214.03,64.46 215.05,63.88 216.07,64.75 217.09,62.12 218.11,64.21 219.13,64.03 220.15,63.70 221.17,61.01 222.19,63.32 223.21,63.33 224.23,63.22 225.25,60.38 226.27,64.25 227.29,64.52 228.31,64.69 229.33,61.92 230.35,64.98 231.37,65.53 232.39,65.92 233.41,62.99 234.43,66.18 235.45,65.97 236.47,66.36 237.49,63.21 238.51,65.24 239.53,65.98 240.55,65.75 241.57,61.91 242.59,65.80 243.61,64.93 244.63,65.12 245.65,61.16 246.67,64.80 247.69,65.90 248.71,66.25 249.73,64.16 250.75,66.15 251.77,65.45 252.79,65.73 253.81,62.23 254.83,65.25 255.85,65.66 256.87,66.07 257.89,62.91 258.91,64.40 259.93,63.84 260.95,64.03 261.97,60.42 262.99,64.08 264.01,63.91 265.03,65.13 266.05,61.54 267.07,66.06 268.09,66.35 269.11,67.24 270.13,63.70 271.15,66.76 272.17,66.85 273.19,67.04 274.21,64.91 275.23,67.74 276.25,66.50 277.27,66.72 278.29,63.69 279.31,65.82 280.33,65.84 281.35,65.29 282.37,62.35 283.39,65.49 284.41,65.53 285.43,65.75 286.45,62.35 287.47,65.79 288.49,66.38 289.51,66.04 290.53,62.72 291.55,65.36 292.57,65.36 293.59,66.81 294.61,64.29 295.63,67.79 296.65,68.22 297.67,68.39 298.69,64.92 299.71,67.61 300.73,66.83 301.75,67.34 302.77,64.64 303.79,54.11 304.81,56.62 305.83,60.25 306.85,60.30 307.87,62.36 308.89,60.12 309.91,63.72 310.93,62.95 311.95,64.80 312.97,62.63 313.99,64.53 315.01,64.40 316.03,64.69 317.05,62.14 318.07,64.99 319.09,65.92 320.11,65.89 321.13,63.59 322.15,66.97 323.17,66.74 324.19,67.10 325.21,64.99 326.23,67.66 327.25,67.28 328.27,68.82 329.29,65.29 330.31,68.84 331.33,66.94 332.35,68.45 333.37,65.19 334.39,70.10 335.41,68.42 336.43,70.01 337.45,66.74 338.47,70.61 339.49,69.77 340.51,70.57 341.53,68.32 342.55,71.07 343.57,70.30 344.59,71.60 345.61,68.40 346.63,70.48 347.65,71.65 348.67,67.43 349.69,70.41 350.71,66.57 351.73,69.99 352.75,70.26 353.77,71.81 354.79,68.72 355.81,72.41 356.83,71.99 357.85,72.52 358.87,69.24 359.89,70.68 360.91,69.80 361.93,70.32 362.95,67.00 363.97,69.87 364.99,70.79 366.01,71.72 367.03,68.01 368.05,70.25 369.07,71.20 370.09,68.69 371.11,69.70 372.13,67.50 373.15,70.25 374.17,69.02 375.19,69.38 376.21,66.42 377.23,69.50 378.25,69.42 379.27,70.28 380.29,68.27 381.31,70.45 382.33,70.71 383.35,67.31 384.37,70.37 385.39,69.36 386.41,70.49 387.43,66.61 388.45,68.73 389.47,68.45 390.49,68.22 391.51,65.23 392.53,68.32 393.55,64.91 394.57,67.75 395.59,64.91 396.61,68.71 397.63,69.76 398.65,70.11 399.67,66.70 400.69,70.04 401.71,70.46 402.73,70.25 403.76,67.62 404.78,69.74 405.80,69.55 406.82,69.61 407.84,67.27 408.86,66.29 409.88,55.31 410.90,59.43 411.92,62.15 412.94,64.63 413.96,63.41 414.98,66.70 416.00,67.86 417.02,68.96 418.04,65.87 419.06,68.86 420.08,68.25 421.10,69.29 422.12,66.79 423.14,68.81 424.16,65.59 425.18,68.25 426.20,68.15 427.22,69.88 428.24,65.59 429.26,69.75 430.28,70.67 431.30,67.86 432.32,70.30 433.34,68.99 434.36,70.61 435.38,67.21 436.40,69.78 437.42,69.37 438.44,69.99 439.46,67.22 440.48,71.40 441.50,70.66 442.52,71.17 443.54,67.43 444.56,70.95 445.58,69.18 446.60,69.99 447.62,67.79 448.64,70.64 449.66,69.95 450.68,70.43 451.70,67.63 452.72,70.80 453.74,70.40 454.76,71.03 455.78,67.50 456.80,69.19 457.82,67.79 458.84,69.19 459.86,65.96 460.88,68.62 461.90,66.16 462.92,68.77 463.94,69.97 464.96,69.75 465.98,67.76 467.00,71.04 468.02,74.21 469.04,72.06 470.06,71.33 471.08,67.39 472.10,68.83 473.12,64.49 474.14,68.43 475.16,67.38 476.18,68.31 477.20,64.37 478.22,67.80 479.24,67.83 480.26,69.03 481.28,65.47 482.30,68.10 483.32,68.21 484.34,68.31 485.36,64.51 486.38,68.94 487.40,68.96 488.42,70.22 489.44,65.60 490.46,68.02 491.48,68.11 492.50,65.15 493.52,68.16 494.54,67.35 495.56,67.97 496.58,64.93 497.60,67.45 498.62,67.32 499.64,68.42 500.66,65.61 501.68,69.27 502.70,67.82 503.72,68.92 504.74,66.07 505.76,68.58 506.78,68.01 507.80,68.70 508.82,65.47 509.84,68.29 510.86,67.54 511.88,69.00 512.90,66.64 513.92,69.93 514.94,69.26 515.96,71.75 516.98,68.03 518.00,69.36 519.02,65.43 520.04,68.09 521.06,68.08 522.08,69.28 523.10,65.52 524.12,69.70 525.14,69.17 526.16,69.75 527.18,65.73 528.20,68.70 529.22,67.55 530.24,68.85 531.26,63.86 532.28,67.29 533.30,69.48 534.32,69.46 535.34,65.88 536.36,68.89 537.38,67.53 538.40,67.16 539.42,64.66 540.44,67.77 541.46,68.04 542.48,69.15 543.50,66.30 544.52,69.65 545.54,69.55 546.56,70.08 547.58,65.97 548.60,69.90 549.62,69.23 550.64,69.51 551.66,66.11 552.68,68.94 553.70,68.86 554.72,69.07 555.74,66.83 556.76,69.49 557.78,69.09 558.80,69.76 559.82,67.17 560.84,69.16 561.86,68.06 562.88,69.25 563.90,65.36 564.92,68.04 565.94,68.53 566.96,68.73 567.98,65.63 569.00,68.65 570.02,68.83 571.04,69.23 572.06,66.38 573.08,68.63 574.10,69.29 575.12,68.48 576.14,64.54 577.16,66.95 578.18,67.42 579.20,67.20 580.22,64.35 581.24,67.39 582.26,67.41 583.28,67.62 584.30,64.90 585.32,66.91 586.34,67.64 587.36,67.37 588.38,64.89 589.40,67.05 590.42,66.95 591.44,67.37 592.46,63.67 593.48,66.83 594.50,66.61 595.52,67.06 596.54,64.22 597.56,67.30 598.58,67.84 599.60,68.37 600.62,64.81 601.64,68.24 602.66,67.46 603.68,68.56 604.70,64.81 605.72,68.02 606.74,67.13 607.76,67.13 608.78,63.08 609.80,68.40 610.82,68.65 611.84,70.80 612.86,67.58 613.88,69.96 614.90,69.80 615.92,69.57 616.94,65.37 617.96,68.39 618.98,66.78 620.00,67.08 621.02,62.79 622.04,66.33 623.06,65.76 624.08,66.49 625.10,62.77 626.12,66.57 627.14,66.89 628.16,67.56 629.18,63.42 630.20,66.58 631.22,66.53 632.24,66.79 633.27,64.05 634.29,66.80 635.31,67.63 636.33,67.93 637.35,65.02 638.37,68.00 639.39,68.20 640.41,68.74 641.43,65.49 642.45,68.19 643.47,68.24 644.49,69.76 645.51,65.70 646.53,68.87 647.55,68.90 648.57,69.57 649.59,65.41 650.61,68.02 651.63,66.99 652.65,67.27 653.67,64.90 654.69,68.03 655.71,68.29 656.73,68.75 657.75,66.09 658.77,68.75 659.79,68.90 660.81,69.64 661.83,66.90 662.85,69.16 663.87,69.08 664.89,58.62 665.91,63.30 666.93,65.12 667.95,63.48 668.97,65.03 669.99,66.38 671.01,63.33 672.03,63.76 673.05,67.76 674.07,67.00 675.09,67.48 676.11,65.08 677.13,67.83 678.15,67.12 679.17,67.84 680.19,65.65 681.21,68.54 682.23,67.74 683.25,69.11 684.27,67.43 685.29,69.25 686.31,68.87 687.33,69.45 688.35,65.06 689.37,67.09 690.39,66.86 691.41,63.71 692.43,66.11 693.45,65.95 694.47,66.52 695.49,64.31 696.51,66.45 697.53,66.17 698.55,66.74 699.57,64.18 700.59,67.67 701.61,66.37 702.63,66.08 703.65,63.78 704.67,66.12 705.69,65.34 706.71,65.66 707.73,63.57 708.75,66.46 709.77,65.35 710.79,65.89 711.81,63.74 712.83,66.26 713.85,65.92 714.87,66.25 715.89,63.88 716.91,65.38 717.93,64.67 718.95,65.47 719.97,63.38 720.99,70.35 722.01,68.10 723.03,68.59 724.05,66.10 725.07,67.18 726.09,65.94 727.11,66.23 728.13,64.83 729.15,65.75 730.17,65.81 731.19,66.08 732.21,64.57 733.23,66.86 734.25,65.97 735.27,66.30 736.29,64.28 737.31,65.71 738.33,66.07 739.35,62.96 740.37,64.98 741.39,64.21 742.41,63.56 743.43,61.58 744.45,63.47 745.47,64.01 746.49,63.86 747.51,61.93 748.53,65.00 749.55,64.82 750.57,65.92 751.59,63.62 752.61,65.78 753.63,65.65 754.65,65.27 755.67,63.63 756.69,66.35 757.71,66.06 758.73,66.80 759.75,63.64 760.77,66.14 761.79,67.33 762.81,67.30 763.83,63.98 764.85,67.55 765.87,67.32 766.89,67.51 767.91,64.74 768.93,66.89 769.95,66.90 770.97,66.91 771.99,63.30 773.01,66.45 774.03,65.08 775.05,66.29 776.07,61.25 777.09,63.72 778.11,60.76 779.13,63.06 780.15,64.06 781.17,60.83 782.19,63.92 783.21,63.25 784.23,64.56 785.25,61.79 786.27,66.10 787.29,65.95 788.31,67.34 789.33,64.31 790.35,64.69 791.37,65.18 792.39,62.56 793.41,65.22 794.43,65.00 795.45,65.44 796.47,62.50 797.49,65.56 798.51,65.28 799.53,65.47 800.55,63.17 801.57,64.53 802.59,64.79 803.61,65.05 804.63,63.44 805.65,65.07 806.67,65.80 807.69,65.85 808.71,63.76 809.73,65.69 810.75,65.55 811.77,66.27 812.79,63.93 813.81,66.06 814.83,65.62 815.85,65.29 816.87,62.86 817.89,65.89 818.91,66.70 819.93,66.70 820.95,63.77 821.97,65.79 822.99,66.07 824.01,65.87 825.03,63.78 826.05,65.91 827.07,65.85 828.09,66.27 829.11,63.03 830.13,65.86 831.15,65.39 832.17,66.40 833.19,63.06 834.21,67.94 835.23,68.51 836.25,68.50 837.27,65.84 838.29,67.90 839.31,68.35 840.33,68.62 841.35,63.95 842.37,66.64 843.39,66.02 844.41,66.55 845.43,62.63 846.45,67.13 847.47,66.71 848.49,66.91 849.51,64.13 850.53,66.64 851.55,66.58 852.57,66.32 853.59,64.01 854.61,66.47 855.63,66.67 856.65,67.68 857.67,64.83 858.69,66.12 859.71,65.59 860.73,66.57 861.76,64.36 862.78,66.47 863.80,66.19 864.82,66.87 865.84,63.83 866.86,66.24 867.88,65.45 868.90,65.81 869.92,64.45 870.94,66.35 871.96,66.80 872.98,68.00 874.00,65.67 875.02,68.07 876.04,68.47 877.06,69.48 878.08,69.36 879.10,51.61 880.12,53.85 881.14,54.16 882.16,54.41 883.18,53.42 884.20,54.62 885.22,54.29 886.24,54.16 887.26,53.84 888.28,54.38 889.30,54.20 890.32,54.29 891.34,53.95 892.36,54.66 893.38,54.96 894.40,54.95 895.42,54.73 896.44,55.21 897.46,54.92 898.48,55.08 899.50,54.79 900.52,55.29 901.54,55.46 902.56,55.90 903.58,55.21 904.60,55.75 905.62,55.53 906.64,55.34 907.66,54.72 908.68,55.43 909.70,55.50 910.72,55.42 911.74,54.72 912.76,55.59 913.78,55.39 914.80,55.52 915.82,55.15 916.84,55.61 917.86,55.21 918.88,55.39 919.90,55.03 920.92,55.82 921.94,55.41 922.96,55.69 923.98,54.79 925.00,55.40 926.02,55.33 927.04,55.55 928.06,54.80 929.08,55.68 930.10,55.46 931.12,55.22 932.14,54.84 933.16,55.31 934.18,55.56 935.20,55.71 936.22,54.96 937.24,55.67 938.26,55.34 939.28,55.37 940.30,54.90 941.32,55.14 942.34,55.56 943.36,55.48 944.38,55.02 945.40,55.75 946.42,55.85 947.44,56.03 948.46,54.64 949.48,56.40 950.50,55.90 951.52,55.97 952.54,55.20 953.56,56.10 954.58,56.12 955.60,56.37 956.62,55.27 957.64,57.05 958.66,56.33 959.68,56.36 960.70,55.01 961.72,56.38 962.74,56.37 963.76,56.69 964.78,55.98 965.80,56.57 966.82,56.27 967.84,56.80 968.86,56.70 969.88,56.85 970.90,56.92 971.92,57.46 972.94,57.24 973.96,58.14 974.98,65.33 976.00,65.70" fill="none" stroke="#0d6efd" stroke-width="2"/>
</svg>
