<svg xmlns="http://www.w3.org/2000/svg" width="1000" height="320" viewBox="0 0 1000 320">
  <rect width="100%" height="100%" fill="#ffffff"/>
  <text x="60" y="24" font-family="Arial" font-size="18" font-weight="bold">encoded_720p.mp4 - native VMAF Over Time</text>
  <text x="60" y="308" font-family="Arial" font-size="12" fill="#555">Mean=94.600 Min=86.809 Max=96.837</text>
  <line x1="60" y1="40" x2="60" y2="276" stroke="#333" stroke-width="1"/>
  <line x1="60" y1="276" x2="976" y2="276" stroke="#333" stroke-width="1"/>
  <line x1="60" y1="63.6" x2="976" y2="63.6" stroke="#ddd" stroke-width="1"/>
  <line x1="60" y1="87.2" x2="976" y2="87.2" stroke="#eee" stroke-width="1"/>
  <line x1="60" y1="158.0" x2="976" y2="158.0" stroke="#eee" stroke-width="1"/>
  <text x="12" y="44" font-family="Arial" font-size="12">100</text>
  <text x="20" y="67.6" font-family="Arial" font-size="12">90</text>
  <text x="20" y="91.2" font-family="Arial" font-size="12">80</text>
  <text x="20" y="162.0" font-family="Arial" font-size="12">50</text>
  <text x="60" y="300" font-family="Arial" font-size="12">00:00.000</text>
  <text x="924" y="300" font-family="Arial" font-size="12">00:14.982</text>
  <polyline points="60.00,70.14 61.02,70.48 62.04,70.98 63.06,70.42 64.08,70.24 65.10,70.41 66.12,70.24 67.14,70.36 68.16,69.71 69.18,71.13 70.20,70.34 71.22,70.64 72.24,69.56 73.26,70.92 74.28,70.32 75.30,69.91 76.32,69.13 77.34,70.51 78.36,70.47 79.38,70.49 80.40,68.95 81.42,66.56 82.44,65.51 83.46,64.80 84.48,63.54 85.50,57.94 86.52,57.13 87.54,56.13 88.56,54.62 89.58,53.64 90.60,52.86 91.62,51.93 92.64,50.45 93.66,51.74 94.68,51.57 95.70,50.84 96.72,49.59 97.74,50.55 98.76,50.68 99.78,50.50 100.80,48.74 101.82,49.93 102.84,50.20 103.86,50.39 104.88,48.62 105.90,50.62 106.92,50.68 107.94,50.93 108.96,49.18 109.98,50.80 111.00,50.70 112.02,51.13 113.04,49.91 114.06,51.43 115.08,51.16 116.10,51.40 117.12,50.57 118.14,51.25 119.16,51.47 120.18,51.47 121.20,51.30 122.22,51.72 123.24,51.87 124.26,52.10 125.28,51.48 126.30,52.18 127.32,52.50 128.34,52.49 129.36,52.14 130.38,52.77 131.40,52.63 132.42,53.07 133.44,52.91 134.46,53.72 135.48,54.14 136.50,47.68 137.52,50.97 138.54,51.50 139.56,52.10 140.58,49.81 141.60,52.01 142.62,51.67 143.64,51.81 144.66,49.69 145.68,52.02 146.70,51.51 147.72,51.33 148.74,49.60 149.76,51.89 150.78,52.29 151.80,52.17 152.82,49.78 153.84,51.38 154.86,51.50 155.88,51.84 156.90,49.33 157.92,51.66 158.94,51.99 159.96,52.61 160.98,50.43 162.00,52.70 163.02,52.44 164.04,52.09 165.06,50.38 166.08,51.79 167.10,52.00 168.12,51.76 169.14,50.48 170.16,51.85 171.18,52.04 172.20,52.01 173.22,50.91 174.24,52.42 175.27,52.50 176.29,52.42 177.31,50.97 178.33,52.33 179.35,52.15 180.37,52.11 181.39,50.73 182.41,51.96 183.43,51.81 184.45,51.63 185.47,50.44 186.49,51.93 187.51,52.17 188.53,52.15 189.55,50.91 190.57,52.35 191.59,52.33 192.61,52.21 193.63,50.41 194.65,52.00 195.67,52.27 196.69,52.09 197.71,50.78 198.73,52.26 199.75,52.32 200.77,52.37 201.79,50.92 202.81,52.69 203.83,52.31 204.85,52.21 205.87,50.94 206.89,52.22 207.91,52.06 208.93,51.52 209.95,49.96 210.97,52.33 211.99,52.03 213.01,52.14 214.03,50.06 215.05,52.32 216.07,52.19 217.09,52.59 218.11,49.97 219.13,51.99 220.15,51.44 221.17,52.16 222.19,49.43 223.21,51.99 224.23,51.89 225.25,52.18 226.27,49.34 227.29,52.02 228.31,51.97 229.33,52.43 230.35,49.63 231.37,52.09 232.39,52.60 233.41,51.89 234.43,50.14 235.45,52.69 236.47,52.80 237.49,52.72 238.51,49.89 239.53,51.87 240.55,51.76 241.57,52.24 242.59,49.27 243.61,52.38 244.63,52.23 245.65,52.06 246.67,49.68 247.69,52.72 248.71,52.53 249.73,52.99 250.75,50.55 251.77,52.46 252.79,52.42 253.81,52.49 254.83,50.47 255.85,52.77 256.87,52.64 257.89,53.33 258.91,50.82 259.93,53.05 260.95,53.03 261.97,52.51 262.99,49.01 264.01,52.22 265.03,52.23 266.05,52.58 267.07,50.52 268.09,53.01 269.11,53.07 270.13,52.75 271.15,50.88 272.17,53.54 273.19,53.14 274.21,53.56 275.23,50.88 276.25,53.39 277.27,52.92 278.29,52.47 279.31,50.16 280.33,52.70 281.35,52.74 282.37,52.72 283.39,50.13 284.41,52.63 285.43,52.08 286.45,52.08 287.47,49.95 288.49,52.85 289.51,51.85 290.53,52.19 291.55,49.78 292.57,52.18 293.59,52.38 294.61,52.84 295.63,50.48 296.65,53.23 297.67,53.09 298.69,52.64 299.71,50.42 300.73,53.22 301.75,53.21 302.77,53.57 303.79,49.84 304.81,52.48 305.83,52.82 306.85,53.14 307.87,50.60 308.89,53.33 309.91,53.08 310.93,53.32 311.95,50.70 312.97,53.17 313.99,52.90 315.01,53.07 316.03,50.37 317.05,53.49 318.07,52.59 319.09,52.66 320.11,50.13 321.13,53.28 322.15,52.34 323.17,52.95 324.19,50.31 325.21,53.29 326.23,52.48 327.25,53.14 328.27,50.48 329.29,53.35 330.31,52.99 331.33,53.15 332.35,51.08 333.37,54.08 334.39,52.73 335.41,53.25 336.43,51.16 337.45,54.49 338.47,53.95 339.49,54.27 340.51,51.58 341.53,54.67 342.55,54.21 343.57,54.38 344.59,51.85 345.61,54.99 346.63,53.46 347.65,53.52 348.67,50.61 349.69,54.51 350.71,53.73 351.73,54.25 352.75,51.14 353.77,53.36 354.79,52.95 355.81,54.22 356.83,52.20 357.85,54.17 358.87,53.21 359.89,53.06 360.91,51.43 361.93,52.98 362.95,54.11 363.97,53.62 364.99,50.85 366.01,54.79 367.03,54.18 368.05,54.66 369.07,51.22 370.09,54.61 371.11,54.72 372.13,53.86 373.15,51.09 374.17,53.93 375.19,53.02 376.21,53.21 377.23,51.38 378.25,53.65 379.27,54.01 380.29,54.21 381.31,51.87 382.33,55.01 383.35,53.53 384.37,53.61 385.39,51.36 386.41,54.09 387.43,53.13 388.45,52.92 389.47,50.58 390.49,53.38 391.51,47.62 392.53,51.25 393.55,52.13 394.57,52.69 395.59,50.52 396.61,53.16 397.63,53.31 398.65,53.43 399.67,51.57 400.69,54.11 401.71,54.33 402.73,53.79 403.76,51.51 404.78,53.99 405.80,54.10 406.82,54.47 407.84,51.20 408.86,54.18 409.88,52.84 410.90,52.87 411.92,51.30 412.94,53.77 413.96,54.60 414.98,54.47 416.00,51.98 417.02,54.01 418.04,54.31 419.06,54.38 420.08,52.19 421.10,55.23 422.12,54.29 423.14,54.41 424.16,51.72 425.18,54.60 426.20,54.76 427.22,54.58 428.24,51.14 429.26,54.85 430.28,53.79 431.30,54.67 432.32,50.77 433.34,55.49 434.36,53.98 435.38,54.77 436.40,51.42 437.42,54.16 438.44,54.85 439.46,55.46 440.48,51.77 441.50,55.16 442.52,55.15 443.54,54.57 444.56,51.37 445.58,53.90 446.60,53.52 447.62,53.74 448.64,51.54 449.66,54.12 450.68,54.00 451.70,54.27 452.72,52.28 453.74,54.33 454.76,53.73 455.78,54.04 456.80,50.83 457.82,53.46 458.84,53.43 459.86,53.17 460.88,50.56 461.90,53.03 462.92,53.11 463.94,53.44 464.96,50.98 465.98,54.07 467.00,54.10 468.02,53.95 469.04,51.59 470.06,52.95 471.08,53.04 472.10,52.88 473.12,50.96 474.14,53.56 475.16,53.15 476.18,53.47 477.20,50.54 478.22,53.48 479.24,53.21 480.26,53.04 481.28,50.48 482.30,53.08 483.32,53.81 484.34,53.23 485.36,50.32 486.38,53.29 487.40,53.32 488.42,53.10 489.44,51.00 490.46,53.85 491.48,52.89 492.50,53.17 493.52,50.81 494.54,53.02 495.56,53.16 496.58,53.49 497.60,51.68 498.62,53.28 499.64,53.48 500.66,53.69 501.68,51.71 502.70,53.55 503.72,53.32 504.74,53.70 505.76,51.72 506.78,53.41 507.80,53.12 508.82,53.60 509.84,51.14 510.86,53.20 511.88,53.50 512.90,54.14 513.92,51.47 514.94,53.26 515.96,53.70 516.98,54.31 518.00,51.78 519.02,53.39 520.04,53.69 521.06,53.90 522.08,51.22 523.10,53.73 524.12,53.51 525.14,54.05 526.16,51.17 527.18,54.34 528.20,53.35 529.22,53.31 530.24,50.18 531.26,53.44 532.28,53.29 533.30,53.93 534.32,51.16 535.34,54.38 536.36,53.41 537.38,52.71 538.40,50.47 539.42,52.45 540.44,53.06 541.46,53.57 542.48,51.06 543.50,53.91 544.52,53.62 545.54,54.29 546.56,51.03 547.58,53.70 548.60,53.55 549.62,53.27 550.64,51.04 551.66,53.24 552.68,52.79 553.70,53.47 554.72,51.03 555.74,52.93 556.76,53.16 557.78,53.60 558.80,51.45 559.82,53.61 560.84,52.73 561.86,53.00 562.88,51.20 563.90,53.20 564.92,53.28 565.94,54.10 566.96,51.61 567.98,53.82 569.00,53.89 570.02,53.76 571.04,51.95 572.06,53.23 573.08,53.20 574.10,53.49 575.12,51.39 576.14,53.00 577.16,53.04 578.18,52.64 579.20,50.91 580.22,52.91 581.24,53.17 582.26,53.02 583.28,51.16 584.30,52.33 585.32,52.54 586.34,52.68 587.36,51.60 588.38,53.17 589.40,52.43 590.42,53.06 591.44,50.91 592.46,52.78 593.48,52.09 594.50,52.12 595.52,50.66 596.54,52.54 597.56,52.58 598.58,52.44 599.60,50.70 600.62,53.00 601.64,53.06 602.66,52.84 603.68,50.56 604.70,52.87 605.72,51.68 606.74,52.36 607.76,49.84 608.78,52.93 609.80,52.81 610.82,53.16 611.84,51.06 612.86,53.98 613.88,53.68 614.90,53.94 615.92,50.99 616.94,53.38 617.96,52.89 618.98,53.47 620.00,50.38 621.02,52.18 622.04,52.79 623.06,52.99 624.08,50.71 625.10,53.44 626.12,52.44 627.14,52.72 628.16,50.52 629.18,53.23 630.20,52.84 631.22,53.47 632.24,50.81 633.27,53.72 634.29,53.77 635.31,53.50 636.33,50.17 637.35,53.16 638.37,52.48 639.39,53.50 640.41,51.02 641.43,53.42 642.45,53.39 643.47,53.32 644.49,50.99 645.51,54.68 646.53,48.19 647.55,52.79 648.57,52.85 649.59,53.36 650.61,50.76 651.63,53.75 652.65,53.09 653.67,53.89 654.69,51.17 655.71,54.30 656.73,53.23 657.75,54.46 658.77,51.42 659.79,54.87 660.81,53.79 661.83,54.71 662.85,51.83 663.87,54.64 664.89,54.02 665.91,54.29 666.93,51.38 667.95,54.43 668.97,53.27 669.99,54.50 671.01,50.42 672.03,54.38 673.05,53.70 674.07,54.17 675.09,51.36 676.11,54.54 677.13,53.57 678.15,53.44 679.17,50.92 680.19,54.07 681.21,53.67 682.23,53.92 683.25,51.22 684.27,54.98 685.29,54.21 686.31,54.10 687.33,51.20 688.35,54.13 689.37,53.51 690.39,53.70 691.41,49.60 692.43,52.90 693.45,52.75 694.47,53.18 695.49,50.43 696.51,53.50 697.53,52.92 698.55,53.18 699.57,50.72 700.59,53.32 701.61,53.15 702.63,53.35 703.65,51.21 704.67,53.11 705.69,52.77 706.71,52.96 707.73,50.86 708.75,53.08 709.77,52.44 710.79,52.98 711.81,51.08 712.83,53.03 713.85,53.04 714.87,53.52 715.89,51.34 716.91,52.89 717.93,52.69 718.95,53.33 719.97,50.92 720.99,52.88 722.01,52.71 723.03,52.75 724.05,50.86 725.07,52.34 726.09,52.39 727.11,52.78 728.13,51.70 729.15,52.89 730.17,53.21 731.19,52.74 732.21,51.80 733.23,53.34 734.25,52.47 735.27,52.93 736.29,51.17 737.31,53.01 738.33,52.52 739.35,52.20 740.37,50.97 741.39,52.82 742.41,52.01 743.43,52.42 744.45,50.56 745.47,52.55 746.49,52.52 747.51,52.85 748.53,51.11 749.55,53.43 750.57,52.65 751.59,52.84 752.61,51.67 753.63,53.19 754.65,53.06 755.67,53.26 756.69,51.61 757.71,53.63 758.73,53.60 759.75,53.33 760.77,50.60 761.79,54.01 762.81,53.76 763.83,53.53 764.85,50.72 765.87,53.32 766.89,53.45 767.91,53.41 768.93,51.09 769.95,53.37 770.97,52.60 771.99,52.61 773.01,50.77 774.03,53.70 775.05,52.70 776.07,52.99 777.09,50.48 778.11,52.76 779.13,52.31 780.15,52.25 781.17,49.90 782.19,52.74 783.21,51.97 784.23,52.93 785.25,50.68 786.27,53.45 787.29,53.29 788.31,52.89 789.33,50.94 790.35,52.79 791.37,52.32 792.39,51.83 793.41,50.05 794.43,52.25 795.45,52.61 796.47,52.58 797.49,50.66 798.51,52.39 799.53,52.30 800.55,52.54 801.57,51.00 802.59,52.43 803.61,52.98 804.63,52.77 805.65,51.45 806.67,53.41 807.69,52.91 808.71,53.19 809.73,51.83 810.75,53.53 811.77,53.27 812.79,53.75 813.81,50.67 814.83,53.60 815.85,53.65 816.87,53.64 817.89,51.43 818.91,53.70 819.93,53.42 820.95,53.07 821.97,50.74 822.99,53.28 824.01,53.03 825.03,53.90 826.05,50.96 827.07,53.91 828.09,53.08 829.11,53.59 830.13,50.65 831.15,53.81 832.17,53.15 833.19,53.66 834.21,51.15 835.23,55.02 836.25,54.37 837.27,53.97 838.29,51.19 839.31,54.49 840.33,53.59 841.35,53.35 842.37,50.47 843.39,53.51 844.41,53.14 845.43,52.95 846.45,51.05 847.47,53.76 848.49,53.63 849.51,54.07 850.53,51.74 851.55,53.79 852.57,52.93 853.59,53.15 854.61,51.37 855.63,53.77 856.65,53.64 857.67,53.89 858.69,51.63 859.71,53.43 860.73,52.63 861.76,52.99 862.78,51.71 863.80,53.41 864.82,52.96 865.84,53.75 866.86,51.86 867.88,53.40 868.90,53.57 869.92,54.03 870.94,52.70 871.96,54.20 872.98,53.76 874.00,54.61 875.02,53.61 876.04,55.15 877.06,55.47 878.08,55.95 879.10,47.47 880.12,48.39 881.14,48.87 882.16,49.15 883.18,49.11 884.20,49.68 885.22,49.57 886.24,49.83 887.26,49.79 888.28,49.62 889.30,49.64 890.32,49.54 891.34,49.51 892.36,49.92 893.38,49.81 894.40,49.77 895.42,49.63 896.44,49.80 897.46,49.95 898.48,50.08 899.50,49.80 900.52,49.88 901.54,49.98 902.56,49.98 903.58,49.58 904.60,49.76 905.62,49.85 906.64,49.89 907.66,49.66 908.68,49.75 909.70,49.82 910.72,49.79 911.74,49.58 912.76,49.66 913.78,49.60 914.80,49.60 915.82,49.33 916.84,49.74 917.86,49.65 918.88,49.83 919.90,49.45 920.92,49.54 921.94,49.72 922.96,49.67 923.98,49.41 925.00,49.49 926.02,49.53 927.04,49.36 928.06,49.31 929.08,49.46 930.10,49.47 931.12,49.40 932.14,49.30 933.16,49.32 934.18,49.42 935.20,49.47 936.22,49.43 937.24,49.65 938.26,49.58 939.28,49.44 940.30,49.56 941.32,49.75 942.34,49.84 943.36,49.87 944.38,49.67 945.40,49.88 946.42,49.97 947.44,50.09 948.46,49.71 949.48,50.43 950.50,50.73 951.52,50.46 952.54,50.35 953.56,50.48 954.58,50.64 955.60,50.61 956.62,50.53 957.64,50.96 958.66,51.18 959.68,50.85 960.70,50.23 961.72,50.72 962.74,50.80 963.76,51.01 964.78,50.77 965.80,50.88 966.82,50.82 967.84,50.94 968.86,51.06 969.88,50.99 970.90,51.03 971.92,51.39 972.94,51.95 973.96,52.36 974.98,52.94 976.00,54.00" fill="none" stroke="#0d6efd" stroke-width="2"/>
</svg>
