<svg xmlns="http://www.w3.org/2000/svg" width="1000" height="320" viewBox="0 0 1000 320">
  <rect width="100%" height="100%" fill="#ffffff"/>
  <text x="60" y="24" font-family="Arial" font-size="18" font-weight="bold">encoded_2160p.mp4 - upscaled_3840x2160 VMAF Over Time</text>
  <text x="60" y="308" font-family="Arial" font-size="12" fill="#555">Mean=90.160 Min=80.694 Max=94.980</text>
  <line x1="60" y1="40" x2="60" y2="276" stroke="#333" stroke-width="1"/>
  <line x1="60" y1="276" x2="976" y2="276" stroke="#333" stroke-width="1"/>
  <line x1="60" y1="63.6" x2="976" y2="63.6" stroke="#ddd" stroke-width="1"/>
  <line x1="60" y1="87.2" x2="976" y2="87.2" stroke="#eee" stroke-width="1"/>
  <line x1="60" y1="158.0" x2="976" y2="158.0" stroke="#eee" stroke-width="1"/>
  <text x="12" y="44" font-family="Arial" font-size="12">100</text>
  <text x="20" y="67.6" font-family="Arial" font-size="12">90</text>
  <text x="20" y="91.2" font-family="Arial" font-size="12">80</text>
  <text x="20" y="162.0" font-family="Arial" font-size="12">50</text>
  <text x="60" y="300" font-family="Arial" font-size="12">00:00.000</text>
  <text x="924" y="300" font-family="Arial" font-size="12">00:14.982</text>
  <polyline points="60.00,69.11 61.02,75.75 62.04,77.51 63.06,80.99 64.08,82.73 65.10,84.96 66.12,85.56 67.14,85.05 68.16,79.11 69.18,84.81 70.20,79.96 71.22,79.40 72.24,74.05 73.26,77.94 74.28,76.39 75.30,75.25 76.32,67.91 77.34,71.33 78.36,70.17 79.38,69.51 80.40,64.82 81.42,68.15 82.44,67.39 83.46,67.78 84.48,63.21 85.50,68.42 86.52,66.62 87.54,66.69 88.56,62.15 89.58,64.85 90.60,64.73 91.62,65.13 92.64,61.09 93.66,64.93 94.68,64.06 95.70,64.56 96.72,60.86 97.74,63.56 98.76,63.38 99.78,63.70 100.80,60.14 101.82,63.12 102.84,62.52 103.86,63.70 104.88,59.54 105.90,62.15 106.92,62.56 107.94,63.34 108.96,58.88 109.98,61.85 111.00,61.34 112.02,61.78 113.04,58.76 114.06,61.44 115.08,60.98 116.10,62.22 117.12,58.69 118.14,61.37 119.16,61.37 120.18,60.88 121.20,58.27 122.22,61.11 123.24,60.80 124.26,61.99 125.28,58.50 126.30,61.08 127.32,60.77 128.34,61.79 129.36,58.85 130.38,61.18 131.40,60.46 132.42,61.22 133.44,58.61 134.46,60.80 135.48,60.32 136.50,54.46 137.52,57.65 138.54,63.33 139.56,61.04 140.58,63.49 141.60,57.68 142.62,62.76 143.64,61.56 144.66,64.13 145.68,58.77 146.70,63.87 147.72,62.28 148.74,64.72 149.76,58.94 150.78,64.43 151.80,62.80 152.82,64.67 153.84,59.26 154.86,64.55 155.88,62.29 156.90,64.06 157.92,59.12 158.94,63.75 159.96,62.41 160.98,63.55 162.00,58.96 163.02,64.02 164.04,61.96 165.06,63.75 166.08,58.71 167.10,64.02 168.12,62.97 169.14,64.07 170.16,58.85 171.18,63.26 172.20,62.38 173.22,63.47 174.24,59.03 175.27,63.75 176.29,61.99 177.31,63.63 178.33,59.20 179.35,63.42 180.37,63.04 181.39,59.18 182.41,58.33 183.43,63.73 184.45,62.62 185.47,63.16 186.49,58.55 187.51,62.04 188.53,62.24 189.55,63.26 190.57,58.87 191.59,63.54 192.61,63.07 193.63,65.12 194.65,58.91 195.67,64.31 196.69,63.14 197.71,63.77 198.73,59.43 199.75,62.55 200.77,61.80 201.79,63.05 202.81,57.58 203.83,62.56 204.85,60.99 205.87,63.05 206.89,57.51 207.91,63.44 208.93,61.08 209.95,64.00 210.97,56.92 211.99,64.16 213.01,61.11 214.03,63.73 215.05,57.38 216.07,64.07 217.09,61.52 218.11,63.37 219.13,57.48 220.15,63.55 221.17,60.83 222.19,63.66 223.21,57.42 224.23,63.79 225.25,60.87 226.27,63.83 227.29,58.15 228.31,64.11 229.33,62.13 230.35,63.83 231.37,58.50 232.39,64.84 233.41,62.84 234.43,65.00 235.45,58.91 236.47,64.91 237.49,62.42 238.51,64.81 239.53,59.18 240.55,64.90 241.57,62.75 242.59,58.82 243.61,57.48 244.63,65.02 245.65,60.80 246.67,64.90 247.69,58.41 248.71,64.83 249.73,62.76 250.75,66.04 251.77,59.03 252.79,65.69 253.81,62.86 254.83,65.35 255.85,58.74 256.87,65.60 257.89,61.92 258.91,64.65 259.93,58.74 260.95,64.37 261.97,60.80 262.99,65.43 264.01,57.69 265.03,64.38 266.05,62.21 267.07,65.74 268.09,59.58 269.11,65.84 270.13,63.15 271.15,66.63 272.17,59.85 273.19,66.20 274.21,63.24 275.23,66.45 276.25,59.72 277.27,65.99 278.29,62.65 279.31,65.04 280.33,59.36 281.35,65.57 282.37,62.24 283.39,65.08 284.41,58.82 285.43,64.94 286.45,62.32 287.47,65.11 288.49,58.91 289.51,65.03 290.53,62.72 291.55,65.85 292.57,58.62 293.59,65.73 294.61,63.31 295.63,66.09 296.65,60.47 297.67,67.49 298.69,64.15 299.71,66.94 300.73,60.00 301.75,66.43 302.77,65.20 303.79,68.76 304.81,60.69 305.83,67.53 306.85,64.00 307.87,65.97 308.89,59.79 309.91,66.12 310.93,63.55 311.95,65.46 312.97,60.29 313.99,65.58 315.01,63.61 316.03,66.39 317.05,59.55 318.07,66.14 319.09,62.98 320.11,66.52 321.13,59.16 322.15,66.08 323.17,63.38 324.19,66.44 325.21,59.62 326.23,65.96 327.25,63.57 328.27,67.17 329.29,60.23 330.31,67.38 331.33,63.87 332.35,66.41 333.37,60.89 334.39,67.24 335.41,64.01 336.43,67.23 337.45,61.23 338.47,67.96 339.49,64.89 340.51,68.29 341.53,62.12 342.55,68.13 343.57,65.13 344.59,68.47 345.61,62.43 346.63,68.27 347.65,65.97 348.67,62.11 349.69,68.83 350.71,65.17 351.73,70.12 352.75,63.03 353.77,69.57 354.79,67.39 355.81,69.50 356.83,63.02 357.85,69.92 358.87,66.02 359.89,69.79 360.91,62.39 361.93,68.73 362.95,66.12 363.97,69.26 364.99,62.34 366.01,61.64 367.03,69.29 368.05,65.10 369.07,68.12 370.09,61.54 371.11,68.75 372.13,65.35 373.15,68.43 374.17,60.37 375.19,66.75 376.21,65.09 377.23,67.77 378.25,61.60 379.27,69.15 380.29,68.02 381.31,61.99 382.33,69.80 383.35,65.06 384.37,67.68 385.39,62.38 386.41,68.54 387.43,64.58 388.45,68.02 389.47,62.65 390.49,64.69 391.51,55.02 392.53,63.11 393.55,58.33 394.57,64.98 395.59,62.58 396.61,65.93 397.63,60.18 398.65,67.24 399.67,64.10 400.69,67.21 401.71,60.66 402.73,67.26 403.76,64.32 404.78,66.81 405.80,60.98 406.82,66.92 407.84,64.09 408.86,69.34 409.88,61.26 410.90,67.49 411.92,64.93 412.94,68.88 413.96,61.82 414.98,68.69 416.00,65.37 417.02,68.57 418.04,61.13 419.06,68.30 420.08,64.85 421.10,68.20 422.12,60.78 423.14,67.58 424.16,64.38 425.18,68.24 426.20,61.30 427.22,60.31 428.24,68.35 429.26,65.32 430.28,67.61 431.30,60.89 432.32,67.59 433.34,63.79 434.36,67.57 435.38,60.14 436.40,67.95 437.42,64.58 438.44,67.86 439.46,61.02 440.48,68.68 441.50,65.28 442.52,69.44 443.54,61.01 444.56,68.52 445.58,65.03 446.60,67.62 447.62,61.02 448.64,68.68 449.66,66.48 450.68,69.21 451.70,62.60 452.72,68.76 453.74,66.12 454.76,70.44 455.78,62.11 456.80,69.37 457.82,65.15 458.84,68.42 459.86,60.90 460.88,68.82 461.90,65.45 462.92,68.46 463.94,62.05 464.96,69.91 465.98,68.62 467.00,63.17 468.02,70.60 469.04,66.84 470.06,68.96 471.08,61.44 472.10,67.86 473.12,64.66 474.14,67.34 475.16,60.31 476.18,67.08 477.20,64.40 478.22,67.17 479.24,60.62 480.26,67.24 481.28,64.55 482.30,67.55 483.32,60.26 484.34,67.20 485.36,64.61 486.38,66.94 487.40,61.29 488.42,60.02 489.44,67.11 490.46,65.17 491.48,67.80 492.50,60.13 493.52,66.57 494.54,64.22 495.56,66.07 496.58,59.93 497.60,66.55 498.62,64.09 499.64,66.22 500.66,60.58 501.68,66.22 502.70,64.33 503.72,66.85 504.74,60.85 505.76,67.26 506.78,64.27 507.80,66.78 508.82,60.07 509.84,66.40 510.86,64.70 511.88,67.14 512.90,61.27 513.92,68.00 514.94,65.28 515.96,69.59 516.98,61.46 518.00,68.07 519.02,64.17 520.04,66.83 521.06,60.59 522.08,67.01 523.10,63.91 524.12,67.21 525.14,60.58 526.16,67.70 527.18,64.61 528.20,68.16 529.22,59.87 530.24,68.31 531.26,63.62 532.28,67.62 533.30,60.69 534.32,68.56 535.34,65.11 536.36,68.27 537.38,60.16 538.40,65.92 539.42,63.85 540.44,67.61 541.46,60.77 542.48,67.64 543.50,64.44 544.52,67.50 545.54,60.87 546.56,67.96 547.58,66.07 548.60,61.17 549.62,60.05 550.64,67.35 551.66,64.13 552.68,67.85 553.70,60.64 554.72,67.00 555.74,64.65 556.76,67.53 557.78,60.96 558.80,67.06 559.82,64.10 560.84,67.12 561.86,60.41 562.88,66.89 563.90,64.15 564.92,66.80 565.94,60.50 566.96,66.93 567.98,64.70 569.00,66.82 570.02,61.60 571.04,67.58 572.06,64.46 573.08,66.65 574.10,60.93 575.12,66.64 576.14,63.94 577.16,65.94 578.18,59.80 579.20,65.61 580.22,64.10 581.24,65.63 582.26,59.77 583.28,65.85 584.30,64.00 585.32,65.16 586.34,60.21 587.36,64.81 588.38,63.27 589.40,65.58 590.42,59.65 591.44,66.16 592.46,63.36 593.48,65.26 594.50,59.01 595.52,64.47 596.54,62.33 597.56,66.23 598.58,59.25 599.60,65.93 600.62,63.02 601.64,66.35 602.66,58.87 603.68,65.93 604.70,62.82 605.72,66.27 606.74,59.45 607.76,66.35 608.78,63.83 609.80,59.85 610.82,59.95 611.84,67.95 612.86,64.70 613.88,67.54 614.90,60.60 615.92,66.33 616.94,62.47 617.96,65.64 618.98,59.36 620.00,65.97 621.02,61.68 622.04,65.01 623.06,58.71 624.08,64.70 625.10,62.35 626.12,65.37 627.14,59.64 628.16,65.63 629.18,62.43 630.20,65.14 631.22,59.23 632.24,66.29 633.27,62.92 634.29,66.05 635.31,59.67 636.33,66.54 637.35,63.35 638.37,66.65 639.39,60.95 640.41,67.50 641.43,64.70 642.45,67.52 643.47,62.48 644.49,67.06 645.51,62.89 646.53,55.52 647.55,59.08 648.57,65.84 649.59,62.85 650.61,65.98 651.63,58.93 652.65,65.76 653.67,63.69 654.69,67.03 655.71,59.78 656.73,66.61 657.75,63.91 658.77,67.32 659.79,60.31 660.81,67.52 661.83,64.15 662.85,67.15 663.87,60.33 664.89,67.25 665.91,63.75 666.93,66.94 667.95,59.97 668.97,66.97 669.99,64.69 671.01,60.26 672.03,59.54 673.05,67.42 674.07,63.38 675.09,67.09 676.11,60.01 677.13,67.63 678.15,64.53 679.17,67.58 680.19,60.32 681.21,67.51 682.23,64.16 683.25,67.01 684.27,61.23 685.29,67.88 686.31,64.77 687.33,67.49 688.35,59.73 689.37,66.43 690.39,64.31 691.41,58.65 692.43,65.50 693.45,62.95 694.47,66.79 695.49,59.13 696.51,67.25 697.53,63.93 698.55,66.47 699.57,59.21 700.59,66.51 701.61,63.87 702.63,65.89 703.65,59.55 704.67,64.46 705.69,63.50 706.71,65.19 707.73,59.60 708.75,66.61 709.77,64.51 710.79,65.87 711.81,59.26 712.83,65.39 713.85,64.37 714.87,65.33 715.89,59.20 716.91,64.69 717.93,63.36 718.95,64.70 719.97,59.55 720.99,69.27 722.01,63.99 723.03,66.28 724.05,60.55 725.07,65.53 726.09,63.18 727.11,63.99 728.13,59.74 729.15,64.59 730.17,63.33 731.19,64.13 732.21,60.05 733.23,58.89 734.25,64.21 735.27,62.82 736.29,64.95 737.31,58.52 738.33,64.15 739.35,62.28 740.37,64.60 741.39,57.66 742.41,63.08 743.43,62.20 744.45,63.39 745.47,57.78 746.49,65.28 747.51,62.50 748.53,66.11 749.55,58.66 750.57,65.71 751.59,63.41 752.61,65.92 753.63,59.41 754.65,64.87 755.67,62.87 756.69,65.73 757.71,59.46 758.73,66.29 759.75,62.90 760.77,66.11 761.79,59.27 762.81,65.66 763.83,63.73 764.85,67.04 765.87,59.38 766.89,66.43 767.91,64.42 768.93,66.78 769.95,59.89 770.97,66.46 771.99,62.83 773.01,65.56 774.03,58.62 775.05,64.52 776.07,61.04 777.09,63.38 778.11,57.54 779.13,64.28 780.15,62.86 781.17,57.34 782.19,63.34 783.21,61.73 784.23,65.10 785.25,59.16 786.27,65.82 787.29,62.94 788.31,66.22 789.33,60.09 790.35,65.33 791.37,63.94 792.39,59.12 793.41,64.04 794.43,58.40 795.45,64.72 796.47,62.93 797.49,65.07 798.51,58.77 799.53,65.31 800.55,62.29 801.57,63.55 802.59,58.61 803.61,64.53 804.63,62.94 805.65,66.03 806.67,58.96 807.69,64.48 808.71,62.82 809.73,64.58 810.75,59.20 811.77,66.30 812.79,63.17 813.81,66.70 814.83,58.48 815.85,65.99 816.87,62.87 817.89,66.61 818.91,59.03 819.93,65.50 820.95,62.11 821.97,66.22 822.99,59.01 824.01,65.66 825.03,62.18 826.05,65.84 827.07,58.85 828.09,66.47 829.11,62.96 830.13,65.33 831.15,59.37 832.17,65.15 833.19,63.15 834.21,68.19 835.23,60.82 836.25,68.37 837.27,64.31 838.29,68.09 839.31,61.41 840.33,67.84 841.35,63.89 842.37,67.29 843.39,59.61 844.41,66.37 845.43,63.85 846.45,67.06 847.47,60.09 848.49,66.27 849.51,63.60 850.53,66.27 851.55,60.19 852.57,65.02 853.59,63.42 854.61,59.90 855.63,59.07 856.65,64.93 857.67,63.67 858.69,64.26 859.71,58.54 860.73,63.84 861.76,62.94 862.78,64.14 863.80,58.85 864.82,64.37 865.84,62.42 866.86,63.87 867.88,58.72 868.90,63.86 869.92,62.42 870.94,65.15 871.96,59.35 872.98,65.88 874.00,64.32 875.02,65.95 876.04,61.70 877.06,66.32 878.08,64.39 879.10,51.85 880.12,53.41 881.14,55.84 882.16,56.43 883.18,56.66 884.20,54.54 885.22,55.71 886.24,56.03 887.26,56.29 888.28,54.83 889.30,55.72 890.32,56.40 891.34,56.34 892.36,54.96 893.38,56.48 894.40,56.67 895.42,57.44 896.44,55.49 897.46,56.26 898.48,56.05 899.50,57.23 900.52,55.64 901.54,56.54 902.56,56.75 903.58,57.50 904.60,55.55 905.62,56.75 906.64,56.49 907.66,56.79 908.68,55.49 909.70,56.96 910.72,56.74 911.74,56.98 912.76,55.40 913.78,56.26 914.80,56.47 915.82,57.38 916.84,55.22 917.86,56.04 918.88,56.65 919.90,57.15 920.92,55.02 921.94,56.40 922.96,56.59 923.98,57.16 925.00,55.00 926.02,55.97 927.04,56.14 928.06,56.08 929.08,54.48 930.10,55.95 931.12,55.67 932.14,55.50 933.16,54.56 934.18,56.09 935.20,56.24 936.22,56.44 937.24,54.39 938.26,55.46 939.28,55.67 940.30,57.17 941.32,54.24 942.34,55.29 943.36,55.66 944.38,56.19 945.40,54.36 946.42,56.33 947.44,56.53 948.46,57.09 949.48,54.17 950.50,55.63 951.52,56.08 952.54,56.63 953.56,54.28 954.58,55.77 955.60,56.45 956.62,57.09 957.64,53.83 958.66,56.74 959.68,56.09 960.70,56.94 961.72,53.83 962.74,55.80 963.76,56.60 964.78,56.31 965.80,54.30 966.82,55.42 967.84,55.97 968.86,56.25 969.88,55.13 970.90,56.88 971.92,57.99 972.94,58.48 973.96,56.66 974.98,64.60 976.00,63.43" fill="none" stroke="#0d6efd" stroke-width="2"/>
</svg>
