<svg xmlns="http://www.w3.org/2000/svg" width="1000" height="320" viewBox="0 0 1000 320">
  <rect width="100%" height="100%" fill="#ffffff"/>
  <text x="60" y="24" font-family="Arial" font-size="18" font-weight="bold">encoded_720p.mp4 - native VMAF Over Time</text>
  <text x="60" y="308" font-family="Arial" font-size="12" fill="#555">Mean=94.618 Min=85.588 Max=96.789</text>
  <line x1="60" y1="40" x2="60" y2="276" stroke="#333" stroke-width="1"/>
  <line x1="60" y1="276" x2="976" y2="276" stroke="#333" stroke-width="1"/>
  <line x1="60" y1="63.6" x2="976" y2="63.6" stroke="#ddd" stroke-width="1"/>
  <line x1="60" y1="87.2" x2="976" y2="87.2" stroke="#eee" stroke-width="1"/>
  <line x1="60" y1="158.0" x2="976" y2="158.0" stroke="#eee" stroke-width="1"/>
  <text x="12" y="44" font-family="Arial" font-size="12">100</text>
  <text x="20" y="67.6" font-family="Arial" font-size="12">90</text>
  <text x="20" y="91.2" font-family="Arial" font-size="12">80</text>
  <text x="20" y="162.0" font-family="Arial" font-size="12">50</text>
  <text x="60" y="300" font-family="Arial" font-size="12">00:00.000</text>
  <text x="924" y="300" font-family="Arial" font-size="12">00:14.982</text>
  <polyline points="60.00,68.09 61.02,70.62 62.04,72.71 63.06,73.37 64.08,72.41 65.10,73.33 66.12,74.01 67.14,72.56 68.16,71.41 69.18,72.23 70.20,69.62 71.22,69.05 72.24,66.56 73.26,65.10 74.28,63.35 75.30,61.26 76.32,57.72 77.34,58.31 78.36,56.83 79.38,56.24 80.40,52.37 81.42,53.96 82.44,53.89 83.46,53.90 84.48,52.49 85.50,54.29 86.52,54.00 87.54,53.95 88.56,51.97 89.58,53.18 90.60,52.97 91.62,53.01 92.64,51.68 93.66,53.17 94.68,53.14 95.70,52.70 96.72,51.28 97.74,52.33 98.76,52.63 99.78,52.73 100.80,51.07 101.82,52.10 102.84,52.22 103.86,52.44 104.88,50.67 105.90,52.39 106.92,52.30 107.94,52.61 108.96,50.83 109.98,51.94 111.00,52.02 112.02,52.26 113.04,50.66 114.06,52.06 115.08,52.10 116.10,52.49 117.12,50.67 118.14,51.40 119.16,51.41 120.18,50.58 121.20,52.00 122.22,52.29 123.24,52.17 124.26,52.14 125.28,50.56 126.30,52.01 127.32,52.12 128.34,52.58 129.36,50.72 130.38,51.95 131.40,51.24 132.42,51.82 133.44,50.41 134.46,51.80 135.48,51.98 136.50,47.59 137.52,51.79 138.54,52.14 139.56,52.43 140.58,53.16 141.60,49.76 142.62,52.22 143.64,52.09 144.66,52.71 145.68,50.22 146.70,52.69 147.72,52.20 148.74,52.40 149.76,50.12 150.78,53.01 151.80,52.11 152.82,53.04 153.84,50.51 154.86,53.05 155.88,52.52 156.90,52.75 157.92,50.42 158.94,52.97 159.96,52.58 160.98,52.85 162.00,50.74 163.02,52.91 164.04,52.53 165.06,52.70 166.08,50.72 167.10,52.79 168.12,52.39 169.14,52.61 170.16,50.59 171.18,52.20 172.20,52.09 173.22,52.29 174.24,50.59 175.27,52.67 176.29,52.71 177.31,53.22 178.33,50.65 179.35,52.49 180.37,52.24 181.39,52.56 182.41,50.48 183.43,52.61 184.45,52.74 185.47,52.34 186.49,51.00 187.51,52.39 188.53,52.96 189.55,53.09 190.57,51.17 191.59,52.71 192.61,52.73 193.63,52.83 194.65,50.50 195.67,52.40 196.69,52.40 197.71,52.66 198.73,50.60 199.75,52.53 200.77,52.50 201.79,52.74 202.81,49.80 203.83,52.57 204.85,51.90 205.87,52.93 206.89,49.84 207.91,52.69 208.93,51.91 209.95,52.92 210.97,49.37 211.99,52.71 213.01,51.81 214.03,53.14 215.05,49.72 216.07,52.69 217.09,51.91 218.11,52.54 219.13,49.76 220.15,52.86 221.17,51.55 222.19,52.00 223.21,49.36 224.23,53.19 225.25,51.74 226.27,52.94 227.29,49.85 228.31,52.89 229.33,52.31 230.35,52.25 231.37,49.84 232.39,52.74 233.41,51.65 234.43,53.02 235.45,49.96 236.47,53.00 237.49,52.17 238.51,52.79 239.53,49.66 240.55,52.73 241.57,51.52 242.59,52.49 243.61,49.01 244.63,52.73 245.65,51.93 246.67,53.00 247.69,50.14 248.71,53.77 249.73,52.66 250.75,53.33 251.77,49.92 252.79,53.19 253.81,52.18 254.83,53.73 255.85,49.85 256.87,53.01 257.89,52.39 258.91,52.53 259.93,49.90 260.95,53.44 261.97,52.22 262.99,52.35 264.01,49.04 265.03,53.47 266.05,52.03 267.07,53.47 268.09,50.11 269.11,53.46 270.13,52.34 271.15,53.50 272.17,50.54 273.19,53.86 274.21,52.31 275.23,53.03 276.25,50.25 277.27,53.39 278.29,52.28 279.31,53.39 280.33,49.93 281.35,53.11 282.37,52.28 283.39,53.07 284.41,50.13 285.43,53.16 286.45,52.07 287.47,53.06 288.49,49.73 289.51,52.64 290.53,52.16 291.55,53.16 292.57,49.71 293.59,52.99 294.61,52.79 295.63,53.29 296.65,50.37 297.67,54.07 298.69,54.75 299.71,53.54 300.73,53.87 301.75,50.31 302.77,54.12 303.79,53.95 304.81,53.56 305.83,53.61 306.85,49.84 307.87,52.77 308.89,52.27 309.91,53.21 310.93,50.64 311.95,52.72 312.97,52.99 313.99,53.20 315.01,50.53 316.03,52.94 317.05,52.33 318.07,53.13 319.09,49.89 320.11,53.77 321.13,52.99 322.15,53.81 323.17,50.57 324.19,53.22 325.21,52.40 326.23,53.24 327.25,50.16 328.27,53.59 329.29,52.42 330.31,53.66 331.33,50.51 332.35,54.05 333.37,52.97 334.39,53.62 335.41,50.20 336.43,54.28 337.45,55.15 338.47,54.06 339.49,54.18 340.51,51.03 341.53,54.64 342.55,53.17 343.57,55.02 344.59,50.78 345.61,54.57 346.63,52.83 347.65,53.90 348.67,50.83 349.69,54.39 350.71,53.47 351.73,55.21 352.75,50.93 353.77,54.55 354.79,53.69 355.81,54.31 356.83,51.45 357.85,53.81 358.87,53.55 359.89,54.65 360.91,50.83 361.93,53.34 362.95,52.93 363.97,53.74 364.99,50.83 366.01,54.76 367.03,54.99 368.05,54.45 369.07,54.81 370.09,51.03 371.11,54.78 372.13,53.16 373.15,54.94 374.17,50.71 375.19,54.00 376.21,54.53 377.23,53.64 378.25,54.97 379.27,51.89 380.29,55.07 381.31,54.00 382.33,55.51 383.35,51.97 384.37,55.09 385.39,53.52 386.41,54.83 387.43,51.61 388.45,52.90 389.47,51.72 390.49,52.38 391.51,47.58 392.53,51.91 393.55,51.84 394.57,52.64 395.59,49.96 396.61,53.28 397.63,52.65 398.65,54.03 399.67,50.59 400.69,54.33 401.71,53.41 402.73,54.01 403.76,50.93 404.78,53.64 405.80,53.39 406.82,54.24 407.84,50.50 408.86,54.19 409.88,52.22 410.90,53.80 411.92,50.44 412.94,54.75 413.96,53.42 414.98,54.98 416.00,50.74 417.02,55.13 418.04,55.16 419.06,54.39 420.08,54.29 421.10,51.00 422.12,55.44 423.14,54.52 424.16,53.86 425.18,54.47 426.20,50.53 427.22,54.21 428.24,54.71 429.26,54.00 430.28,54.22 431.30,50.39 432.32,54.39 433.34,52.34 434.36,53.99 435.38,50.58 436.40,55.04 437.42,53.05 438.44,54.46 439.46,50.78 440.48,55.09 441.50,53.99 442.52,54.22 443.54,50.78 444.56,54.59 445.58,53.43 446.60,53.91 447.62,50.95 448.64,55.26 449.66,53.72 450.68,54.29 451.70,51.29 452.72,55.78 453.74,54.33 454.76,54.96 455.78,51.09 456.80,53.86 457.82,52.57 458.84,53.91 459.86,50.44 460.88,54.30 461.90,52.14 462.92,53.58 463.94,50.77 464.96,55.05 465.98,53.54 467.00,50.43 468.02,53.53 469.04,52.87 470.06,54.49 471.08,50.12 472.10,53.18 473.12,52.52 474.14,53.15 475.16,49.98 476.18,53.45 477.20,52.88 478.22,54.63 479.24,50.36 480.26,53.36 481.28,52.91 482.30,53.36 483.32,50.55 484.34,54.06 485.36,55.01 486.38,54.55 487.40,54.35 488.42,50.84 489.44,54.08 490.46,53.45 491.48,53.79 492.50,50.75 493.52,53.58 494.54,53.03 495.56,53.60 496.58,50.53 497.60,53.51 498.62,53.25 499.64,53.66 500.66,51.20 501.68,54.14 502.70,53.39 503.72,53.80 504.74,50.93 505.76,53.79 506.78,53.23 507.80,53.15 508.82,50.56 509.84,54.08 510.86,53.09 511.88,53.98 512.90,51.03 513.92,54.11 514.94,52.80 515.96,54.95 516.98,50.86 518.00,54.55 519.02,52.60 520.04,53.97 521.06,50.63 522.08,54.12 523.10,52.54 524.12,53.68 525.14,50.56 526.16,54.23 527.18,52.92 528.20,54.48 529.22,50.84 530.24,54.06 531.26,52.89 532.28,54.46 533.30,50.89 534.32,54.22 535.34,53.41 536.36,54.26 537.38,50.80 538.40,53.51 539.42,52.61 540.44,54.40 541.46,50.73 542.48,53.67 543.50,52.87 544.52,54.46 545.54,50.45 546.56,54.15 547.58,52.75 548.60,53.48 549.62,50.45 550.64,53.59 551.66,52.94 552.68,54.11 553.70,50.68 554.72,53.25 555.74,52.79 556.76,54.22 557.78,51.22 558.80,53.80 559.82,53.34 560.84,53.38 561.86,50.87 562.88,53.35 563.90,52.49 564.92,53.55 565.94,50.78 566.96,53.85 567.98,53.02 569.00,53.79 570.02,51.21 571.04,53.88 572.06,52.73 573.08,53.84 574.10,51.13 575.12,53.86 576.14,52.93 577.16,53.16 578.18,50.73 579.20,53.50 580.22,52.94 581.24,54.12 582.26,50.97 583.28,53.86 584.30,53.11 585.32,53.15 586.34,51.14 587.36,53.15 588.38,52.94 589.40,53.32 590.42,50.81 591.44,53.35 592.46,52.63 593.48,53.08 594.50,50.27 595.52,52.96 596.54,52.14 597.56,53.02 598.58,50.21 599.60,52.67 600.62,52.20 601.64,53.49 602.66,50.04 603.68,53.21 604.70,52.09 605.72,52.94 606.74,49.77 607.76,53.64 608.78,52.20 609.80,49.58 610.82,53.63 611.84,55.11 612.86,53.94 613.88,54.62 614.90,50.32 615.92,54.00 616.94,51.97 617.96,53.30 618.98,50.28 620.00,53.98 621.02,52.01 622.04,53.45 623.06,49.90 624.08,53.48 625.10,51.85 626.12,53.37 627.14,49.59 628.16,53.20 629.18,52.41 630.20,53.37 631.22,49.90 632.24,53.66 633.27,53.57 634.29,53.76 635.31,54.14 636.33,50.33 637.35,54.32 638.37,54.06 639.39,53.78 640.41,54.26 641.43,51.39 642.45,53.76 643.47,54.18 644.49,53.14 645.51,54.16 646.53,48.45 647.55,53.60 648.57,54.74 649.59,54.00 650.61,54.25 651.63,50.53 652.65,54.58 653.67,52.54 654.69,54.03 655.71,50.58 656.73,54.00 657.75,53.30 658.77,54.27 659.79,51.01 660.81,54.16 661.83,53.76 662.85,54.20 663.87,50.91 664.89,54.00 665.91,52.84 666.93,53.98 667.95,50.65 668.97,53.78 669.99,52.36 671.01,53.55 672.03,50.49 673.05,54.07 674.07,52.95 675.09,54.37 676.11,50.78 677.13,54.59 678.15,53.05 679.17,54.07 680.19,50.57 681.21,54.32 682.23,53.02 683.25,54.57 684.27,51.06 685.29,55.50 686.31,52.98 687.33,54.31 688.35,50.08 689.37,53.91 690.39,52.76 691.41,49.54 692.43,54.22 693.45,52.03 694.47,53.95 695.49,50.45 696.51,54.02 697.53,52.96 698.55,54.36 699.57,50.80 700.59,54.07 701.61,52.97 702.63,53.26 703.65,50.69 704.67,53.29 705.69,53.33 706.71,53.97 707.73,50.82 708.75,53.48 709.77,53.12 710.79,53.47 711.81,50.75 712.83,53.95 713.85,53.51 714.87,53.52 715.89,50.77 716.91,53.25 717.93,53.03 718.95,53.75 719.97,51.01 720.99,54.17 722.01,53.03 723.03,53.06 724.05,50.91 725.07,53.02 726.09,52.97 727.11,53.05 728.13,51.12 729.15,53.86 730.17,54.25 731.19,54.32 732.21,54.44 733.23,51.04 734.25,53.47 735.27,52.92 736.29,53.18 737.31,50.65 738.33,53.58 739.35,52.70 740.37,53.43 741.39,50.27 742.41,52.54 743.43,52.93 744.45,52.50 745.47,50.27 746.49,53.05 747.51,52.94 748.53,54.81 749.55,50.99 750.57,54.05 751.59,53.29 752.61,54.56 753.63,51.29 754.65,54.11 755.67,52.83 756.69,53.86 757.71,50.64 758.73,54.09 759.75,53.06 760.77,53.82 761.79,50.44 762.81,54.38 763.83,52.99 764.85,54.08 765.87,50.74 766.89,54.72 767.91,52.94 768.93,54.83 769.95,50.63 770.97,53.40 771.99,52.41 773.01,53.27 774.03,50.35 775.05,53.38 776.07,52.04 777.09,52.54 778.11,49.77 779.13,53.01 780.15,52.18 781.17,49.59 782.19,52.70 783.21,52.48 784.23,53.51 785.25,50.49 786.27,53.45 787.29,53.42 788.31,54.66 789.33,50.66 790.35,53.63 791.37,52.97 792.39,53.59 793.41,49.92 794.43,53.45 795.45,54.97 796.47,53.65 797.49,54.48 798.51,50.50 799.53,53.41 800.55,53.38 801.57,54.15 802.59,50.65 803.61,53.13 804.63,53.06 805.65,53.40 806.67,50.81 807.69,53.32 808.71,53.70 809.73,53.92 810.75,50.75 811.77,54.39 812.79,52.89 813.81,53.88 814.83,50.08 815.85,54.02 816.87,52.38 817.89,54.51 818.91,50.65 819.93,53.60 820.95,52.41 821.97,53.99 822.99,50.50 824.01,54.01 825.03,52.61 826.05,54.51 827.07,50.19 828.09,54.03 829.11,51.91 830.13,53.52 831.15,50.06 832.17,53.66 833.19,52.53 834.21,54.65 835.23,50.94 836.25,55.07 837.27,53.49 838.29,54.94 839.31,51.08 840.33,53.85 841.35,52.39 842.37,53.66 843.39,50.34 844.41,53.81 845.43,52.34 846.45,53.57 847.47,50.65 848.49,53.83 849.51,52.86 850.53,54.68 851.55,51.01 852.57,53.88 853.59,53.21 854.61,50.75 855.63,53.60 856.65,54.09 857.67,53.35 858.69,53.15 859.71,50.54 860.73,52.98 861.76,52.53 862.78,53.20 863.80,50.72 864.82,53.33 865.84,53.05 866.86,53.64 867.88,51.11 868.90,53.67 869.92,52.97 870.94,53.93 871.96,51.14 872.98,54.18 874.00,53.16 875.02,54.85 876.04,52.63 877.06,55.39 878.08,54.09 879.10,47.93 880.12,48.76 881.14,49.37 882.16,49.75 883.18,49.52 884.20,50.08 885.22,50.14 886.24,50.38 887.26,49.78 888.28,49.96 889.30,50.11 890.32,50.17 891.34,49.76 892.36,50.18 893.38,50.30 894.40,50.28 895.42,50.31 896.44,49.78 897.46,49.98 898.48,50.18 899.50,50.21 900.52,49.66 901.54,50.01 902.56,50.15 903.58,50.08 904.60,49.50 905.62,50.07 906.64,50.17 907.66,50.18 908.68,49.74 909.70,50.02 910.72,49.98 911.74,49.95 912.76,49.63 913.78,49.80 914.80,49.83 915.82,49.61 916.84,50.26 917.86,50.34 918.88,50.30 919.90,50.57 920.92,49.75 921.94,50.01 922.96,49.85 923.98,49.86 925.00,49.52 926.02,49.67 927.04,49.75 928.06,49.76 929.08,49.27 930.10,49.57 931.12,49.57 932.14,49.50 933.16,49.21 934.18,49.46 935.20,49.63 936.22,49.72 937.24,49.14 938.26,49.65 939.28,49.69 940.30,49.92 941.32,49.46 942.34,49.95 943.36,49.75 944.38,49.67 945.40,49.34 946.42,49.95 947.44,50.14 948.46,49.74 949.48,48.99 950.50,49.89 951.52,49.85 952.54,49.69 953.56,49.07 954.58,49.90 955.60,49.89 956.62,49.94 957.64,49.03 958.66,50.67 959.68,50.82 960.70,50.52 961.72,49.14 962.74,49.98 963.76,50.45 964.78,50.37 965.80,50.25 966.82,49.41 967.84,49.84 968.86,50.22 969.88,50.21 970.90,50.03 971.92,51.09 972.94,51.43 973.96,51.35 974.98,51.73 976.00,51.59" fill="none" stroke="#0d6efd" stroke-width="2"/>
</svg>
