<svg xmlns="http://www.w3.org/2000/svg" width="1000" height="320" viewBox="0 0 1000 320">
  <rect width="100%" height="100%" fill="#ffffff"/>
  <text x="60" y="24" font-family="Arial" font-size="18" font-weight="bold">encoded_2160p.mp4 - upscaled_3840x2160 VMAF Over Time</text>
  <text x="60" y="308" font-family="Arial" font-size="12" fill="#555">Mean=91.986 Min=81.396 Max=95.674</text>
  <line x1="60" y1="40" x2="60" y2="276" stroke="#333" stroke-width="1"/>
  <line x1="60" y1="276" x2="976" y2="276" stroke="#333" stroke-width="1"/>
  <line x1="60" y1="63.6" x2="976" y2="63.6" stroke="#ddd" stroke-width="1"/>
  <line x1="60" y1="87.2" x2="976" y2="87.2" stroke="#eee" stroke-width="1"/>
  <line x1="60" y1="158.0" x2="976" y2="158.0" stroke="#eee" stroke-width="1"/>
  <text x="12" y="44" font-family="Arial" font-size="12">100</text>
  <text x="20" y="67.6" font-family="Arial" font-size="12">90</text>
  <text x="20" y="91.2" font-family="Arial" font-size="12">80</text>
  <text x="20" y="162.0" font-family="Arial" font-size="12">50</text>
  <text x="60" y="300" font-family="Arial" font-size="12">00:00.000</text>
  <text x="924" y="300" font-family="Arial" font-size="12">00:14.982</text>
  <polyline points="60.00,69.11 61.02,75.75 62.04,77.51 63.06,80.99 64.08,82.73 65.10,83.91 66.12,82.32 67.14,82.90 68.16,77.34 69.18,80.92 70.20,77.82 71.22,76.43 72.24,71.27 73.26,72.79 74.28,69.50 75.30,69.87 76.32,63.12 77.34,64.96 78.36,62.44 79.38,62.83 80.40,57.98 81.42,61.38 82.44,60.35 83.46,61.92 84.48,57.19 85.50,62.00 86.52,59.86 87.54,61.29 88.56,56.68 89.58,59.88 90.60,59.15 91.62,59.41 92.64,56.24 93.66,59.83 94.68,58.99 95.70,60.39 96.72,55.91 97.74,59.03 98.76,58.86 99.78,59.48 100.80,55.59 101.82,58.86 102.84,58.42 103.86,60.05 104.88,55.08 105.90,57.96 106.92,57.47 107.94,58.61 108.96,54.87 109.98,57.98 111.00,57.64 112.02,58.22 113.04,55.02 114.06,58.19 115.08,58.12 116.10,58.43 117.12,55.00 118.14,57.80 119.16,57.78 120.18,58.01 121.20,55.01 122.22,58.16 123.24,58.48 124.26,58.92 125.28,55.07 126.30,57.89 127.32,57.73 128.34,58.84 129.36,55.40 130.38,58.01 131.40,57.00 132.42,57.89 133.44,55.25 134.46,57.34 135.48,57.03 136.50,51.92 137.52,54.25 138.54,58.51 139.56,56.86 140.58,58.84 141.60,54.38 142.62,58.80 143.64,57.57 144.66,59.42 145.68,55.08 146.70,59.45 147.72,57.69 148.74,59.81 149.76,54.79 150.78,59.89 151.80,58.49 152.82,59.82 153.84,55.38 154.86,59.73 155.88,58.02 156.90,59.88 157.92,55.04 158.94,59.76 159.96,58.20 160.98,59.93 162.00,55.15 163.02,59.54 164.04,57.72 165.06,59.86 166.08,54.89 167.10,59.97 168.12,58.04 169.14,59.28 170.16,55.02 171.18,58.85 172.20,57.56 173.22,59.02 174.24,54.90 175.27,59.46 176.29,57.61 177.31,59.19 178.33,54.97 179.35,59.12 180.37,58.43 181.39,54.89 182.41,54.60 183.43,59.45 184.45,58.00 185.47,59.07 186.49,54.75 187.51,58.39 188.53,58.55 189.55,59.41 190.57,55.08 191.59,59.20 192.61,58.57 193.63,60.17 194.65,54.97 195.67,60.01 196.69,58.65 197.71,60.11 198.73,55.46 199.75,58.78 200.77,57.64 201.79,59.33 202.81,54.40 203.83,58.84 204.85,56.71 205.87,58.58 206.89,53.90 207.91,58.93 208.93,56.78 209.95,59.79 210.97,53.73 211.99,58.75 213.01,57.13 214.03,59.91 215.05,54.43 216.07,59.52 217.09,57.36 218.11,59.34 219.13,54.18 220.15,59.48 221.17,56.88 222.19,59.71 223.21,54.18 224.23,59.23 225.25,56.68 226.27,59.55 227.29,54.70 228.31,59.38 229.33,57.93 230.35,60.02 231.37,54.80 232.39,59.73 233.41,57.85 234.43,60.47 235.45,55.01 236.47,60.54 237.49,57.77 238.51,60.24 239.53,54.94 240.55,60.05 241.57,58.60 242.59,54.78 243.61,54.10 244.63,59.85 245.65,57.30 246.67,60.37 247.69,54.88 248.71,60.82 249.73,58.65 250.75,60.49 251.77,55.09 252.79,60.61 253.81,58.26 254.83,60.74 255.85,54.84 256.87,60.50 257.89,57.54 258.91,59.76 259.93,54.71 260.95,59.11 261.97,57.09 262.99,60.15 264.01,54.33 265.03,59.66 266.05,57.30 267.07,60.44 268.09,55.47 269.11,61.17 270.13,58.17 271.15,61.44 272.17,55.82 273.19,61.07 274.21,58.50 275.23,61.22 276.25,55.59 277.27,60.74 278.29,57.79 279.31,60.22 280.33,55.57 281.35,60.64 282.37,57.15 283.39,59.89 284.41,54.75 285.43,60.21 286.45,57.65 287.47,59.85 288.49,54.57 289.51,59.66 290.53,57.40 291.55,60.05 292.57,54.81 293.59,60.91 294.61,58.53 295.63,60.84 296.65,56.23 297.67,61.62 298.69,58.83 299.71,62.07 300.73,55.86 301.75,61.25 302.77,60.11 303.79,63.41 304.81,56.45 305.83,62.51 306.85,59.30 307.87,61.79 308.89,56.02 309.91,61.06 310.93,59.17 311.95,61.24 312.97,56.02 313.99,60.84 315.01,59.16 316.03,61.03 317.05,55.20 318.07,61.13 319.09,58.40 320.11,61.44 321.13,55.89 322.15,61.21 323.17,58.42 324.19,61.52 325.21,56.00 326.23,61.26 327.25,58.83 328.27,61.98 329.29,56.04 330.31,61.34 331.33,58.89 332.35,61.43 333.37,56.93 334.39,62.17 335.41,58.86 336.43,62.60 337.45,57.32 338.47,62.01 339.49,59.56 340.51,62.75 341.53,57.44 342.55,63.19 343.57,60.22 344.59,63.06 345.61,57.76 346.63,62.16 347.65,60.90 348.67,57.42 349.69,62.80 350.71,59.93 351.73,64.65 352.75,57.68 353.77,63.26 354.79,61.84 355.81,64.10 356.83,58.36 357.85,63.71 358.87,60.86 359.89,64.14 360.91,57.90 361.93,63.33 362.95,60.54 363.97,63.14 364.99,57.72 366.01,57.29 367.03,63.59 368.05,59.99 369.07,63.05 370.09,57.25 371.11,63.58 372.13,60.09 373.15,63.04 374.17,55.96 375.19,61.77 376.21,59.20 377.23,62.86 378.25,56.79 379.27,62.65 380.29,62.34 381.31,57.39 382.33,63.59 383.35,60.17 384.37,62.12 385.39,57.56 386.41,62.60 387.43,60.06 388.45,63.03 389.47,58.50 390.49,60.28 391.51,51.87 392.53,58.74 393.55,54.50 394.57,59.92 395.59,57.85 396.61,60.97 397.63,55.54 398.65,61.75 399.67,59.08 400.69,62.39 401.71,56.47 402.73,62.39 403.76,59.51 404.78,61.78 405.80,56.36 406.82,61.85 407.84,58.98 408.86,62.83 409.88,56.29 410.90,61.93 411.92,60.20 412.94,63.09 413.96,56.98 414.98,62.42 416.00,60.65 417.02,63.08 418.04,56.83 419.06,62.50 420.08,59.46 421.10,62.51 422.12,56.70 423.14,61.91 424.16,59.61 425.18,62.16 426.20,56.99 427.22,56.17 428.24,62.88 429.26,59.22 430.28,62.59 431.30,56.49 432.32,61.53 433.34,58.62 434.36,62.35 435.38,56.14 436.40,61.83 437.42,59.47 438.44,62.65 439.46,56.59 440.48,62.65 441.50,59.57 442.52,63.47 443.54,56.37 444.56,62.89 445.58,59.70 446.60,62.66 447.62,56.53 448.64,63.77 449.66,60.82 450.68,63.19 451.70,58.05 452.72,64.00 453.74,61.08 454.76,64.36 455.78,57.65 456.80,63.07 457.82,59.84 458.84,63.07 459.86,56.94 460.88,63.45 461.90,60.10 462.92,63.32 463.94,57.90 464.96,64.02 465.98,64.16 467.00,58.03 468.02,64.40 469.04,61.18 470.06,63.43 471.08,57.08 472.10,62.41 473.12,59.50 474.14,62.26 475.16,56.24 476.18,61.98 477.20,59.88 478.22,62.37 479.24,56.40 480.26,62.06 481.28,60.17 482.30,61.67 483.32,56.18 484.34,61.97 485.36,59.90 486.38,62.98 487.40,57.45 488.42,56.66 489.44,62.89 490.46,60.43 491.48,62.58 492.50,56.57 493.52,61.65 494.54,59.79 495.56,61.51 496.58,56.17 497.60,62.21 498.62,60.08 499.64,62.17 500.66,56.64 501.68,62.52 502.70,59.94 503.72,62.71 504.74,56.80 505.76,62.74 506.78,59.93 507.80,62.20 508.82,56.55 509.84,62.33 510.86,59.97 511.88,62.49 512.90,56.89 513.92,62.97 514.94,60.03 515.96,63.38 516.98,57.65 518.00,62.94 519.02,59.61 520.04,62.59 521.06,56.49 522.08,62.26 523.10,59.64 524.12,62.88 525.14,56.39 526.16,62.69 527.18,59.39 528.20,63.18 529.22,56.15 530.24,62.40 531.26,59.35 532.28,62.75 533.30,56.62 534.32,62.68 535.34,60.36 536.36,63.73 537.38,56.29 538.40,61.97 539.42,58.82 540.44,62.84 541.46,56.97 542.48,62.36 543.50,60.09 544.52,62.99 545.54,57.34 546.56,62.81 547.58,61.75 548.60,57.16 549.62,55.96 550.64,62.30 551.66,59.60 552.68,62.44 553.70,56.48 554.72,62.02 555.74,60.17 556.76,62.11 557.78,57.39 558.80,61.99 559.82,59.45 560.84,62.18 561.86,56.21 562.88,61.66 563.90,58.99 564.92,61.87 565.94,56.17 566.96,62.13 567.98,59.65 569.00,62.40 570.02,57.03 571.04,62.47 572.06,60.33 573.08,62.55 574.10,56.82 575.12,62.38 576.14,59.21 577.16,61.67 578.18,55.82 579.20,61.67 580.22,59.87 581.24,61.23 582.26,55.85 583.28,61.27 584.30,59.43 585.32,60.67 586.34,55.96 587.36,60.83 588.38,59.28 589.40,61.87 590.42,55.43 591.44,61.07 592.46,58.86 593.48,60.79 594.50,55.19 595.52,60.80 596.54,58.38 597.56,60.60 598.58,55.82 599.60,61.23 600.62,58.53 601.64,61.36 602.66,55.35 603.68,61.32 604.70,58.59 605.72,60.59 606.74,55.72 607.76,60.83 608.78,58.93 609.80,55.78 610.82,55.61 611.84,62.34 612.86,59.63 613.88,62.19 614.90,56.48 615.92,61.11 616.94,58.06 617.96,60.45 618.98,55.68 620.00,60.57 621.02,57.47 622.04,59.46 623.06,55.01 624.08,60.51 625.10,57.72 626.12,60.38 627.14,55.52 628.16,61.26 629.18,58.03 630.20,61.09 631.22,55.35 632.24,60.53 633.27,58.35 634.29,61.39 635.31,55.77 636.33,60.98 637.35,59.12 638.37,61.83 639.39,56.72 640.41,61.51 641.43,59.27 642.45,62.21 643.47,57.83 644.49,61.91 645.51,58.93 646.53,52.57 647.55,55.17 648.57,61.33 649.59,58.83 650.61,60.92 651.63,55.26 652.65,61.46 653.67,58.94 654.69,61.12 655.71,55.71 656.73,61.57 657.75,59.24 658.77,62.26 659.79,56.12 660.81,62.37 661.83,58.95 662.85,61.31 663.87,55.92 664.89,61.13 665.91,58.60 666.93,61.30 667.95,56.06 668.97,61.18 669.99,59.77 671.01,55.94 672.03,55.44 673.05,61.69 674.07,58.24 675.09,62.09 676.11,56.11 677.13,61.98 678.15,59.19 679.17,61.82 680.19,55.68 681.21,61.11 682.23,58.74 683.25,61.58 684.27,56.51 685.29,61.87 686.31,59.29 687.33,61.98 688.35,55.49 689.37,60.70 690.39,59.06 691.41,54.71 692.43,60.61 693.45,58.05 694.47,61.66 695.49,55.13 696.51,61.25 697.53,58.73 698.55,61.62 699.57,55.26 700.59,62.23 701.61,59.69 702.63,61.93 703.65,55.50 704.67,60.91 705.69,59.21 706.71,60.59 707.73,55.51 708.75,61.38 709.77,59.57 710.79,60.95 711.81,55.36 712.83,61.04 713.85,59.57 714.87,61.36 715.89,55.21 716.91,60.27 717.93,58.36 718.95,61.35 719.97,55.81 720.99,62.92 722.01,59.69 723.03,61.49 724.05,56.17 725.07,60.61 726.09,59.04 727.11,60.67 728.13,55.89 729.15,60.59 730.17,59.38 731.19,60.55 732.21,56.16 733.23,55.18 734.25,59.77 735.27,58.84 736.29,60.60 737.31,55.03 738.33,59.80 739.35,58.00 740.37,60.16 741.39,53.75 742.41,58.86 743.43,57.92 744.45,58.80 745.47,54.19 746.49,60.37 747.51,58.19 748.53,60.45 749.55,54.72 750.57,60.91 751.59,58.93 752.61,60.89 753.63,55.55 754.65,60.03 755.67,58.41 756.69,61.14 757.71,55.51 758.73,61.31 759.75,58.54 760.77,61.47 761.79,55.51 762.81,60.89 763.83,58.81 764.85,62.18 765.87,55.87 766.89,61.79 767.91,59.75 768.93,61.38 769.95,56.10 770.97,60.90 771.99,58.53 773.01,61.06 774.03,54.69 775.05,59.46 776.07,57.02 777.09,59.90 778.11,53.96 779.13,59.41 780.15,58.28 781.17,54.32 782.19,59.08 783.21,57.46 784.23,60.12 785.25,55.19 786.27,60.34 787.29,58.73 788.31,60.89 789.33,56.01 790.35,60.65 791.37,59.03 792.39,55.22 793.41,59.37 794.43,54.79 795.45,61.44 796.47,58.12 797.49,60.86 798.51,54.69 799.53,60.14 800.55,58.47 801.57,59.37 802.59,55.28 803.61,60.23 804.63,58.21 805.65,60.55 806.67,54.71 807.69,59.96 808.71,58.25 809.73,60.48 810.75,55.51 811.77,60.88 812.79,57.85 813.81,61.29 814.83,54.22 815.85,60.72 816.87,58.19 817.89,60.46 818.91,55.06 819.93,60.43 820.95,57.76 821.97,60.95 822.99,55.40 824.01,60.85 825.03,58.14 826.05,60.95 827.07,55.14 828.09,61.26 829.11,58.21 830.13,60.77 831.15,55.34 832.17,60.92 833.19,58.51 834.21,62.48 835.23,56.91 836.25,62.02 837.27,59.17 838.29,62.46 839.31,56.70 840.33,62.10 841.35,58.99 842.37,61.73 843.39,55.44 844.41,61.34 845.43,59.06 846.45,61.31 847.47,56.00 848.49,61.55 849.51,59.47 850.53,61.43 851.55,56.14 852.57,61.04 853.59,60.06 854.61,56.22 855.63,55.10 856.65,60.68 857.67,58.86 858.69,59.99 859.71,54.80 860.73,59.76 861.76,58.67 862.78,60.08 863.80,54.96 864.82,60.54 865.84,58.58 866.86,59.29 867.88,55.25 868.90,60.15 869.92,58.51 870.94,61.27 871.96,55.79 872.98,60.99 874.00,59.50 875.02,61.85 876.04,57.57 877.06,61.89 878.08,59.92 879.10,50.21 880.12,51.35 881.14,53.97 882.16,54.10 883.18,54.75 884.20,52.08 885.22,53.57 886.24,53.84 887.26,53.74 888.28,52.33 889.30,53.47 890.32,54.29 891.34,54.36 892.36,52.66 893.38,54.37 894.40,54.11 895.42,54.94 896.44,52.73 897.46,53.53 898.48,53.54 899.50,54.30 900.52,52.92 901.54,53.93 902.56,54.25 903.58,54.99 904.60,52.93 905.62,54.19 906.64,54.13 907.66,54.47 908.68,52.76 909.70,55.09 910.72,54.18 911.74,54.83 912.76,52.89 913.78,53.91 914.80,54.14 915.82,55.04 916.84,52.64 917.86,54.25 918.88,54.64 919.90,54.94 920.92,52.74 921.94,54.08 922.96,54.34 923.98,54.80 925.00,52.52 926.02,53.79 927.04,54.18 928.06,54.99 929.08,52.31 930.10,53.35 931.12,53.31 932.14,53.83 933.16,52.49 934.18,54.19 935.20,54.21 936.22,54.02 937.24,52.08 938.26,53.47 939.28,53.63 940.30,53.79 941.32,52.05 942.34,53.53 943.36,53.13 944.38,53.50 945.40,52.21 946.42,54.31 947.44,54.74 948.46,54.81 949.48,51.87 950.50,53.74 951.52,53.46 952.54,54.35 953.56,51.97 954.58,53.72 955.60,53.93 956.62,54.45 957.64,51.72 958.66,54.62 959.68,54.23 960.70,54.14 961.72,51.54 962.74,53.73 963.76,54.22 964.78,54.43 965.80,51.99 966.82,53.69 967.84,54.10 968.86,55.30 969.88,52.82 970.90,54.58 971.92,55.12 972.94,56.46 973.96,54.21 974.98,61.54 976.00,59.35" fill="none" stroke="#0d6efd" stroke-width="2"/>
</svg>
