<svg xmlns="http://www.w3.org/2000/svg" width="1000" height="320" viewBox="0 0 1000 320">
  <rect width="100%" height="100%" fill="#ffffff"/>
  <text x="60" y="24" font-family="Arial" font-size="18" font-weight="bold">encoded_720p.mp4 - native VMAF Over Time</text>
  <text x="60" y="308" font-family="Arial" font-size="12" fill="#555">Mean=93.493 Min=84.450 Max=96.209</text>
  <line x1="60" y1="40" x2="60" y2="276" stroke="#333" stroke-width="1"/>
  <line x1="60" y1="276" x2="976" y2="276" stroke="#333" stroke-width="1"/>
  <line x1="60" y1="63.6" x2="976" y2="63.6" stroke="#ddd" stroke-width="1"/>
  <line x1="60" y1="87.2" x2="976" y2="87.2" stroke="#eee" stroke-width="1"/>
  <line x1="60" y1="158.0" x2="976" y2="158.0" stroke="#eee" stroke-width="1"/>
  <text x="12" y="44" font-family="Arial" font-size="12">100</text>
  <text x="20" y="67.6" font-family="Arial" font-size="12">90</text>
  <text x="20" y="91.2" font-family="Arial" font-size="12">80</text>
  <text x="20" y="162.0" font-family="Arial" font-size="12">50</text>
  <text x="60" y="300" font-family="Arial" font-size="12">00:00.000</text>
  <text x="924" y="300" font-family="Arial" font-size="12">00:14.982</text>
  <polyline points="60.00,68.09 61.02,69.94 62.04,72.51 63.06,75.09 64.08,76.70 65.10,76.27 66.12,75.63 67.14,74.34 68.16,73.17 69.18,74.46 70.20,73.17 71.22,72.58 72.24,69.86 73.26,68.38 74.28,66.69 75.30,65.29 76.32,61.47 77.34,62.57 78.36,61.15 79.38,60.70 80.40,56.77 81.42,58.17 82.44,58.10 83.46,58.09 84.48,56.90 85.50,58.41 86.52,58.39 87.54,57.52 88.56,55.65 89.58,56.56 90.60,56.56 91.62,56.25 92.64,55.05 93.66,56.15 94.68,56.22 95.70,55.85 96.72,54.56 97.74,54.93 98.76,55.24 99.78,55.11 100.80,54.11 101.82,54.84 102.84,54.95 103.86,54.77 104.88,53.83 105.90,54.85 106.92,54.70 107.94,54.96 108.96,53.46 109.98,54.35 111.00,54.41 112.02,54.41 113.04,53.01 114.06,53.94 115.08,53.86 116.10,54.14 117.12,52.90 118.14,53.47 119.16,53.66 120.18,53.01 121.20,54.42 122.22,54.53 123.24,54.43 124.26,54.53 125.28,53.31 126.30,54.23 127.32,54.35 128.34,54.44 129.36,53.55 130.38,53.97 131.40,53.36 132.42,53.81 133.44,52.73 134.46,54.00 135.48,54.13 136.50,49.61 137.52,54.48 138.54,55.87 139.56,55.88 140.58,56.35 141.60,52.04 142.62,54.73 143.64,54.88 144.66,55.43 145.68,52.68 146.70,55.16 147.72,54.63 148.74,55.88 149.76,52.65 150.78,55.85 151.80,55.06 152.82,55.27 153.84,52.95 154.86,55.23 155.88,55.27 156.90,55.11 157.92,52.84 158.94,55.48 159.96,55.20 160.98,55.52 162.00,53.43 163.02,55.88 164.04,54.99 165.06,55.10 166.08,52.86 167.10,54.77 168.12,54.82 169.14,55.06 170.16,53.19 171.18,54.50 172.20,54.25 173.22,54.79 174.24,53.11 175.27,54.64 176.29,55.00 177.31,55.12 178.33,52.53 179.35,55.00 180.37,54.66 181.39,54.59 182.41,52.83 183.43,54.51 184.45,54.80 185.47,54.50 186.49,52.98 187.51,54.17 188.53,54.80 189.55,55.22 190.57,53.49 191.59,54.99 192.61,55.18 193.63,55.56 194.65,52.84 195.67,54.91 196.69,54.80 197.71,55.13 198.73,53.27 199.75,54.84 200.77,54.57 201.79,54.48 202.81,52.29 203.83,54.20 204.85,53.61 205.87,55.11 206.89,51.66 207.91,54.52 208.93,53.79 209.95,55.19 210.97,51.20 211.99,55.07 213.01,53.71 214.03,55.21 215.05,51.78 216.07,55.57 217.09,54.52 218.11,55.53 219.13,51.78 220.15,54.65 221.17,53.62 222.19,54.15 223.21,51.15 224.23,54.54 225.25,54.04 226.27,54.95 227.29,51.18 228.31,54.64 229.33,54.32 230.35,54.02 231.37,52.13 232.39,54.92 233.41,53.73 234.43,55.19 235.45,51.79 236.47,54.79 237.49,54.55 238.51,56.26 239.53,51.78 240.55,55.47 241.57,53.74 242.59,55.47 243.61,51.41 244.63,55.24 245.65,54.42 246.67,55.80 247.69,52.24 248.71,56.23 249.73,54.95 250.75,55.67 251.77,52.27 252.79,56.09 253.81,54.73 254.83,56.32 255.85,51.98 256.87,55.69 257.89,54.83 258.91,56.05 259.93,52.68 260.95,56.73 261.97,55.04 262.99,55.81 264.01,51.87 265.03,55.98 266.05,54.49 267.07,55.84 268.09,52.03 269.11,56.28 270.13,54.72 271.15,55.87 272.17,52.84 273.19,56.68 274.21,56.55 275.23,56.92 276.25,52.70 277.27,56.42 278.29,54.89 279.31,55.75 280.33,52.87 281.35,55.80 282.37,55.55 283.39,55.68 284.41,51.76 285.43,55.31 286.45,54.20 287.47,55.48 288.49,51.56 289.51,54.63 290.53,54.22 291.55,55.00 292.57,51.96 293.59,56.01 294.61,55.40 295.63,55.91 296.65,52.75 297.67,57.13 298.69,57.90 299.71,56.30 300.73,55.83 301.75,52.41 302.77,56.58 303.79,56.80 304.81,55.56 305.83,56.56 306.85,52.44 307.87,55.36 308.89,54.81 309.91,55.31 310.93,52.72 311.95,55.57 312.97,55.46 313.99,55.92 315.01,53.08 316.03,55.39 317.05,54.81 318.07,56.06 319.09,52.01 320.11,55.85 321.13,55.66 322.15,56.69 323.17,52.68 324.19,56.56 325.21,55.29 326.23,56.00 327.25,52.78 328.27,56.57 329.29,55.21 330.31,56.93 331.33,53.15 332.35,56.76 333.37,55.43 334.39,56.55 335.41,53.16 336.43,57.10 337.45,57.78 338.47,56.65 339.49,58.13 340.51,53.60 341.53,57.20 342.55,55.97 343.57,58.09 344.59,53.00 345.61,58.40 346.63,56.15 347.65,57.67 348.67,54.09 349.69,58.53 350.71,57.00 351.73,58.64 352.75,53.85 353.77,58.02 354.79,56.57 355.81,57.72 356.83,53.91 357.85,57.39 358.87,56.31 359.89,57.74 360.91,53.37 361.93,56.38 362.95,56.06 363.97,57.14 364.99,53.42 366.01,57.88 367.03,57.81 368.05,57.53 369.07,58.76 370.09,53.65 371.11,58.25 372.13,56.58 373.15,57.95 374.17,53.24 375.19,57.42 376.21,58.30 377.23,56.82 378.25,58.26 379.27,54.24 380.29,58.77 381.31,56.99 382.33,59.37 383.35,54.97 384.37,58.87 385.39,56.71 386.41,58.79 387.43,54.88 388.45,56.67 389.47,54.17 390.49,55.60 391.51,49.71 392.53,54.44 393.55,54.35 394.57,55.62 395.59,51.99 396.61,56.18 397.63,55.56 398.65,57.63 399.67,53.24 400.69,57.49 401.71,55.79 402.73,56.78 403.76,52.88 404.78,56.26 405.80,56.10 406.82,56.95 407.84,53.08 408.86,57.30 409.88,54.36 410.90,56.52 411.92,52.63 412.94,57.41 413.96,55.91 414.98,58.42 416.00,53.42 417.02,59.02 418.04,59.11 419.06,57.40 420.08,58.14 421.10,53.64 422.12,58.49 423.14,59.14 424.16,57.58 425.18,57.20 426.20,53.54 427.22,57.46 428.24,58.07 429.26,56.83 430.28,57.49 431.30,53.53 432.32,58.46 433.34,56.37 434.36,58.92 435.38,53.96 436.40,58.55 437.42,56.18 438.44,58.19 439.46,53.85 440.48,58.70 441.50,57.16 442.52,58.07 443.54,53.77 444.56,58.73 445.58,56.42 446.60,57.53 447.62,54.11 448.64,58.52 449.66,57.08 450.68,58.28 451.70,54.57 452.72,58.77 453.74,57.31 454.76,58.35 455.78,54.21 456.80,58.12 457.82,57.06 458.84,57.84 459.86,53.80 460.88,57.21 461.90,55.61 462.92,56.57 463.94,53.58 464.96,58.78 465.98,56.72 467.00,52.85 468.02,56.54 469.04,56.70 470.06,57.39 471.08,53.10 472.10,57.01 473.12,55.15 474.14,56.19 475.16,52.93 476.18,57.37 477.20,55.73 478.22,56.89 479.24,53.03 480.26,56.12 481.28,55.92 482.30,56.47 483.32,53.34 484.34,56.89 485.36,57.36 486.38,56.39 487.40,56.39 488.42,53.32 489.44,56.26 490.46,56.76 491.48,56.92 492.50,53.75 493.52,55.79 494.54,54.98 495.56,56.02 496.58,53.55 497.60,57.36 498.62,55.98 499.64,56.44 500.66,53.82 501.68,56.96 502.70,57.20 503.72,57.20 504.74,53.66 505.76,56.53 506.78,55.68 507.80,56.21 508.82,53.49 509.84,57.49 510.86,56.20 511.88,56.23 512.90,53.69 513.92,56.66 514.94,56.12 515.96,58.28 516.98,53.95 518.00,57.67 519.02,56.17 520.04,58.29 521.06,53.48 522.08,56.85 523.10,55.37 524.12,57.60 525.14,53.36 526.16,58.19 527.18,56.45 528.20,57.77 529.22,53.57 530.24,57.67 531.26,55.68 532.28,57.28 533.30,54.11 534.32,57.04 535.34,56.49 536.36,57.03 537.38,53.37 538.40,56.15 539.42,55.73 540.44,56.61 541.46,53.55 542.48,56.52 543.50,55.91 544.52,56.62 545.54,53.10 546.56,56.48 547.58,55.52 548.60,57.15 549.62,53.00 550.64,55.44 551.66,55.45 552.68,56.63 553.70,53.14 554.72,55.67 555.74,55.59 556.76,56.94 557.78,53.90 558.80,56.51 559.82,55.92 560.84,56.19 561.86,53.38 562.88,56.11 563.90,55.35 564.92,56.84 565.94,53.82 566.96,57.72 567.98,56.41 569.00,57.38 570.02,54.09 571.04,57.14 572.06,56.42 573.08,56.89 574.10,53.74 575.12,56.25 576.14,55.96 577.16,55.85 578.18,53.58 579.20,56.21 580.22,55.77 581.24,56.72 582.26,53.49 583.28,55.85 584.30,55.67 585.32,54.91 586.34,53.54 587.36,55.10 588.38,55.18 589.40,55.50 590.42,52.96 591.44,56.28 592.46,55.16 593.48,55.23 594.50,52.33 595.52,55.33 596.54,54.94 597.56,55.58 598.58,52.70 599.60,55.48 600.62,54.81 601.64,55.66 602.66,52.62 603.68,55.69 604.70,54.72 605.72,56.17 606.74,52.03 607.76,56.84 608.78,55.02 609.80,51.80 610.82,56.75 611.84,57.94 612.86,57.14 613.88,58.69 614.90,53.22 615.92,57.01 616.94,55.20 617.96,56.70 618.98,52.97 620.00,57.64 621.02,55.40 622.04,56.51 623.06,52.64 624.08,56.28 625.10,55.44 626.12,56.72 627.14,52.39 628.16,55.99 629.18,55.13 630.20,55.70 631.22,52.57 632.24,56.92 633.27,58.33 634.29,57.01 635.31,57.70 636.33,52.89 637.35,57.52 638.37,57.38 639.39,57.50 640.41,58.23 641.43,54.21 642.45,57.46 643.47,57.34 644.49,56.44 645.51,57.13 646.53,50.35 647.55,55.66 648.57,57.86 649.59,56.90 650.61,57.05 651.63,52.62 652.65,56.67 653.67,56.25 654.69,56.90 655.71,53.13 656.73,57.75 657.75,56.65 658.77,56.91 659.79,53.64 660.81,57.01 661.83,56.44 662.85,58.01 663.87,53.82 664.89,56.66 665.91,55.72 666.93,57.57 667.95,53.04 668.97,57.03 669.99,55.91 671.01,57.76 672.03,53.60 673.05,58.28 674.07,56.14 675.09,57.97 676.11,53.71 677.13,57.46 678.15,55.98 679.17,57.39 680.19,53.23 681.21,57.35 682.23,56.38 683.25,58.55 684.27,53.95 685.29,59.05 686.31,56.38 687.33,57.71 688.35,52.58 689.37,57.31 690.39,55.96 691.41,52.31 692.43,58.32 693.45,55.82 694.47,57.84 695.49,53.22 696.51,57.73 697.53,56.71 698.55,57.44 699.57,53.27 700.59,56.65 701.61,56.26 702.63,56.58 703.65,53.37 704.67,55.71 705.69,55.86 706.71,56.43 707.73,53.28 708.75,56.44 709.77,56.17 710.79,56.35 711.81,53.34 712.83,56.46 713.85,56.11 714.87,56.32 715.89,53.92 716.91,56.22 717.93,55.99 718.95,56.66 719.97,54.01 720.99,56.10 722.01,55.45 723.03,55.78 724.05,53.25 725.07,55.13 726.09,55.20 727.11,55.43 728.13,53.90 729.15,56.15 730.17,56.80 731.19,56.46 732.21,56.89 733.23,53.68 734.25,55.07 735.27,54.98 736.29,55.69 737.31,53.23 738.33,56.26 739.35,55.67 740.37,55.90 741.39,52.48 742.41,54.80 743.43,55.05 744.45,55.02 745.47,52.97 746.49,57.20 747.51,55.92 748.53,57.29 749.55,53.05 750.57,56.31 751.59,55.61 752.61,56.55 753.63,53.70 754.65,56.22 755.67,55.89 756.69,56.67 757.71,53.29 758.73,56.18 759.75,55.13 760.77,56.97 761.79,53.36 762.81,57.18 763.83,55.91 764.85,57.96 765.87,53.61 766.89,57.47 767.91,55.72 768.93,56.76 769.95,53.57 770.97,56.94 771.99,55.86 773.01,56.76 774.03,52.60 775.05,56.49 776.07,55.28 777.09,55.48 778.11,52.65 779.13,55.85 780.15,55.14 781.17,52.84 782.19,55.92 783.21,55.33 784.23,56.27 785.25,53.08 786.27,56.79 787.29,56.01 788.31,57.16 789.33,53.04 790.35,56.44 791.37,56.05 792.39,56.26 793.41,52.61 794.43,55.74 795.45,57.75 796.47,56.55 797.49,57.51 798.51,52.57 799.53,55.21 800.55,55.43 801.57,56.11 802.59,53.06 803.61,55.86 804.63,55.10 805.65,55.59 806.67,52.91 807.69,55.22 808.71,55.74 809.73,56.69 810.75,53.83 811.77,57.92 812.79,55.89 813.81,58.14 814.83,52.43 815.85,57.16 816.87,55.02 817.89,56.93 818.91,52.53 819.93,56.78 820.95,55.28 821.97,56.53 822.99,52.49 824.01,56.46 825.03,55.68 826.05,57.06 827.07,52.37 828.09,57.62 829.11,55.22 830.13,56.57 831.15,51.94 832.17,57.32 833.19,55.56 834.21,57.30 835.23,53.43 836.25,57.64 837.27,55.96 838.29,57.25 839.31,53.21 840.33,57.51 841.35,55.63 842.37,56.63 843.39,53.38 844.41,57.16 845.43,56.19 846.45,56.37 847.47,53.17 848.49,56.41 849.51,55.75 850.53,57.77 851.55,53.36 852.57,55.74 853.59,55.83 854.61,53.40 855.63,57.22 856.65,57.76 857.67,57.03 858.69,56.15 859.71,53.40 860.73,56.02 861.76,54.82 862.78,55.83 863.80,53.03 864.82,55.36 865.84,55.65 866.86,55.82 867.88,53.40 868.90,56.40 869.92,55.38 870.94,56.31 871.96,54.12 872.98,56.74 874.00,56.11 875.02,57.59 876.04,55.49 877.06,58.42 878.08,57.29 879.10,48.95 880.12,49.80 881.14,50.56 882.16,50.96 883.18,51.12 884.20,51.54 885.22,51.66 886.24,51.86 887.26,51.56 888.28,51.46 889.30,51.60 890.32,51.74 891.34,51.47 892.36,51.70 893.38,51.79 894.40,51.71 895.42,51.74 896.44,51.35 897.46,51.55 898.48,51.64 899.50,51.67 900.52,51.37 901.54,51.57 902.56,51.59 903.58,51.56 904.60,51.25 905.62,51.61 906.64,51.61 907.66,51.68 908.68,51.26 909.70,51.64 910.72,51.65 911.74,51.57 912.76,51.28 913.78,51.40 914.80,51.43 915.82,51.36 916.84,51.94 917.86,51.86 918.88,51.98 919.90,52.02 920.92,51.78 921.94,51.80 922.96,51.65 923.98,51.68 925.00,51.50 926.02,51.43 927.04,51.40 928.06,51.48 929.08,51.15 930.10,51.33 931.12,51.28 932.14,51.28 933.16,50.97 934.18,51.04 935.20,51.18 936.22,51.00 937.24,50.78 938.26,51.15 939.28,51.17 940.30,51.40 941.32,50.92 942.34,51.54 943.36,51.49 944.38,51.62 945.40,51.27 946.42,51.46 947.44,51.49 948.46,51.52 949.48,50.77 950.50,51.36 951.52,51.32 952.54,51.33 953.56,50.86 954.58,51.27 955.60,51.36 956.62,51.81 957.64,50.73 958.66,51.79 959.68,51.78 960.70,51.74 961.72,50.83 962.74,51.54 963.76,52.00 964.78,52.24 965.80,51.85 966.82,51.16 967.84,51.25 968.86,51.48 969.88,51.52 970.90,51.35 971.92,52.28 972.94,53.02 973.96,52.66 974.98,52.91 976.00,53.35" fill="none" stroke="#0d6efd" stroke-width="2"/>
</svg>
