<svg xmlns="http://www.w3.org/2000/svg" width="1000" height="320" viewBox="0 0 1000 320">
  <rect width="100%" height="100%" fill="#ffffff"/>
  <text x="60" y="24" font-family="Arial" font-size="18" font-weight="bold">encoded_720p.mp4 - upscaled_3840x2160 VMAF Over Time</text>
  <text x="60" y="308" font-family="Arial" font-size="12" fill="#555">Mean=78.329 Min=61.785 Max=85.927</text>
  <line x1="60" y1="40" x2="60" y2="276" stroke="#333" stroke-width="1"/>
  <line x1="60" y1="276" x2="976" y2="276" stroke="#333" stroke-width="1"/>
  <line x1="60" y1="63.6" x2="976" y2="63.6" stroke="#ddd" stroke-width="1"/>
  <line x1="60" y1="87.2" x2="976" y2="87.2" stroke="#eee" stroke-width="1"/>
  <line x1="60" y1="158.0" x2="976" y2="158.0" stroke="#eee" stroke-width="1"/>
  <text x="12" y="44" font-family="Arial" font-size="12">100</text>
  <text x="20" y="67.6" font-family="Arial" font-size="12">90</text>
  <text x="20" y="91.2" font-family="Arial" font-size="12">80</text>
  <text x="20" y="162.0" font-family="Arial" font-size="12">50</text>
  <text x="60" y="300" font-family="Arial" font-size="12">00:00.000</text>
  <text x="924" y="300" font-family="Arial" font-size="12">00:14.982</text>
  <polyline points="60.00,111.80 61.02,117.04 62.04,121.52 63.06,125.65 64.08,130.19 65.10,130.05 66.12,127.17 67.14,124.83 68.16,120.54 69.18,124.76 70.20,121.56 71.22,119.62 72.24,116.52 73.26,116.02 74.28,113.21 75.30,112.71 76.32,104.81 77.34,107.27 78.36,102.66 79.38,102.98 80.40,95.05 81.42,97.31 82.44,97.28 83.46,96.99 84.48,94.59 85.50,96.80 86.52,96.85 87.54,94.38 88.56,91.36 89.58,93.88 90.60,94.11 91.62,93.45 92.64,90.63 93.66,92.23 94.68,92.17 95.70,91.35 96.72,87.84 97.74,89.28 98.76,89.28 99.78,88.80 100.80,86.89 101.82,88.16 102.84,88.10 103.86,87.98 104.88,85.79 105.90,87.66 106.92,87.13 107.94,87.89 108.96,85.63 109.98,88.11 111.00,87.51 112.02,87.51 113.04,84.67 114.06,87.65 115.08,86.50 116.10,87.28 117.12,84.15 118.14,86.45 119.16,86.91 120.18,85.54 121.20,88.45 122.22,88.12 123.24,87.98 124.26,87.54 125.28,84.40 126.30,86.78 127.32,87.18 128.34,88.29 129.36,86.08 130.38,88.28 131.40,86.54 132.42,86.56 133.44,84.11 134.46,86.48 135.48,87.27 136.50,79.64 137.52,89.01 138.54,92.20 139.56,90.19 140.58,91.22 141.60,83.08 142.62,88.23 143.64,87.69 144.66,90.13 145.68,84.05 146.70,90.45 147.72,88.68 148.74,91.52 149.76,85.42 150.78,92.87 151.80,90.93 152.82,91.96 153.84,88.19 154.86,93.19 155.88,92.65 156.90,93.76 157.92,88.62 158.94,93.54 159.96,92.23 160.98,93.02 162.00,88.43 163.02,93.14 164.04,91.13 165.06,91.97 166.08,87.55 167.10,91.98 168.12,92.67 169.14,92.97 170.16,89.45 171.18,92.38 172.20,91.52 173.22,92.78 174.24,89.60 175.27,94.77 176.29,93.58 177.31,94.91 178.33,89.03 179.35,94.57 180.37,93.79 181.39,93.52 182.41,89.85 183.43,94.23 184.45,93.67 185.47,93.35 186.49,90.41 187.51,92.82 188.53,93.87 189.55,94.14 190.57,90.89 191.59,95.31 192.61,94.21 193.63,95.00 194.65,90.45 195.67,94.58 196.69,93.91 197.71,94.71 198.73,90.27 199.75,93.89 200.77,93.64 201.79,93.82 202.81,88.13 203.83,92.47 204.85,90.13 205.87,92.78 206.89,86.26 207.91,91.60 208.93,87.80 209.95,90.34 210.97,82.95 211.99,89.73 213.01,87.45 214.03,91.76 215.05,84.90 216.07,93.29 217.09,89.44 218.11,92.79 219.13,83.75 220.15,90.15 221.17,87.08 222.19,87.69 223.21,81.53 224.23,88.31 225.25,87.02 226.27,88.10 227.29,82.11 228.31,90.36 229.33,89.17 230.35,89.72 231.37,86.70 232.39,92.15 233.41,91.37 234.43,94.95 235.45,87.59 236.47,95.50 237.49,93.82 238.51,97.05 239.53,87.10 240.55,95.17 241.57,89.83 242.59,93.31 243.61,84.04 244.63,92.95 245.65,91.02 246.67,95.84 247.69,88.03 248.71,95.35 249.73,93.67 250.75,96.50 251.77,88.82 252.79,97.72 253.81,92.89 254.83,96.54 255.85,87.42 256.87,95.11 257.89,90.83 258.91,93.72 259.93,85.50 260.95,92.76 261.97,88.00 262.99,89.91 264.01,81.85 265.03,89.42 266.05,86.64 267.07,91.35 268.09,85.46 269.11,95.31 270.13,92.01 271.15,94.47 272.17,87.93 273.19,95.53 274.21,94.25 275.23,96.10 276.25,87.99 277.27,96.44 278.29,90.28 279.31,90.83 280.33,84.85 281.35,92.20 282.37,90.01 283.39,90.45 284.41,82.60 285.43,89.49 286.45,87.26 287.47,91.07 288.49,83.08 289.51,90.04 290.53,89.54 291.55,91.22 292.57,83.17 293.59,92.81 294.61,92.16 295.63,94.71 296.65,88.89 297.67,97.96 298.69,98.45 299.71,94.12 300.73,95.84 301.75,87.58 302.77,97.58 303.79,103.01 304.81,97.60 305.83,98.92 306.85,89.77 307.87,95.72 308.89,93.74 309.91,95.17 310.93,88.21 311.95,94.13 312.97,94.35 313.99,94.22 315.01,86.95 316.03,92.63 317.05,91.12 318.07,92.19 319.09,84.35 320.11,93.55 321.13,92.18 322.15,94.90 323.17,86.59 324.19,95.73 325.21,92.43 326.23,93.95 327.25,86.20 328.27,93.89 329.29,90.99 330.31,94.15 331.33,84.39 332.35,92.51 333.37,89.26 334.39,92.48 335.41,84.59 336.43,94.33 337.45,96.96 338.47,94.54 339.49,98.46 340.51,88.93 341.53,97.40 342.55,93.29 343.57,96.50 344.59,86.04 345.61,95.68 346.63,90.17 347.65,94.05 348.67,84.62 349.69,92.29 350.71,89.52 351.73,94.25 352.75,90.50 353.77,100.41 354.79,95.83 355.81,100.37 356.83,92.54 357.85,98.29 358.87,93.87 359.89,96.42 360.91,86.79 361.93,93.21 362.95,90.99 363.97,94.10 364.99,84.83 366.01,94.61 367.03,97.36 368.05,98.03 369.07,101.78 370.09,91.11 371.11,99.85 372.13,96.85 373.15,99.70 374.17,89.62 375.19,98.29 376.21,100.15 377.23,96.37 378.25,100.29 379.27,89.44 380.29,100.98 381.31,94.96 382.33,99.67 383.35,88.56 384.37,95.87 385.39,91.88 386.41,94.91 387.43,85.73 388.45,90.31 389.47,86.38 390.49,90.47 391.51,76.03 392.53,87.84 393.55,88.47 394.57,90.52 395.59,83.37 396.61,93.64 397.63,91.73 398.65,97.33 399.67,88.23 400.69,96.34 401.71,94.31 402.73,99.33 403.76,90.65 404.78,98.17 405.80,95.67 406.82,98.50 407.84,89.17 408.86,98.25 409.88,95.02 410.90,97.32 411.92,89.05 412.94,99.17 413.96,95.57 414.98,100.31 416.00,88.69 417.02,98.84 418.04,100.97 419.06,95.72 420.08,98.90 421.10,89.52 422.12,98.36 423.14,98.24 424.16,94.21 425.18,93.95 426.20,85.62 427.22,94.32 428.24,95.50 429.26,94.72 430.28,98.52 431.30,91.00 432.32,99.78 433.34,93.98 434.36,99.93 435.38,88.21 436.40,98.60 437.42,93.25 438.44,98.63 439.46,89.56 440.48,99.45 441.50,96.17 442.52,98.98 443.54,89.00 444.56,99.99 445.58,95.52 446.60,98.75 447.62,89.14 448.64,97.94 449.66,94.78 450.68,97.41 451.70,89.50 452.72,97.27 453.74,94.89 454.76,98.54 455.78,87.73 456.80,95.14 457.82,91.02 458.84,93.53 459.86,84.89 460.88,93.76 461.90,89.10 462.92,90.10 463.94,83.73 464.96,93.25 465.98,90.25 467.00,91.49 468.02,100.36 469.04,96.55 470.06,97.02 471.08,87.58 472.10,93.97 473.12,88.50 474.14,92.01 475.16,83.13 476.18,92.98 477.20,87.98 478.22,92.45 479.24,83.72 480.26,91.42 481.28,90.39 482.30,91.31 483.32,83.53 484.34,91.48 485.36,93.94 486.38,91.71 487.40,93.18 488.42,88.08 489.44,95.01 490.46,94.78 491.48,95.91 492.50,88.76 493.52,93.26 494.54,91.48 495.56,92.43 496.58,86.44 497.60,94.27 498.62,92.16 499.64,93.64 500.66,88.39 501.68,95.37 502.70,95.66 503.72,96.83 504.74,88.91 505.76,95.02 506.78,92.77 507.80,93.96 508.82,87.13 509.84,94.51 510.86,92.40 511.88,94.07 512.90,88.57 513.92,95.75 514.94,94.11 515.96,98.64 516.98,89.49 518.00,95.21 519.02,90.96 520.04,95.06 521.06,84.69 522.08,93.58 523.10,90.80 524.12,96.94 525.14,87.38 526.16,96.79 527.18,91.50 528.20,93.03 529.22,83.35 530.24,92.39 531.26,88.03 532.28,91.67 533.30,88.62 534.32,97.16 535.34,94.09 536.36,94.56 537.38,86.60 538.40,93.11 539.42,91.69 540.44,95.16 541.46,87.48 542.48,94.60 543.50,93.54 544.52,95.20 545.54,87.88 546.56,95.75 547.58,92.73 548.60,95.99 549.62,86.77 550.64,94.43 551.66,92.53 552.68,95.31 553.70,88.38 554.72,94.36 555.74,94.27 556.76,97.28 557.78,90.71 558.80,96.76 559.82,93.73 560.84,94.91 561.86,86.56 562.88,92.54 563.90,90.17 564.92,94.34 565.94,86.70 566.96,95.19 567.98,92.59 569.00,96.61 570.02,89.97 571.04,97.32 572.06,95.73 573.08,97.26 574.10,89.90 575.12,94.93 576.14,92.93 577.16,92.91 578.18,88.09 579.20,93.63 580.22,92.90 581.24,95.94 582.26,89.50 583.28,95.08 584.30,94.15 585.32,93.92 586.34,90.02 587.36,94.56 588.38,92.87 589.40,94.12 590.42,88.06 591.44,95.34 592.46,90.85 593.48,91.26 594.50,85.25 595.52,91.44 596.54,89.28 597.56,92.02 598.58,86.30 599.60,92.29 600.62,88.85 601.64,91.79 602.66,84.30 603.68,92.24 604.70,88.47 605.72,91.34 606.74,80.86 607.76,90.63 608.78,86.69 609.80,79.23 610.82,92.07 611.84,98.29 612.86,97.16 613.88,99.63 614.90,87.10 615.92,93.56 616.94,87.68 617.96,90.46 618.98,82.86 620.00,91.05 621.02,87.13 622.04,89.16 623.06,80.73 624.08,89.22 625.10,86.31 626.12,88.99 627.14,81.79 628.16,88.84 629.18,86.91 630.20,87.74 631.22,80.70 632.24,89.74 633.27,90.57 634.29,89.61 635.31,93.04 636.33,83.06 637.35,92.81 638.37,95.63 639.39,94.71 640.41,96.86 641.43,90.29 642.45,96.64 643.47,94.91 644.49,91.39 645.51,93.55 646.53,78.88 647.55,91.87 648.57,95.73 649.59,93.22 650.61,94.53 651.63,85.36 652.65,94.06 653.67,91.19 654.69,94.99 655.71,87.55 656.73,97.40 657.75,95.21 658.77,97.31 659.79,89.51 660.81,97.67 661.83,94.82 662.85,98.45 663.87,90.30 664.89,97.32 665.91,94.37 666.93,98.25 667.95,88.18 668.97,96.39 669.99,90.62 671.01,95.76 672.03,85.73 673.05,95.97 674.07,90.52 675.09,94.59 676.11,86.51 677.13,97.17 678.15,92.14 679.17,95.99 680.19,88.30 681.21,97.05 682.23,94.72 683.25,99.63 684.27,91.35 685.29,101.37 686.31,96.67 687.33,98.47 688.35,87.01 689.37,95.95 690.39,92.43 691.41,85.21 692.43,95.59 693.45,91.63 694.47,97.19 695.49,87.91 696.51,96.32 697.53,93.75 698.55,96.73 699.57,88.63 700.59,96.15 701.61,93.17 702.63,95.53 703.65,88.80 704.67,94.75 705.69,94.79 706.71,97.48 707.73,90.46 708.75,96.55 709.77,96.21 710.79,96.27 711.81,90.75 712.83,95.26 713.85,94.71 714.87,95.68 715.89,89.75 716.91,95.08 717.93,93.34 718.95,94.74 719.97,89.42 720.99,99.46 722.01,97.23 723.03,97.79 724.05,92.38 725.07,95.86 726.09,95.28 727.11,95.22 728.13,91.93 729.15,96.51 730.17,97.66 731.19,97.90 732.21,98.06 733.23,92.01 734.25,95.87 735.27,94.96 736.29,96.54 737.31,91.36 738.33,97.36 739.35,95.54 740.37,96.24 741.39,88.60 742.41,93.30 743.43,91.82 744.45,92.35 745.47,87.10 746.49,96.76 747.51,94.21 748.53,96.99 749.55,88.28 750.57,96.10 751.59,94.30 752.61,96.89 753.63,89.98 754.65,96.40 755.67,94.10 756.69,95.99 757.71,88.52 758.73,95.96 759.75,91.57 760.77,96.22 761.79,87.85 762.81,95.50 763.83,93.33 764.85,97.48 765.87,88.15 766.89,96.95 767.91,94.00 768.93,96.46 769.95,89.49 770.97,96.36 771.99,90.56 773.01,91.89 774.03,82.85 775.05,89.88 776.07,86.04 777.09,87.07 778.11,80.74 779.13,86.16 780.15,84.26 781.17,79.04 782.19,85.32 783.21,83.71 784.23,85.34 785.25,81.73 786.27,92.07 787.29,90.04 788.31,93.03 789.33,85.27 790.35,92.01 791.37,90.62 792.39,91.14 793.41,82.06 794.43,90.66 795.45,92.49 796.47,90.28 797.49,94.84 798.51,87.00 799.53,93.13 800.55,92.91 801.57,94.67 802.59,87.97 803.61,94.07 804.63,92.59 805.65,94.08 806.67,87.91 807.69,94.50 808.71,94.19 809.73,95.45 810.75,89.31 811.77,97.77 812.79,94.13 813.81,98.50 814.83,86.23 815.85,95.45 816.87,91.21 817.89,95.33 818.91,87.31 819.93,96.38 820.95,92.45 821.97,96.21 822.99,85.63 824.01,93.11 825.03,90.68 826.05,92.96 827.07,83.45 828.09,94.42 829.11,88.92 830.13,91.67 831.15,83.87 832.17,93.88 833.19,88.89 834.21,96.16 835.23,89.52 836.25,99.15 837.27,96.33 838.29,100.67 839.31,90.98 840.33,97.38 841.35,91.25 842.37,94.19 843.39,84.06 844.41,95.41 845.43,91.69 846.45,93.80 847.47,86.70 848.49,94.75 849.51,93.42 850.53,96.85 851.55,88.74 852.57,93.94 853.59,93.74 854.61,89.16 855.63,98.24 856.65,97.81 857.67,96.03 858.69,95.84 859.71,89.54 860.73,95.45 861.76,93.99 862.78,94.53 863.80,89.07 864.82,95.08 865.84,93.78 866.86,94.13 867.88,89.50 868.90,95.18 869.92,93.66 870.94,95.86 871.96,90.14 872.98,96.73 874.00,95.84 875.02,99.11 876.04,94.80 877.06,100.83 878.08,97.91 879.10,73.21 880.12,75.84 881.14,76.63 882.16,77.13 883.18,77.12 884.20,78.14 885.22,78.19 886.24,78.20 887.26,78.17 888.28,78.30 889.30,78.56 890.32,79.13 891.34,78.52 892.36,78.79 893.38,79.07 894.40,78.62 895.42,78.87 896.44,78.29 897.46,78.56 898.48,78.49 899.50,77.76 900.52,77.12 901.54,77.34 902.56,77.46 903.58,77.61 904.60,77.22 905.62,78.86 906.64,78.58 907.66,78.81 908.68,78.10 909.70,78.82 910.72,78.73 911.74,78.67 912.76,78.00 913.78,78.16 914.80,78.15 915.82,78.27 916.84,78.93 917.86,78.92 918.88,78.98 919.90,78.89 920.92,78.42 921.94,78.45 922.96,78.67 923.98,78.51 925.00,77.98 926.02,77.90 927.04,77.93 928.06,77.92 929.08,77.61 930.10,77.96 931.12,77.77 932.14,77.95 933.16,77.61 934.18,77.85 935.20,78.01 936.22,77.38 937.24,76.93 938.26,77.54 939.28,77.84 940.30,77.55 941.32,76.88 942.34,77.87 943.36,77.76 944.38,77.60 945.40,77.18 946.42,78.00 947.44,78.13 948.46,77.62 949.48,76.57 950.50,76.85 951.52,77.34 952.54,77.28 953.56,77.11 954.58,77.94 955.60,78.61 956.62,78.77 957.64,77.03 958.66,78.30 959.68,78.45 960.70,78.70 961.72,77.24 962.74,78.27 963.76,79.30 964.78,79.36 965.80,78.90 966.82,77.99 967.84,78.60 968.86,79.16 969.88,79.32 970.90,78.78 971.92,80.65 972.94,82.10 973.96,81.72 974.98,86.53 976.00,86.23" fill="none" stroke="#0d6efd" stroke-width="2"/>
</svg>
