<svg xmlns="http://www.w3.org/2000/svg" width="1000" height="320" viewBox="0 0 1000 320">
  <rect width="100%" height="100%" fill="#ffffff"/>
  <text x="60" y="24" font-family="Arial" font-size="18" font-weight="bold">encoded_1080p.mp4 - native VMAF Over Time</text>
  <text x="60" y="308" font-family="Arial" font-size="12" fill="#555">Mean=93.162 Min=83.348 Max=96.067</text>
  <line x1="60" y1="40" x2="60" y2="276" stroke="#333" stroke-width="1"/>
  <line x1="60" y1="276" x2="976" y2="276" stroke="#333" stroke-width="1"/>
  <line x1="60" y1="63.6" x2="976" y2="63.6" stroke="#ddd" stroke-width="1"/>
  <line x1="60" y1="87.2" x2="976" y2="87.2" stroke="#eee" stroke-width="1"/>
  <line x1="60" y1="158.0" x2="976" y2="158.0" stroke="#eee" stroke-width="1"/>
  <text x="12" y="44" font-family="Arial" font-size="12">100</text>
  <text x="20" y="67.6" font-family="Arial" font-size="12">90</text>
  <text x="20" y="91.2" font-family="Arial" font-size="12">80</text>
  <text x="20" y="162.0" font-family="Arial" font-size="12">50</text>
  <text x="60" y="300" font-family="Arial" font-size="12">00:00.000</text>
  <text x="924" y="300" font-family="Arial" font-size="12">00:14.982</text>
  <polyline points="60.00,69.79 61.02,72.48 62.04,74.78 63.06,78.12 64.08,78.63 65.10,78.58 66.12,77.70 67.14,77.32 68.16,76.00 69.18,79.30 70.20,75.70 71.22,75.67 72.24,71.70 73.26,72.03 74.28,69.83 75.30,68.61 76.32,63.44 77.34,65.70 78.36,64.17 79.38,64.78 80.40,60.78 81.42,62.54 82.44,61.83 83.46,61.49 84.48,59.14 85.50,61.53 86.52,60.88 87.54,60.31 88.56,58.10 89.58,59.46 90.60,59.32 91.62,58.76 92.64,57.00 93.66,58.92 94.68,58.68 95.70,58.62 96.72,56.48 97.74,57.63 98.76,57.37 99.78,57.46 100.80,56.03 101.82,57.23 102.84,57.52 103.86,57.58 104.88,55.39 105.90,57.39 106.92,56.88 107.94,56.73 108.96,54.77 109.98,55.98 111.00,56.05 112.02,55.77 113.04,54.28 114.06,55.71 115.08,55.76 116.10,56.15 117.12,54.63 118.14,55.67 119.16,55.47 120.18,55.59 121.20,53.74 122.22,55.02 123.24,55.43 124.26,55.71 125.28,54.05 126.30,55.75 127.32,55.65 128.34,56.19 129.36,54.47 130.38,55.16 131.40,54.78 132.42,55.15 133.44,53.54 134.46,54.78 135.48,54.63 136.50,50.46 137.52,56.31 138.54,57.33 139.56,56.62 140.58,57.39 141.60,53.11 142.62,56.78 143.64,55.81 144.66,56.87 145.68,53.32 146.70,56.28 147.72,56.01 148.74,57.12 149.76,53.21 150.78,57.21 151.80,56.10 152.82,57.54 153.84,54.11 154.86,57.28 155.88,56.38 156.90,57.17 157.92,53.50 158.94,57.21 159.96,56.17 160.98,56.82 162.00,53.65 163.02,56.62 164.04,55.65 165.06,56.03 166.08,53.48 167.10,56.42 168.12,56.04 169.14,56.39 170.16,53.41 171.18,56.01 172.20,55.91 173.22,56.12 174.24,53.54 175.27,56.17 176.29,55.96 177.31,56.48 178.33,53.14 179.35,56.20 180.37,56.35 181.39,56.60 182.41,53.29 183.43,56.24 184.45,55.88 185.47,55.92 186.49,53.55 187.51,55.51 188.53,55.89 189.55,55.89 190.57,53.85 191.59,55.90 192.61,55.61 193.63,56.41 194.65,53.10 195.67,55.59 196.69,55.63 197.71,55.92 198.73,53.31 199.75,55.03 200.77,54.89 201.79,55.70 202.81,52.20 203.83,55.60 204.85,54.19 205.87,55.58 206.89,51.67 207.91,55.27 208.93,54.55 209.95,55.95 210.97,51.58 211.99,56.45 213.01,54.33 214.03,56.30 215.05,51.87 216.07,55.74 217.09,54.42 218.11,55.30 219.13,51.43 220.15,55.33 221.17,53.88 222.19,54.57 223.21,51.56 224.23,55.73 225.25,54.41 226.27,56.04 227.29,51.49 228.31,56.21 229.33,55.24 230.35,56.55 231.37,52.46 232.39,55.49 233.41,54.89 234.43,56.33 235.45,52.45 236.47,55.98 237.49,55.46 238.51,56.56 239.53,52.22 240.55,56.07 241.57,54.69 242.59,56.70 243.61,51.71 244.63,56.31 245.65,54.89 246.67,56.55 247.69,52.58 248.71,57.56 249.73,55.81 250.75,57.58 251.77,52.51 252.79,57.38 253.81,56.37 254.83,57.54 255.85,52.75 256.87,56.30 257.89,55.02 258.91,56.52 259.93,52.33 260.95,56.87 261.97,54.40 262.99,56.40 264.01,51.55 265.03,56.54 266.05,55.12 267.07,57.02 268.09,52.80 269.11,56.85 270.13,55.42 271.15,57.46 272.17,53.05 273.19,56.64 274.21,55.36 275.23,56.35 276.25,53.20 277.27,56.86 278.29,55.41 279.31,57.46 280.33,52.87 281.35,56.97 282.37,55.17 283.39,56.14 284.41,52.71 285.43,56.95 286.45,55.73 287.47,56.19 288.49,52.33 289.51,56.39 290.53,55.35 291.55,56.82 292.57,52.31 293.59,56.51 294.61,55.32 295.63,56.88 296.65,53.17 297.67,57.75 298.69,56.35 299.71,57.05 300.73,52.73 301.75,56.90 302.77,56.10 303.79,56.94 304.81,52.88 305.83,57.32 306.85,55.95 307.87,57.26 308.89,53.26 309.91,57.13 310.93,55.84 311.95,56.84 312.97,53.22 313.99,56.36 315.01,55.74 316.03,56.38 317.05,52.53 318.07,56.68 319.09,55.75 320.11,57.22 321.13,52.76 322.15,57.22 323.17,55.41 324.19,57.44 325.21,53.05 326.23,57.24 327.25,56.82 328.27,58.15 329.29,52.72 330.31,57.39 331.33,56.09 332.35,57.98 333.37,53.31 334.39,57.28 335.41,56.48 336.43,57.90 337.45,53.87 338.47,58.04 339.49,56.49 340.51,58.38 341.53,54.47 342.55,59.03 343.57,56.81 344.59,58.84 345.61,54.31 346.63,58.66 347.65,56.94 348.67,54.06 349.69,59.68 350.71,57.01 351.73,59.98 352.75,54.29 353.77,58.55 354.79,57.14 355.81,58.48 356.83,54.68 357.85,59.09 358.87,56.85 359.89,58.43 360.91,53.87 361.93,58.02 362.95,57.33 363.97,58.11 364.99,53.76 366.01,59.32 367.03,59.59 368.05,58.06 369.07,58.85 370.09,54.08 371.11,59.49 372.13,57.03 373.15,59.17 374.17,53.36 375.19,58.97 376.21,58.94 377.23,57.73 378.25,59.74 379.27,54.91 380.29,59.57 381.31,57.73 382.33,59.81 383.35,54.79 384.37,58.79 385.39,57.15 386.41,58.96 387.43,55.40 388.45,57.34 389.47,55.53 390.49,56.92 391.51,49.63 392.53,55.41 393.55,54.84 394.57,56.67 395.59,52.50 396.61,57.60 397.63,56.35 398.65,58.53 399.67,53.75 400.69,58.03 401.71,56.76 402.73,58.83 403.76,53.84 404.78,58.05 405.80,56.59 406.82,58.65 407.84,54.00 408.86,58.33 409.88,56.13 410.90,57.62 411.92,53.50 412.94,58.04 413.96,56.88 414.98,60.12 416.00,54.10 417.02,59.56 418.04,57.62 419.06,59.40 420.08,53.90 421.10,58.84 422.12,56.94 423.14,59.07 424.16,53.97 425.18,58.63 426.20,57.66 427.22,53.55 428.24,58.12 429.26,56.16 430.28,57.97 431.30,53.80 432.32,59.19 433.34,56.61 434.36,58.84 435.38,53.91 436.40,59.96 437.42,56.83 438.44,59.27 439.46,54.24 440.48,59.62 441.50,58.78 442.52,59.33 443.54,54.01 444.56,58.83 445.58,57.27 446.60,58.45 447.62,54.35 448.64,58.81 449.66,58.30 450.68,59.07 451.70,54.93 452.72,60.45 453.74,58.14 454.76,60.97 455.78,54.33 456.80,58.71 457.82,56.67 458.84,57.86 459.86,53.35 460.88,58.14 461.90,56.60 462.92,58.91 463.94,53.91 464.96,59.67 465.98,58.10 467.00,54.31 468.02,58.47 469.04,56.78 470.06,58.47 471.08,53.30 472.10,57.92 473.12,55.80 474.14,57.13 475.16,53.05 476.18,57.24 477.20,55.95 478.22,57.67 479.24,53.32 480.26,57.97 481.28,56.58 482.30,57.60 483.32,53.01 484.34,57.99 485.36,58.88 486.38,58.38 487.40,58.43 488.42,53.61 489.44,57.73 490.46,57.50 491.48,57.50 492.50,53.32 493.52,56.80 494.54,56.12 495.56,56.82 496.58,53.51 497.60,57.24 498.62,56.49 499.64,57.10 500.66,53.68 501.68,58.13 502.70,56.91 503.72,58.07 504.74,53.84 505.76,57.53 506.78,56.40 507.80,56.99 508.82,53.40 509.84,57.75 510.86,56.69 511.88,58.22 512.90,54.26 513.92,59.21 514.94,57.09 515.96,59.95 516.98,54.68 518.00,57.81 519.02,56.13 520.04,58.71 521.06,53.53 522.08,58.78 523.10,56.77 524.12,58.41 525.14,53.47 526.16,58.86 527.18,55.63 528.20,57.93 529.22,53.57 530.24,58.45 531.26,56.57 532.28,58.88 533.30,54.14 534.32,58.21 535.34,56.97 536.36,57.80 537.38,53.71 538.40,57.22 539.42,55.82 540.44,57.70 541.46,53.54 542.48,58.23 543.50,56.98 544.52,58.20 545.54,53.58 546.56,57.73 547.58,56.27 548.60,57.83 549.62,53.19 550.64,57.54 551.66,56.64 552.68,58.05 553.70,53.70 554.72,57.28 555.74,56.20 556.76,57.44 557.78,54.37 558.80,57.64 559.82,56.19 560.84,56.99 561.86,53.36 562.88,56.99 563.90,55.94 564.92,57.37 565.94,53.71 566.96,57.70 567.98,56.24 569.00,58.04 570.02,54.36 571.04,57.98 572.06,56.63 573.08,57.62 574.10,53.92 575.12,57.78 576.14,56.48 577.16,57.34 578.18,53.45 579.20,56.90 580.22,56.34 581.24,57.46 582.26,53.30 583.28,57.27 584.30,56.07 585.32,55.87 586.34,53.30 587.36,56.28 588.38,55.66 589.40,56.77 590.42,52.85 591.44,56.93 592.46,55.81 593.48,56.65 594.50,52.55 595.52,55.67 596.54,55.33 597.56,56.33 598.58,53.20 599.60,57.49 600.62,55.60 601.64,57.26 602.66,52.47 603.68,56.48 604.70,54.94 605.72,57.12 606.74,52.33 607.76,57.59 608.78,54.95 609.80,57.38 610.82,53.27 611.84,58.19 612.86,57.08 613.88,59.03 614.90,53.35 615.92,58.07 616.94,55.42 617.96,58.08 618.98,52.56 620.00,57.41 621.02,54.87 622.04,57.14 623.06,52.78 624.08,57.18 625.10,55.53 626.12,56.97 627.14,52.38 628.16,58.26 629.18,56.01 630.20,57.35 631.22,52.91 632.24,57.49 633.27,56.63 634.29,57.89 635.31,53.66 636.33,58.12 637.35,56.45 638.37,58.43 639.39,54.04 640.41,57.89 641.43,56.24 642.45,58.58 643.47,54.73 644.49,57.53 645.51,55.49 646.53,49.93 647.55,57.01 648.57,58.30 649.59,57.46 650.61,58.53 651.63,53.33 652.65,57.88 653.67,56.26 654.69,58.02 655.71,53.98 656.73,58.82 657.75,56.68 658.77,59.90 659.79,53.88 660.81,58.60 661.83,56.84 662.85,59.17 663.87,54.18 664.89,58.36 665.91,56.61 666.93,59.61 667.95,53.93 668.97,57.66 669.99,55.66 671.01,56.98 672.03,53.33 673.05,59.34 674.07,57.01 675.09,58.95 676.11,54.17 677.13,59.69 678.15,57.09 679.17,59.20 680.19,53.72 681.21,58.16 682.23,56.86 683.25,58.88 684.27,54.23 685.29,59.29 686.31,57.00 687.33,59.20 688.35,53.24 689.37,58.19 690.39,56.15 691.41,52.17 692.43,57.28 693.45,55.59 694.47,58.00 695.49,52.82 696.51,57.72 697.53,56.10 698.55,58.13 699.57,53.05 700.59,57.74 701.61,56.71 702.63,57.22 703.65,53.30 704.67,56.29 705.69,56.53 706.71,57.94 707.73,53.41 708.75,57.41 709.77,56.88 710.79,57.28 711.81,53.50 712.83,57.35 713.85,56.48 714.87,57.17 715.89,53.40 716.91,56.45 717.93,56.11 718.95,57.66 719.97,53.77 720.99,58.30 722.01,56.70 723.03,56.56 724.05,53.19 725.07,55.98 726.09,55.58 727.11,55.80 728.13,53.34 729.15,57.03 730.17,57.34 731.19,56.67 732.21,56.90 733.23,53.30 734.25,56.65 735.27,56.30 736.29,57.11 737.31,53.17 738.33,56.82 739.35,56.08 740.37,57.83 741.39,52.98 742.41,56.42 743.43,55.08 744.45,56.29 745.47,52.74 746.49,56.63 747.51,56.13 748.53,58.94 749.55,53.22 750.57,57.25 751.59,56.48 752.61,57.35 753.63,53.34 754.65,56.46 755.67,56.04 756.69,57.58 757.71,53.40 758.73,57.19 759.75,56.30 760.77,58.27 761.79,53.24 762.81,57.10 763.83,56.21 764.85,58.29 765.87,53.50 766.89,56.98 767.91,56.41 768.93,57.75 769.95,53.57 770.97,57.29 771.99,55.32 773.01,56.93 774.03,52.69 775.05,56.52 776.07,55.07 777.09,55.74 778.11,52.22 779.13,56.92 780.15,55.33 781.17,52.28 782.19,55.89 783.21,55.24 784.23,56.88 785.25,52.94 786.27,57.94 787.29,58.36 788.31,56.73 789.33,58.42 790.35,52.98 791.37,56.82 792.39,55.76 793.41,57.04 794.43,52.48 795.45,56.98 796.47,55.83 797.49,57.01 798.51,53.32 799.53,56.88 800.55,55.80 801.57,56.98 802.59,53.48 803.61,56.18 804.63,56.34 805.65,57.01 806.67,53.20 807.69,56.73 808.71,55.83 809.73,57.33 810.75,53.41 811.77,57.21 812.79,55.89 813.81,58.18 814.83,52.56 815.85,58.00 816.87,55.74 817.89,58.11 818.91,53.11 819.93,57.21 820.95,55.67 821.97,57.31 822.99,52.75 824.01,57.61 825.03,55.70 826.05,57.63 827.07,52.92 828.09,57.54 829.11,55.02 830.13,57.08 831.15,52.78 832.17,57.91 833.19,55.66 834.21,58.29 835.23,53.58 836.25,58.25 837.27,56.29 838.29,58.67 839.31,53.44 840.33,58.10 841.35,56.25 842.37,58.67 843.39,53.30 844.41,57.91 845.43,55.70 846.45,57.66 847.47,53.35 848.49,57.40 849.51,56.18 850.53,57.05 851.55,53.71 852.57,56.79 853.59,56.30 854.61,57.63 855.63,53.45 856.65,57.06 857.67,56.67 858.69,56.41 859.71,53.30 860.73,56.49 861.76,56.15 862.78,56.25 863.80,53.11 864.82,56.17 865.84,55.85 866.86,57.11 867.88,53.26 868.90,56.56 869.92,55.86 870.94,56.82 871.96,53.45 872.98,57.81 874.00,56.59 875.02,58.02 876.04,55.12 877.06,58.10 878.08,56.79 879.10,49.28 880.12,50.91 881.14,51.59 882.16,51.99 883.18,51.41 884.20,52.77 885.22,52.70 886.24,52.95 887.26,52.25 888.28,52.50 889.30,52.59 890.32,52.77 891.34,52.22 892.36,52.70 893.38,52.96 894.40,52.88 895.42,52.86 896.44,52.05 897.46,52.20 898.48,52.43 899.50,52.68 900.52,52.10 901.54,52.62 902.56,52.75 903.58,52.78 904.60,51.97 905.62,52.66 906.64,52.55 907.66,52.69 908.68,52.13 909.70,52.75 910.72,52.53 911.74,53.03 912.76,51.95 913.78,52.22 914.80,52.40 915.82,52.12 916.84,52.90 917.86,52.82 918.88,52.89 919.90,52.97 920.92,51.80 921.94,52.28 922.96,52.30 923.98,52.35 925.00,51.76 926.02,52.29 927.04,52.14 928.06,52.33 929.08,51.43 930.10,51.82 931.12,51.91 932.14,51.86 933.16,51.62 934.18,52.13 935.20,52.39 936.22,52.12 937.24,51.51 938.26,52.02 939.28,52.03 940.30,52.37 941.32,51.53 942.34,51.80 943.36,51.86 944.38,51.90 945.40,51.51 946.42,52.84 947.44,53.09 948.46,53.12 949.48,51.22 950.50,52.20 951.52,52.41 952.54,52.02 953.56,51.14 954.58,51.86 955.60,52.14 956.62,52.11 957.64,50.92 958.66,52.41 959.68,52.49 960.70,52.46 961.72,50.97 962.74,51.87 963.76,52.62 964.78,52.66 965.80,52.64 966.82,51.65 967.84,52.45 968.86,52.90 969.88,52.96 970.90,52.37 971.92,54.09 972.94,53.91 973.96,54.65 974.98,56.06 976.00,55.22" fill="none" stroke="#0d6efd" stroke-width="2"/>
</svg>
