<svg xmlns="http://www.w3.org/2000/svg" width="1000" height="320" viewBox="0 0 1000 320">
  <rect width="100%" height="100%" fill="#ffffff"/>
  <text x="60" y="24" font-family="Arial" font-size="18" font-weight="bold">encoded_1080p.mp4 - native VMAF Over Time</text>
  <text x="60" y="308" font-family="Arial" font-size="12" fill="#555">Mean=94.116 Min=83.346 Max=96.566</text>
  <line x1="60" y1="40" x2="60" y2="276" stroke="#333" stroke-width="1"/>
  <line x1="60" y1="276" x2="976" y2="276" stroke="#333" stroke-width="1"/>
  <line x1="60" y1="63.6" x2="976" y2="63.6" stroke="#ddd" stroke-width="1"/>
  <line x1="60" y1="87.2" x2="976" y2="87.2" stroke="#eee" stroke-width="1"/>
  <line x1="60" y1="158.0" x2="976" y2="158.0" stroke="#eee" stroke-width="1"/>
  <text x="12" y="44" font-family="Arial" font-size="12">100</text>
  <text x="20" y="67.6" font-family="Arial" font-size="12">90</text>
  <text x="20" y="91.2" font-family="Arial" font-size="12">80</text>
  <text x="20" y="162.0" font-family="Arial" font-size="12">50</text>
  <text x="60" y="300" font-family="Arial" font-size="12">00:00.000</text>
  <text x="924" y="300" font-family="Arial" font-size="12">00:14.982</text>
  <polyline points="60.00,69.79 61.02,72.48 62.04,74.78 63.06,78.12 64.08,78.63 65.10,78.58 66.12,77.70 67.14,77.32 68.16,76.00 69.18,79.30 70.20,75.70 71.22,75.68 72.24,71.70 73.26,71.56 74.28,69.55 75.30,68.08 76.32,62.78 77.34,63.42 78.36,61.32 79.38,60.25 80.40,55.86 81.42,57.12 82.44,57.08 83.46,56.73 84.48,54.54 85.50,57.35 86.52,56.56 87.54,56.32 88.56,53.44 89.58,55.39 90.60,55.23 91.62,55.00 92.64,53.34 93.66,55.23 94.68,55.18 95.70,55.36 96.72,52.71 97.74,54.11 98.76,54.15 99.78,54.48 100.80,52.68 101.82,54.26 102.84,54.04 103.86,54.71 104.88,51.99 105.90,53.91 106.92,53.97 107.94,53.94 108.96,51.67 109.98,53.73 111.00,53.49 112.02,53.46 113.04,51.73 114.06,53.54 115.08,53.77 116.10,54.11 117.12,51.96 118.14,53.62 119.16,53.62 120.18,53.80 121.20,51.98 122.22,53.47 123.24,53.58 124.26,54.49 125.28,51.93 126.30,53.97 127.32,53.82 128.34,54.44 129.36,52.17 130.38,53.34 131.40,52.93 132.42,53.15 133.44,51.37 134.46,53.07 135.48,53.01 136.50,48.72 137.52,53.95 138.54,54.32 139.56,53.81 140.58,54.58 141.60,50.66 142.62,54.28 143.64,53.44 144.66,54.68 145.68,51.39 146.70,55.00 147.72,53.75 148.74,54.51 149.76,51.28 150.78,54.89 151.80,54.15 152.82,54.94 153.84,51.49 154.86,54.63 155.88,53.98 156.90,54.49 157.92,51.40 158.94,53.96 159.96,53.53 160.98,54.66 162.00,51.64 163.02,54.87 164.04,53.62 165.06,54.43 166.08,51.33 167.10,54.34 168.12,53.82 169.14,54.28 170.16,51.72 171.18,54.12 172.20,53.46 173.22,53.92 174.24,51.45 175.27,54.45 176.29,53.62 177.31,53.76 178.33,51.43 179.35,54.13 180.37,53.42 181.39,54.33 182.41,51.15 183.43,53.91 184.45,53.64 185.47,54.03 186.49,51.45 187.51,53.54 188.53,53.82 189.55,53.84 190.57,51.73 191.59,53.92 192.61,53.54 193.63,54.33 194.65,51.39 195.67,54.00 196.69,53.69 197.71,54.21 198.73,51.63 199.75,54.11 200.77,53.44 201.79,53.87 202.81,50.49 203.83,53.11 204.85,52.57 205.87,53.77 206.89,50.16 207.91,53.90 208.93,52.64 209.95,53.84 210.97,50.10 211.99,54.19 213.01,52.71 214.03,53.88 215.05,50.32 216.07,53.82 217.09,52.66 218.11,54.12 219.13,50.01 220.15,53.68 221.17,51.82 222.19,53.19 223.21,49.98 224.23,53.72 225.25,52.21 226.27,53.88 227.29,49.96 228.31,53.77 229.33,52.30 230.35,53.99 231.37,50.40 232.39,53.88 233.41,52.84 234.43,54.72 235.45,50.49 236.47,54.04 237.49,53.01 238.51,54.49 239.53,50.43 240.55,54.13 241.57,52.25 242.59,53.61 243.61,49.62 244.63,54.08 245.65,52.55 246.67,54.87 247.69,51.21 248.71,55.17 249.73,54.29 250.75,55.43 251.77,50.87 252.79,54.93 253.81,53.67 254.83,55.02 255.85,50.64 256.87,53.80 257.89,53.14 258.91,54.38 259.93,50.38 260.95,54.21 261.97,52.59 262.99,53.75 264.01,49.43 265.03,53.80 266.05,52.70 267.07,53.96 268.09,50.48 269.11,54.74 270.13,52.80 271.15,54.78 272.17,51.01 273.19,55.10 274.21,53.38 275.23,54.71 276.25,51.16 277.27,54.75 278.29,53.10 279.31,54.22 280.33,50.81 281.35,54.26 282.37,52.97 283.39,53.97 284.41,50.50 285.43,54.83 286.45,53.21 287.47,54.25 288.49,50.30 289.51,54.03 290.53,53.00 291.55,54.12 292.57,50.33 293.59,54.63 294.61,53.59 295.63,54.16 296.65,50.90 297.67,54.83 298.69,53.72 299.71,54.75 300.73,50.72 301.75,54.42 302.77,54.04 303.79,54.76 304.81,50.84 305.83,55.08 306.85,53.59 307.87,55.23 308.89,50.79 309.91,54.32 310.93,53.38 311.95,53.98 312.97,50.91 313.99,54.44 315.01,53.53 316.03,54.21 317.05,50.76 318.07,54.10 319.09,52.96 320.11,55.31 321.13,51.12 322.15,54.73 323.17,53.25 324.19,55.04 325.21,51.15 326.23,55.53 327.25,54.01 328.27,55.57 329.29,51.09 330.31,54.59 331.33,53.14 332.35,55.70 333.37,51.33 334.39,54.81 335.41,54.00 336.43,55.97 337.45,51.88 338.47,55.72 339.49,54.24 340.51,55.56 341.53,52.21 342.55,56.35 343.57,54.58 344.59,56.09 345.61,52.12 346.63,55.58 347.65,54.92 348.67,51.60 349.69,56.18 350.71,54.09 351.73,56.99 352.75,51.62 353.77,55.96 354.79,54.81 355.81,56.01 356.83,52.28 357.85,55.74 358.87,54.29 359.89,55.95 360.91,51.63 361.93,55.41 362.95,54.27 363.97,55.87 364.99,51.63 366.01,56.57 367.03,56.09 368.05,55.47 369.07,56.16 370.09,51.99 371.11,56.50 372.13,54.33 373.15,56.65 374.17,51.02 375.19,55.34 376.21,55.76 377.23,55.37 378.25,56.64 379.27,51.91 380.29,56.78 381.31,55.04 382.33,56.51 383.35,52.10 384.37,55.55 385.39,54.53 386.41,56.05 387.43,52.18 388.45,54.90 389.47,53.22 390.49,53.69 391.51,48.10 392.53,53.10 393.55,52.55 394.57,54.65 395.59,50.77 396.61,55.20 397.63,53.95 398.65,55.63 399.67,51.12 400.69,55.68 401.71,54.27 402.73,55.54 403.76,51.51 404.78,55.63 405.80,54.15 406.82,56.07 407.84,51.58 408.86,55.87 409.88,53.62 410.90,55.03 411.92,51.35 412.94,56.16 413.96,54.40 414.98,56.72 416.00,51.92 417.02,55.43 418.04,54.58 419.06,55.91 420.08,51.84 421.10,56.33 422.12,53.93 423.14,55.80 424.16,51.54 425.18,55.63 426.20,54.81 427.22,51.23 428.24,56.03 429.26,53.52 430.28,55.77 431.30,51.26 432.32,55.48 433.34,53.19 434.36,55.12 435.38,51.16 436.40,55.97 437.42,54.05 438.44,56.11 439.46,51.71 440.48,56.28 441.50,54.56 442.52,56.90 443.54,51.59 444.56,55.69 445.58,54.14 446.60,56.37 447.62,51.84 448.64,55.94 449.66,54.69 450.68,55.82 451.70,52.62 452.72,56.81 453.74,54.79 454.76,56.72 455.78,51.89 456.80,55.41 457.82,53.63 458.84,55.27 459.86,51.07 460.88,55.57 461.90,53.87 462.92,55.28 463.94,51.72 464.96,56.65 465.98,55.84 467.00,51.51 468.02,55.33 469.04,54.09 470.06,55.78 471.08,51.14 472.10,54.63 473.12,53.16 474.14,54.17 475.16,50.60 476.18,55.08 477.20,53.41 478.22,55.02 479.24,50.98 480.26,54.91 481.28,54.45 482.30,54.97 483.32,51.07 484.34,55.75 485.36,56.14 486.38,55.57 487.40,56.53 488.42,51.57 489.44,55.46 490.46,54.43 491.48,55.80 492.50,51.34 493.52,55.10 494.54,54.16 495.56,54.88 496.58,51.17 497.60,55.26 498.62,54.40 499.64,54.96 500.66,51.54 501.68,55.58 502.70,54.39 503.72,55.67 504.74,51.72 505.76,55.14 506.78,54.58 507.80,55.80 508.82,51.31 509.84,55.34 510.86,54.12 511.88,55.69 512.90,51.93 513.92,56.44 514.94,54.53 515.96,56.56 516.98,52.06 518.00,55.57 519.02,53.75 520.04,55.39 521.06,51.62 522.08,55.76 523.10,53.80 524.12,55.30 525.14,51.22 526.16,55.43 527.18,53.83 528.20,55.74 529.22,51.29 530.24,55.36 531.26,53.67 532.28,56.00 533.30,51.82 534.32,55.50 535.34,54.38 536.36,55.20 537.38,51.15 538.40,54.80 539.42,53.49 540.44,55.82 541.46,51.79 542.48,55.87 543.50,54.22 544.52,55.47 545.54,51.47 546.56,55.09 547.58,53.85 548.60,55.08 549.62,51.35 550.64,55.35 551.66,54.30 552.68,55.66 553.70,51.82 554.72,55.19 555.74,53.94 556.76,55.90 557.78,52.12 558.80,55.41 559.82,54.07 560.84,55.09 561.86,51.43 562.88,55.16 563.90,54.12 564.92,55.43 565.94,51.55 566.96,55.09 567.98,53.72 569.00,54.71 570.02,51.95 571.04,55.56 572.06,53.84 573.08,55.04 574.10,51.89 575.12,55.30 576.14,54.17 577.16,54.83 578.18,51.35 579.20,54.62 580.22,53.99 581.24,55.31 582.26,51.35 583.28,55.17 584.30,53.76 585.32,54.66 586.34,51.54 587.36,54.07 588.38,53.34 589.40,54.19 590.42,51.08 591.44,54.60 592.46,53.48 593.48,54.61 594.50,50.91 595.52,53.37 596.54,52.62 597.56,54.54 598.58,50.73 599.60,54.63 600.62,53.15 601.64,55.30 602.66,50.62 603.68,54.25 604.70,52.93 605.72,54.26 606.74,50.67 607.76,55.13 608.78,52.65 609.80,54.86 610.82,51.26 611.84,55.58 612.86,54.15 613.88,55.72 614.90,51.10 615.92,54.85 616.94,52.89 617.96,54.57 618.98,50.69 620.00,54.58 621.02,52.61 622.04,54.25 623.06,50.51 624.08,54.38 625.10,52.99 626.12,54.30 627.14,50.44 628.16,54.76 629.18,53.63 630.20,54.93 631.22,50.70 632.24,55.03 633.27,54.00 634.29,55.09 635.31,51.32 636.33,55.18 637.35,53.82 638.37,55.03 639.39,51.68 640.41,55.20 641.43,53.92 642.45,55.80 643.47,52.60 644.49,55.54 645.51,53.77 646.53,48.84 647.55,54.55 648.57,55.70 649.59,54.99 650.61,55.11 651.63,51.16 652.65,55.26 653.67,53.58 654.69,55.18 655.71,51.32 656.73,55.79 657.75,54.27 658.77,56.15 659.79,51.87 660.81,55.72 661.83,54.17 662.85,55.91 663.87,51.36 664.89,55.59 665.91,53.68 666.93,55.72 667.95,51.39 668.97,54.93 669.99,53.24 671.01,54.99 672.03,51.07 673.05,55.92 674.07,54.53 675.09,56.22 676.11,51.46 677.13,55.49 678.15,53.98 679.17,55.97 680.19,51.53 681.21,55.94 682.23,53.47 683.25,55.41 684.27,51.55 685.29,55.62 686.31,54.33 687.33,55.62 688.35,50.74 689.37,55.10 690.39,53.93 691.41,50.22 692.43,55.06 693.45,52.89 694.47,55.01 695.49,50.95 696.51,55.71 697.53,53.85 698.55,55.18 699.57,51.16 700.59,55.28 701.61,53.92 702.63,54.83 703.65,51.26 704.67,54.53 705.69,53.96 706.71,55.03 707.73,51.27 708.75,55.27 709.77,54.18 710.79,55.53 711.81,51.33 712.83,55.38 713.85,54.19 714.87,55.82 715.89,51.54 716.91,55.06 717.93,54.08 718.95,55.17 719.97,51.44 720.99,55.49 722.01,54.17 723.03,54.93 724.05,51.25 725.07,54.48 726.09,54.04 727.11,54.65 728.13,51.52 729.15,54.87 730.17,55.56 731.19,54.98 732.21,55.20 733.23,51.51 734.25,54.88 735.27,53.97 736.29,54.68 737.31,51.40 738.33,54.46 739.35,54.05 740.37,54.85 741.39,51.00 742.41,54.41 743.43,53.15 744.45,54.03 745.47,50.79 746.49,54.21 747.51,54.20 748.53,55.51 749.55,51.58 750.57,54.78 751.59,54.08 752.61,55.16 753.63,51.68 754.65,54.53 755.67,53.74 756.69,55.49 757.71,51.28 758.73,55.54 759.75,53.82 760.77,55.56 761.79,51.16 762.81,54.94 763.83,53.76 764.85,55.70 765.87,51.31 766.89,55.47 767.91,54.01 768.93,55.41 769.95,51.39 770.97,54.81 771.99,52.93 773.01,54.54 774.03,50.83 775.05,54.16 776.07,52.44 777.09,53.54 778.11,49.91 779.13,54.00 780.15,52.74 781.17,50.34 782.19,53.91 783.21,53.18 784.23,54.52 785.25,51.21 786.27,54.88 787.29,55.53 788.31,54.76 789.33,54.88 790.35,51.03 791.37,54.67 792.39,53.50 793.41,54.80 794.43,50.78 795.45,54.82 796.47,53.69 797.49,54.66 798.51,50.94 799.53,54.14 800.55,53.55 801.57,54.29 802.59,51.57 803.61,54.79 804.63,53.77 805.65,55.15 806.67,51.57 807.69,55.08 808.71,54.11 809.73,55.42 810.75,51.64 811.77,55.67 812.79,53.69 813.81,55.51 814.83,50.72 815.85,54.74 816.87,53.24 817.89,55.34 818.91,51.29 819.93,54.82 820.95,52.99 821.97,55.05 822.99,50.74 824.01,54.79 825.03,53.20 826.05,54.91 827.07,50.55 828.09,54.38 829.11,52.71 830.13,54.57 831.15,50.76 832.17,55.09 833.19,53.64 834.21,55.63 835.23,51.40 836.25,55.53 837.27,53.63 838.29,55.55 839.31,51.50 840.33,55.04 841.35,53.17 842.37,55.34 843.39,50.91 844.41,54.99 845.43,53.66 846.45,55.15 847.47,51.08 848.49,55.00 849.51,54.19 850.53,55.20 851.55,51.96 852.57,54.56 853.59,53.85 854.61,55.17 855.63,51.29 856.65,54.97 857.67,54.08 858.69,54.24 859.71,50.94 860.73,53.92 861.76,53.94 862.78,54.80 863.80,51.47 864.82,54.42 865.84,54.60 866.86,55.03 867.88,51.63 868.90,55.20 869.92,53.98 870.94,55.54 871.96,51.83 872.98,55.85 874.00,54.54 875.02,55.66 876.04,52.63 877.06,55.56 878.08,54.44 879.10,48.39 880.12,50.05 881.14,50.70 882.16,51.10 883.18,50.02 884.20,51.30 885.22,51.34 886.24,51.23 887.26,50.39 888.28,50.95 889.30,51.03 890.32,51.25 891.34,50.44 892.36,51.37 893.38,51.56 894.40,51.48 895.42,51.42 896.44,50.58 897.46,50.96 898.48,51.15 899.50,51.20 900.52,50.59 901.54,51.20 902.56,51.25 903.58,51.36 904.60,50.44 905.62,51.20 906.64,51.15 907.66,51.42 908.68,50.55 909.70,51.35 910.72,51.18 911.74,51.27 912.76,50.38 913.78,50.88 914.80,51.07 915.82,50.51 916.84,51.53 917.86,51.53 918.88,51.79 919.90,51.71 920.92,50.39 921.94,51.20 922.96,51.33 923.98,51.31 925.00,50.40 926.02,51.31 927.04,51.20 928.06,51.29 929.08,50.03 930.10,50.41 931.12,50.41 932.14,50.39 933.16,49.98 934.18,50.77 935.20,51.04 936.22,50.85 937.24,50.05 938.26,50.61 939.28,50.84 940.30,51.35 941.32,50.18 942.34,50.66 943.36,50.86 944.38,50.73 945.40,50.16 946.42,51.38 947.44,51.59 948.46,51.61 949.48,49.96 950.50,51.00 951.52,51.13 952.54,51.24 953.56,49.99 954.58,51.12 955.60,51.07 956.62,51.27 957.64,49.65 958.66,51.45 959.68,51.36 960.70,51.03 961.72,49.73 962.74,51.04 963.76,51.52 964.78,51.28 965.80,51.19 966.82,50.15 967.84,50.94 968.86,51.28 969.88,51.33 970.90,50.76 971.92,52.38 972.94,52.19 973.96,52.87 974.98,53.96 976.00,53.27" fill="none" stroke="#0d6efd" stroke-width="2"/>
</svg>
