<svg xmlns="http://www.w3.org/2000/svg" width="1000" height="320" viewBox="0 0 1000 320">
  <rect width="100%" height="100%" fill="#ffffff"/>
  <text x="60" y="24" font-family="Arial" font-size="18" font-weight="bold">encoded_1080p.mp4 - upscaled_3840x2160 VMAF Over Time</text>
  <text x="60" y="308" font-family="Arial" font-size="12" fill="#555">Mean=85.798 Min=71.397 Max=92.143</text>
  <line x1="60" y1="40" x2="60" y2="276" stroke="#333" stroke-width="1"/>
  <line x1="60" y1="276" x2="976" y2="276" stroke="#333" stroke-width="1"/>
  <line x1="60" y1="63.6" x2="976" y2="63.6" stroke="#ddd" stroke-width="1"/>
  <line x1="60" y1="87.2" x2="976" y2="87.2" stroke="#eee" stroke-width="1"/>
  <line x1="60" y1="158.0" x2="976" y2="158.0" stroke="#eee" stroke-width="1"/>
  <text x="12" y="44" font-family="Arial" font-size="12">100</text>
  <text x="20" y="67.6" font-family="Arial" font-size="12">90</text>
  <text x="20" y="91.2" font-family="Arial" font-size="12">80</text>
  <text x="20" y="162.0" font-family="Arial" font-size="12">50</text>
  <text x="60" y="300" font-family="Arial" font-size="12">00:00.000</text>
  <text x="924" y="300" font-family="Arial" font-size="12">00:14.982</text>
  <polyline points="60.00,93.35 61.02,97.35 62.04,100.80 63.06,104.65 64.08,105.75 65.10,106.03 66.12,104.46 67.14,104.85 68.16,101.89 69.18,107.50 70.20,100.78 71.22,100.81 72.24,95.76 73.26,97.06 74.28,93.72 75.30,92.67 76.32,85.36 77.34,88.49 78.36,85.02 79.38,86.67 80.40,81.59 81.42,83.41 82.44,82.74 83.46,82.03 84.48,78.55 85.50,82.23 86.52,80.64 87.54,79.57 88.56,76.98 89.58,79.15 90.60,78.61 91.62,77.66 92.64,75.03 93.66,78.18 94.68,78.21 95.70,77.37 96.72,73.58 97.74,75.57 98.76,74.92 99.78,74.89 100.80,72.79 101.82,74.22 102.84,75.37 103.86,75.34 104.88,71.74 105.90,74.17 106.92,73.82 107.94,73.76 108.96,71.09 109.98,72.99 111.00,73.15 112.02,72.55 113.04,69.79 114.06,72.89 115.08,72.07 116.10,72.55 117.12,70.26 118.14,72.74 119.16,72.89 120.18,72.52 121.20,69.30 122.22,70.78 123.24,71.77 124.26,72.60 125.28,69.93 126.30,72.50 127.32,72.54 128.34,74.09 129.36,70.76 130.38,72.56 131.40,71.37 132.42,71.78 133.44,69.08 134.46,71.24 135.48,71.22 136.50,64.55 137.52,73.17 138.54,75.32 139.56,73.88 140.58,75.05 141.60,67.77 142.62,73.09 143.64,71.60 144.66,74.06 145.68,68.34 146.70,73.64 147.72,72.85 148.74,75.16 149.76,68.97 150.78,75.68 151.80,73.82 152.82,75.78 153.84,71.00 154.86,75.90 155.88,74.21 156.90,76.87 157.92,70.53 158.94,75.90 159.96,74.18 160.98,75.15 162.00,70.02 163.02,75.37 164.04,73.37 165.06,74.00 166.08,70.60 167.10,75.44 168.12,74.29 169.14,75.81 170.16,70.94 171.18,75.01 172.20,74.41 173.22,75.18 174.24,71.40 175.27,76.27 176.29,75.22 177.31,76.01 178.33,71.07 179.35,76.06 180.37,75.59 181.39,76.29 182.41,71.40 183.43,75.83 184.45,74.49 185.47,75.02 186.49,72.08 187.51,75.02 188.53,75.32 189.55,75.48 190.57,71.97 191.59,76.32 192.61,74.79 193.63,75.96 194.65,70.87 195.67,75.45 196.69,75.02 197.71,75.46 198.73,71.45 199.75,74.40 200.77,74.21 201.79,74.76 202.81,69.06 203.83,74.04 204.85,71.42 205.87,73.76 206.89,67.72 207.91,73.38 208.93,70.57 209.95,73.01 210.97,65.70 211.99,73.38 213.01,69.96 214.03,73.82 215.05,67.00 216.07,74.04 217.09,71.32 218.11,73.34 219.13,66.60 220.15,72.49 221.17,69.90 222.19,70.81 223.21,65.67 224.23,71.27 225.25,69.54 226.27,72.59 227.29,65.96 228.31,73.39 229.33,71.25 230.35,73.46 231.37,68.31 232.39,73.73 233.41,73.37 234.43,75.89 235.45,69.58 236.47,76.13 237.49,74.23 238.51,76.58 239.53,69.57 240.55,75.03 241.57,71.93 242.59,75.22 243.61,67.40 244.63,75.03 245.65,72.52 246.67,75.37 247.69,70.13 248.71,78.43 249.73,75.29 250.75,78.34 251.77,69.78 252.79,77.57 253.81,74.18 254.83,77.03 255.85,69.09 256.87,74.95 257.89,71.97 258.91,75.22 259.93,67.47 260.95,73.52 261.97,70.38 262.99,73.49 264.01,64.97 265.03,72.37 266.05,69.57 267.07,74.52 268.09,67.77 269.11,75.10 270.13,71.96 271.15,75.90 272.17,69.06 273.19,75.70 274.21,73.10 275.23,75.74 276.25,69.72 277.27,74.31 278.29,71.97 279.31,74.96 280.33,67.32 281.35,73.93 282.37,70.56 283.39,72.75 284.41,66.75 285.43,73.47 286.45,70.82 287.47,72.71 288.49,66.93 289.51,73.00 290.53,71.55 291.55,73.33 292.57,67.24 293.59,74.31 294.61,71.86 295.63,76.03 296.65,70.65 297.67,78.04 298.69,74.91 299.71,76.18 300.73,69.65 301.75,77.03 302.77,75.37 303.79,80.62 304.81,73.01 305.83,78.69 306.85,76.19 307.87,77.37 308.89,70.49 309.91,77.17 310.93,74.50 311.95,75.94 312.97,70.70 313.99,75.14 315.01,73.59 316.03,75.22 317.05,68.83 318.07,75.27 319.09,72.83 320.11,75.44 321.13,68.54 322.15,76.00 323.17,73.08 324.19,76.92 325.21,69.37 326.23,75.81 327.25,73.81 328.27,77.04 329.29,68.23 330.31,75.90 331.33,71.85 332.35,75.08 333.37,68.43 334.39,74.38 335.41,72.61 336.43,76.15 337.45,70.78 338.47,77.23 339.49,74.96 340.51,78.79 341.53,71.76 342.55,78.49 343.57,74.62 344.59,77.90 345.61,70.43 346.63,76.92 347.65,74.17 348.67,68.96 349.69,76.14 350.71,72.52 351.73,77.30 352.75,73.08 353.77,79.82 354.79,77.22 355.81,79.88 356.83,73.46 357.85,80.29 358.87,75.07 359.89,77.58 360.91,70.00 361.93,76.62 362.95,73.98 363.97,75.29 364.99,68.82 366.01,77.25 367.03,78.65 368.05,77.50 369.07,79.69 370.09,72.84 371.11,81.09 372.13,77.05 373.15,80.48 374.17,71.42 375.19,79.29 376.21,79.66 377.23,77.73 378.25,80.74 379.27,72.16 380.29,81.03 381.31,76.65 382.33,79.81 383.35,70.84 384.37,77.08 385.39,74.12 386.41,77.19 387.43,70.04 388.45,73.47 389.47,70.72 390.49,74.12 391.51,62.03 392.53,72.31 393.55,71.44 394.57,73.22 395.59,67.63 396.61,75.58 397.63,74.45 398.65,78.71 399.67,71.25 400.69,77.61 401.71,76.25 402.73,80.30 403.76,72.62 404.78,79.16 405.80,77.05 406.82,79.91 407.84,71.46 408.86,78.18 409.88,77.46 410.90,79.09 411.92,71.82 412.94,78.84 413.96,76.56 414.98,81.50 416.00,71.22 417.02,79.67 418.04,76.92 419.06,80.24 420.08,71.66 421.10,79.53 422.12,75.82 423.14,78.38 424.16,69.86 425.18,76.89 426.20,74.40 427.22,67.74 428.24,74.97 429.26,74.01 430.28,78.66 431.30,72.59 432.32,80.25 433.34,74.93 434.36,78.45 435.38,70.63 436.40,79.70 437.42,74.96 438.44,79.04 439.46,71.22 440.48,80.09 441.50,77.71 442.52,80.07 443.54,71.58 444.56,80.19 445.58,76.17 446.60,79.27 447.62,71.33 448.64,78.53 449.66,76.55 450.68,78.68 451.70,71.98 452.72,79.99 453.74,76.59 454.76,80.86 455.78,70.56 456.80,76.86 457.82,73.09 458.84,75.40 459.86,67.99 460.88,75.89 461.90,73.03 462.92,76.17 463.94,68.20 464.96,76.11 465.98,74.73 467.00,73.48 468.02,81.39 469.04,77.19 470.06,78.47 471.08,69.91 472.10,76.19 473.12,72.25 474.14,73.96 475.16,67.56 476.18,73.77 477.20,71.70 478.22,75.00 479.24,68.15 480.26,76.35 481.28,73.51 482.30,74.42 483.32,67.28 484.34,75.26 485.36,77.04 486.38,76.25 487.40,77.65 488.42,71.17 489.44,77.70 490.46,76.83 491.48,77.90 492.50,70.52 493.52,75.71 494.54,74.47 495.56,74.81 496.58,69.24 497.60,75.19 498.62,73.61 499.64,75.94 500.66,70.76 501.68,77.95 502.70,75.73 503.72,78.10 504.74,70.63 505.76,77.01 506.78,74.39 507.80,75.27 508.82,69.72 509.84,75.84 510.86,74.61 511.88,77.54 512.90,71.37 513.92,78.91 514.94,75.47 515.96,80.55 516.98,72.18 518.00,77.45 519.02,73.40 520.04,76.12 521.06,68.54 522.08,77.27 523.10,74.21 524.12,77.92 525.14,69.94 526.16,78.38 527.18,73.36 528.20,76.11 529.22,68.07 530.24,75.46 531.26,71.88 532.28,75.59 533.30,71.14 534.32,79.25 535.34,75.88 536.36,76.93 537.38,69.67 538.40,75.66 539.42,73.52 540.44,76.90 541.46,69.77 542.48,77.08 543.50,74.95 544.52,77.65 545.54,70.43 546.56,77.88 547.58,74.45 548.60,77.33 549.62,69.35 550.64,77.38 551.66,75.29 552.68,77.71 553.70,70.99 554.72,76.88 555.74,75.59 556.76,78.07 557.78,72.68 558.80,78.32 559.82,75.44 560.84,76.89 561.86,69.21 562.88,75.18 563.90,73.12 564.92,75.75 565.94,69.80 566.96,76.61 567.98,74.61 569.00,78.06 570.02,72.56 571.04,78.59 572.06,76.62 573.08,78.73 574.10,72.19 575.12,77.09 576.14,74.24 577.16,76.00 578.18,70.02 579.20,76.52 580.22,75.10 581.24,76.99 582.26,70.97 583.28,77.79 584.30,76.15 585.32,75.45 586.34,71.52 587.36,76.18 588.38,74.24 589.40,75.55 590.42,69.69 591.44,76.32 592.46,73.06 593.48,74.12 594.50,67.46 595.52,73.29 596.54,71.33 597.56,74.11 598.58,68.45 599.60,75.77 600.62,72.52 601.64,75.79 602.66,67.60 603.68,74.19 604.70,71.02 605.72,73.60 606.74,66.44 607.76,74.34 608.78,69.61 609.80,73.17 610.82,67.36 611.84,77.23 612.86,76.49 613.88,78.36 614.90,69.37 615.92,75.43 616.94,71.44 617.96,75.48 618.98,67.00 620.00,73.98 621.02,69.24 622.04,73.08 623.06,65.94 624.08,73.92 625.10,69.87 626.12,73.26 627.14,66.24 628.16,74.79 629.18,71.08 630.20,72.57 631.22,66.43 632.24,73.51 633.27,71.34 634.29,73.94 635.31,67.86 636.33,74.99 637.35,73.00 638.37,77.40 639.39,70.59 640.41,77.48 641.43,74.68 642.45,78.78 643.47,72.65 644.49,76.17 645.51,71.74 646.53,63.60 647.55,74.67 648.57,77.68 649.59,75.29 650.61,77.92 651.63,69.02 652.65,76.98 653.67,74.03 654.69,77.41 655.71,71.41 656.73,79.48 657.75,76.19 658.77,81.38 659.79,71.92 660.81,79.23 661.83,75.84 662.85,79.55 663.87,72.11 664.89,78.89 665.91,75.96 666.93,79.34 667.95,70.65 668.97,76.93 669.99,72.67 671.01,75.38 672.03,68.37 673.05,77.91 674.07,72.93 675.09,76.32 676.11,69.41 677.13,78.38 678.15,74.61 679.17,78.02 680.19,70.50 681.21,77.75 682.23,75.48 683.25,79.68 684.27,72.91 685.29,80.90 686.31,76.64 687.33,79.61 688.35,69.58 689.37,77.64 690.39,74.87 691.41,67.84 692.43,75.66 693.45,73.03 694.47,76.86 695.49,69.62 696.51,77.38 697.53,74.72 698.55,78.34 699.57,69.64 700.59,77.46 701.61,75.29 702.63,76.66 703.65,70.31 704.67,75.63 705.69,75.45 706.71,77.72 707.73,71.41 708.75,77.73 709.77,76.11 710.79,76.90 711.81,71.22 712.83,77.69 713.85,76.37 714.87,77.14 715.89,70.72 716.91,75.32 717.93,74.74 718.95,76.96 719.97,70.78 720.99,81.68 722.01,77.47 723.03,77.81 724.05,72.53 725.07,76.27 726.09,74.82 727.11,75.16 728.13,71.45 729.15,77.20 730.17,77.55 731.19,77.09 732.21,77.60 733.23,71.43 734.25,76.04 735.27,75.85 736.29,76.56 737.31,70.98 738.33,76.00 739.35,75.08 740.37,76.58 741.39,69.43 742.41,74.72 743.43,72.71 744.45,74.28 745.47,68.72 746.49,75.78 747.51,74.50 748.53,78.88 749.55,69.46 750.57,76.38 751.59,74.42 752.61,77.14 753.63,70.67 754.65,75.60 755.67,73.56 756.69,76.33 757.71,70.41 758.73,76.41 759.75,73.75 760.77,76.88 761.79,69.53 762.81,76.13 763.83,74.02 764.85,77.25 765.87,69.75 766.89,76.49 767.91,75.09 768.93,76.76 769.95,70.46 770.97,75.92 771.99,72.02 773.01,74.01 774.03,66.32 775.05,73.55 776.07,69.61 777.09,71.85 778.11,65.64 779.13,72.22 780.15,69.38 781.17,64.18 782.19,69.79 783.21,68.37 784.23,71.39 785.25,66.42 786.27,76.44 787.29,76.64 788.31,74.24 789.33,77.45 790.35,68.14 791.37,74.11 792.39,71.40 793.41,73.59 794.43,66.44 795.45,73.57 796.47,71.65 797.49,74.41 798.51,69.15 799.53,75.43 800.55,73.72 801.57,75.65 802.59,69.52 803.61,74.31 804.63,74.01 805.65,75.99 806.67,69.65 807.69,75.64 808.71,74.67 809.73,76.58 810.75,70.48 811.77,76.44 812.79,74.25 813.81,77.38 814.83,67.56 815.85,76.11 816.87,72.16 817.89,76.51 818.91,68.72 819.93,75.83 820.95,73.59 821.97,76.46 822.99,68.61 824.01,75.86 825.03,72.26 826.05,75.04 827.07,67.44 828.09,75.08 829.11,71.05 830.13,74.41 831.15,67.35 832.17,74.87 833.19,72.54 834.21,77.03 835.23,70.72 836.25,79.72 837.27,76.11 838.29,80.48 839.31,71.48 840.33,77.27 841.35,73.31 842.37,76.69 843.39,67.74 844.41,76.06 845.43,73.09 846.45,76.20 847.47,69.64 848.49,76.40 849.51,74.84 850.53,76.30 851.55,70.91 852.57,76.17 853.59,74.68 854.61,77.89 855.63,70.93 856.65,77.25 857.67,75.76 858.69,76.17 859.71,70.82 860.73,75.78 861.76,75.21 862.78,75.14 863.80,70.27 864.82,75.18 865.84,73.84 866.86,76.15 867.88,70.98 868.90,76.06 869.92,74.74 870.94,76.23 871.96,70.76 872.98,77.33 874.00,76.29 875.02,79.08 876.04,74.40 877.06,78.64 878.08,76.48 879.10,58.54 880.12,61.54 881.14,62.33 882.16,62.70 883.18,61.64 884.20,63.88 885.22,63.89 886.24,64.33 887.26,63.27 888.28,63.60 889.30,63.63 890.32,63.99 891.34,63.25 892.36,64.01 893.38,64.60 894.40,64.22 895.42,63.96 896.44,62.93 897.46,63.38 898.48,63.05 899.50,63.01 900.52,62.31 901.54,63.21 902.56,63.54 903.58,63.53 904.60,62.53 905.62,64.65 906.64,64.20 907.66,64.37 908.68,63.29 909.70,64.30 910.72,63.86 911.74,64.90 912.76,62.85 913.78,63.39 914.80,63.54 915.82,62.94 916.84,63.85 917.86,64.04 918.88,63.91 919.90,64.30 920.92,62.60 921.94,63.43 922.96,63.85 923.98,63.70 925.00,62.53 926.02,63.45 927.04,63.42 928.06,63.91 929.08,62.53 930.10,63.09 931.12,63.06 932.14,62.94 933.16,62.88 934.18,63.79 935.20,63.98 936.22,63.25 937.24,62.28 938.26,62.86 939.28,62.89 940.30,63.37 941.32,61.89 942.34,62.40 943.36,62.53 944.38,62.71 945.40,62.21 946.42,64.35 947.44,64.33 948.46,64.29 949.48,61.62 950.50,62.77 951.52,63.27 952.54,62.74 953.56,61.79 954.58,62.74 955.60,63.71 956.62,63.45 957.64,61.40 958.66,63.47 959.68,63.51 960.70,63.64 961.72,61.70 962.74,63.23 963.76,64.14 964.78,63.88 965.80,63.93 966.82,62.28 967.84,63.53 968.86,64.16 969.88,64.75 970.90,63.59 971.92,66.43 972.94,66.06 973.96,67.04 974.98,73.18 976.00,70.87" fill="none" stroke="#0d6efd" stroke-width="2"/>
</svg>
