<svg xmlns="http://www.w3.org/2000/svg" width="1000" height="320" viewBox="0 0 1000 320">
  <rect width="100%" height="100%" fill="#ffffff"/>
  <text x="60" y="24" font-family="Arial" font-size="18" font-weight="bold">encoded_1080p.mp4 - upscaled_3840x2160 VMAF Over Time</text>
  <text x="60" y="308" font-family="Arial" font-size="12" fill="#555">Mean=87.502 Min=71.396 Max=92.807</text>
  <line x1="60" y1="40" x2="60" y2="276" stroke="#333" stroke-width="1"/>
  <line x1="60" y1="276" x2="976" y2="276" stroke="#333" stroke-width="1"/>
  <line x1="60" y1="63.6" x2="976" y2="63.6" stroke="#ddd" stroke-width="1"/>
  <line x1="60" y1="87.2" x2="976" y2="87.2" stroke="#eee" stroke-width="1"/>
  <line x1="60" y1="158.0" x2="976" y2="158.0" stroke="#eee" stroke-width="1"/>
  <text x="12" y="44" font-family="Arial" font-size="12">100</text>
  <text x="20" y="67.6" font-family="Arial" font-size="12">90</text>
  <text x="20" y="91.2" font-family="Arial" font-size="12">80</text>
  <text x="20" y="162.0" font-family="Arial" font-size="12">50</text>
  <text x="60" y="300" font-family="Arial" font-size="12">00:00.000</text>
  <text x="924" y="300" font-family="Arial" font-size="12">00:14.982</text>
  <polyline points="60.00,93.35 61.02,97.35 62.04,100.80 63.06,104.65 64.08,105.75 65.10,106.03 66.12,104.46 67.14,104.85 68.16,101.89 69.18,107.51 70.20,100.78 71.22,100.82 72.24,95.76 73.26,96.55 74.28,93.60 75.30,91.74 76.32,84.18 77.34,85.35 78.36,80.07 79.38,79.79 80.40,73.51 81.42,74.71 82.44,74.23 83.46,73.54 84.48,70.64 85.50,74.86 86.52,73.06 87.54,72.64 88.56,69.49 89.58,71.95 90.60,72.03 91.62,71.21 92.64,68.83 93.66,71.97 94.68,71.19 95.70,70.84 96.72,66.99 97.74,69.39 98.76,69.28 99.78,69.43 100.80,66.79 101.82,68.98 102.84,69.26 103.86,70.54 104.88,66.32 105.90,68.78 106.92,68.97 107.94,69.42 108.96,65.79 109.98,68.73 111.00,68.41 112.02,68.15 113.04,65.01 114.06,68.80 115.08,68.04 116.10,68.71 117.12,65.42 118.14,68.65 119.16,68.93 120.18,68.85 121.20,65.90 122.22,67.56 123.24,67.95 124.26,69.68 125.28,65.66 126.30,68.85 127.32,68.68 128.34,70.12 129.36,66.61 130.38,69.30 131.40,68.08 132.42,68.22 133.44,65.35 134.46,68.04 135.48,68.20 136.50,61.01 137.52,69.58 138.54,70.07 139.56,69.29 140.58,70.27 141.60,63.57 142.62,68.75 143.64,67.49 144.66,69.93 145.68,64.84 146.70,70.27 147.72,68.48 148.74,70.73 149.76,65.78 150.78,71.38 151.80,70.11 152.82,71.69 153.84,67.00 154.86,71.86 155.88,70.23 156.90,71.58 157.92,66.67 158.94,71.17 159.96,69.99 160.98,71.43 162.00,66.49 163.02,71.79 164.04,69.38 165.06,71.16 166.08,66.60 167.10,71.57 168.12,70.33 169.14,71.89 170.16,67.54 171.18,71.23 172.20,70.25 173.22,71.12 174.24,67.91 175.27,73.10 176.29,70.61 177.31,71.68 178.33,67.73 179.35,72.10 180.37,70.64 181.39,72.50 182.41,67.77 183.43,71.72 184.45,70.87 185.47,71.89 186.49,68.37 187.51,71.66 188.53,71.61 189.55,71.71 190.57,68.30 191.59,72.66 192.61,71.48 193.63,72.55 194.65,67.49 195.67,72.14 196.69,71.50 197.71,72.05 198.73,68.35 199.75,72.28 200.77,71.16 201.79,71.69 202.81,66.27 203.83,70.15 204.85,68.03 205.87,70.14 206.89,64.75 207.91,70.17 208.93,67.31 209.95,69.38 210.97,63.11 211.99,69.58 213.01,67.39 214.03,69.72 215.05,64.38 216.07,70.48 217.09,67.73 218.11,70.14 219.13,63.51 220.15,68.82 221.17,66.21 222.19,68.08 223.21,62.41 224.23,67.86 225.25,65.60 226.27,68.00 227.29,62.85 228.31,69.07 229.33,67.23 230.35,69.55 231.37,64.79 232.39,70.83 233.41,69.66 234.43,72.64 235.45,66.03 236.47,71.89 237.49,70.03 238.51,72.64 239.53,66.16 240.55,71.34 241.57,68.20 242.59,70.16 243.61,63.75 244.63,70.54 245.65,68.32 246.67,72.01 247.69,67.20 248.71,73.10 249.73,71.94 250.75,74.19 251.77,66.57 252.79,73.22 253.81,69.96 254.83,72.54 255.85,65.57 256.87,71.08 257.89,68.59 258.91,70.47 259.93,64.40 260.95,69.41 261.97,66.81 262.99,69.01 264.01,61.67 265.03,67.55 266.05,66.08 267.07,69.33 268.09,64.12 269.11,71.79 270.13,67.79 271.15,71.37 272.17,65.86 273.19,72.12 274.21,69.11 275.23,72.27 276.25,66.10 277.27,71.44 278.29,68.28 279.31,69.37 280.33,64.00 281.35,69.12 282.37,66.65 283.39,68.70 284.41,63.27 285.43,69.77 286.45,67.07 287.47,69.00 288.49,63.04 289.51,69.09 290.53,67.25 291.55,68.80 292.57,63.22 293.59,70.80 294.61,68.78 295.63,71.62 296.65,66.67 297.67,73.51 298.69,70.27 299.71,72.75 300.73,66.57 301.75,72.78 302.77,71.81 303.79,77.07 304.81,69.34 305.83,74.94 306.85,71.82 307.87,73.57 308.89,66.91 309.91,72.83 310.93,70.28 311.95,71.23 312.97,66.52 313.99,71.53 315.01,69.61 316.03,70.89 317.05,65.26 318.07,70.97 319.09,67.99 320.11,71.91 321.13,65.59 322.15,71.47 323.17,68.98 324.19,71.61 325.21,66.14 326.23,72.18 327.25,69.08 328.27,71.86 329.29,64.75 330.31,70.94 331.33,67.38 332.35,71.07 333.37,64.71 334.39,70.29 335.41,68.25 336.43,71.53 337.45,66.79 338.47,73.15 339.49,70.54 340.51,73.22 341.53,67.26 342.55,73.60 343.57,70.20 344.59,72.79 345.61,66.39 346.63,71.98 347.65,70.28 348.67,64.83 349.69,70.89 350.71,67.94 351.73,73.20 352.75,68.50 353.77,74.73 354.79,72.36 355.81,74.64 356.83,68.98 357.85,74.51 358.87,70.63 359.89,72.87 360.91,65.68 361.93,71.48 362.95,68.36 363.97,71.24 364.99,64.20 366.01,72.18 367.03,73.81 368.05,73.04 369.07,74.62 370.09,68.65 371.11,76.43 372.13,72.63 373.15,75.80 374.17,67.22 375.19,73.14 376.21,74.75 377.23,73.15 378.25,75.52 379.27,67.42 380.29,75.77 381.31,72.36 382.33,74.28 383.35,66.56 384.37,71.84 385.39,70.02 386.41,72.03 387.43,65.35 388.45,69.86 389.47,66.99 390.49,68.26 391.51,58.94 392.53,67.99 393.55,67.46 394.57,69.60 395.59,64.21 396.61,71.29 397.63,69.88 398.65,73.62 399.67,66.56 400.69,73.66 401.71,71.62 402.73,74.16 403.76,68.31 404.78,74.63 405.80,71.96 406.82,74.75 407.84,67.39 408.86,73.37 409.88,72.80 410.90,74.46 411.92,67.55 412.94,75.43 413.96,72.25 414.98,75.94 416.00,67.73 417.02,73.39 418.04,71.68 419.06,74.12 420.08,67.71 421.10,74.58 422.12,70.48 423.14,73.52 424.16,65.61 425.18,71.10 426.20,69.86 427.22,63.91 428.24,71.32 429.26,69.20 430.28,74.18 431.30,68.00 432.32,73.92 433.34,69.50 434.36,72.60 435.38,65.94 436.40,73.47 437.42,70.36 438.44,74.47 439.46,67.45 440.48,74.90 441.50,71.60 442.52,76.10 443.54,67.47 444.56,74.69 445.58,71.71 446.60,75.63 447.62,67.32 448.64,73.86 449.66,71.36 450.68,73.80 451.70,67.83 452.72,74.01 453.74,71.11 454.76,74.37 455.78,66.38 456.80,71.54 457.82,68.12 458.84,71.20 459.86,64.36 460.88,71.06 461.90,68.33 462.92,70.26 463.94,64.22 464.96,71.34 465.98,70.48 467.00,68.63 468.02,75.35 469.04,71.93 470.06,72.89 471.08,65.54 472.10,70.17 473.12,67.29 474.14,69.13 475.16,63.42 476.18,70.10 477.20,67.07 478.22,70.15 479.24,64.05 480.26,70.67 481.28,69.08 482.30,69.73 483.32,64.02 484.34,71.21 485.36,72.57 486.38,71.38 487.40,73.95 488.42,67.40 489.44,73.40 490.46,71.75 491.48,74.08 492.50,66.93 493.52,72.41 494.54,70.32 495.56,71.19 496.58,65.36 497.60,71.39 498.62,69.73 499.64,71.52 500.66,67.27 501.68,73.73 502.70,71.41 503.72,73.56 504.74,67.27 505.76,72.94 506.78,70.55 507.80,72.61 508.82,65.78 509.84,71.30 510.86,69.61 511.88,72.80 512.90,67.27 513.92,74.56 514.94,71.18 515.96,74.86 516.98,67.81 518.00,72.61 519.02,68.78 520.04,70.67 521.06,64.95 522.08,71.66 523.10,69.22 524.12,72.74 525.14,65.92 526.16,72.19 527.18,68.80 528.20,71.61 529.22,63.98 530.24,70.44 531.26,67.01 532.28,70.88 533.30,66.73 534.32,73.80 535.34,71.21 536.36,72.49 537.38,65.41 538.40,71.35 539.42,69.24 540.44,73.10 541.46,66.05 542.48,72.45 543.50,70.17 544.52,73.05 545.54,66.77 546.56,72.85 547.58,69.84 548.60,72.37 549.62,66.08 550.64,73.53 551.66,70.78 552.68,74.00 553.70,67.62 554.72,73.57 555.74,71.60 556.76,75.06 557.78,68.55 558.80,73.58 559.82,70.60 560.84,72.46 561.86,65.34 562.88,71.41 563.90,69.38 564.92,71.80 565.94,65.79 566.96,72.36 567.98,70.34 569.00,72.28 570.02,67.88 571.04,74.21 572.06,71.83 573.08,73.99 574.10,68.54 575.12,73.18 576.14,70.14 577.16,71.38 578.18,66.55 579.20,72.17 580.22,70.61 581.24,73.16 582.26,67.29 583.28,73.35 584.30,71.79 585.32,72.57 586.34,67.87 587.36,71.83 588.38,70.15 589.40,71.32 590.42,66.13 591.44,71.39 592.46,68.69 593.48,70.25 594.50,64.20 595.52,69.01 596.54,67.04 597.56,70.59 598.58,64.62 599.60,70.56 600.62,68.11 601.64,71.25 602.66,63.90 603.68,70.20 604.70,66.64 605.72,68.46 606.74,62.42 607.76,69.38 608.78,65.26 609.80,68.58 610.82,63.19 611.84,72.28 612.86,70.92 613.88,73.07 614.90,65.15 615.92,70.44 616.94,67.18 617.96,69.22 618.98,63.19 620.00,69.16 621.02,65.53 622.04,68.72 623.06,62.43 624.08,69.04 625.10,65.53 626.12,68.31 627.14,62.30 628.16,69.30 629.18,66.46 630.20,68.67 631.22,62.18 632.24,69.10 633.27,66.86 634.29,69.36 635.31,63.98 636.33,70.03 637.35,68.27 638.37,71.66 639.39,66.41 640.41,72.53 641.43,70.81 642.45,73.57 643.47,68.31 644.49,71.87 645.51,68.72 646.53,61.08 647.55,70.80 648.57,73.12 649.59,70.97 650.61,72.27 651.63,65.10 652.65,72.06 653.67,69.61 654.69,73.11 655.71,67.29 656.73,74.50 657.75,71.83 658.77,75.06 659.79,68.20 660.81,74.55 661.83,71.69 662.85,74.59 663.87,67.65 664.89,73.84 665.91,70.55 666.93,72.90 667.95,66.49 668.97,72.39 669.99,68.26 671.01,71.06 672.03,64.41 673.05,71.86 674.07,67.92 675.09,71.23 676.11,64.94 677.13,72.25 678.15,69.32 679.17,72.86 680.19,66.06 681.21,73.87 682.23,70.15 683.25,73.65 684.27,68.16 685.29,74.21 686.31,71.60 687.33,74.11 688.35,65.27 689.37,72.14 690.39,70.16 691.41,64.61 692.43,71.89 693.45,68.39 694.47,71.78 695.49,65.85 696.51,73.50 697.53,70.37 698.55,72.85 699.57,66.01 700.59,72.89 701.61,70.62 702.63,72.57 703.65,66.52 704.67,72.19 705.69,70.88 706.71,73.22 707.73,67.71 708.75,73.50 709.77,71.72 710.79,73.77 711.81,67.75 712.83,73.31 713.85,71.69 714.87,74.29 715.89,67.44 716.91,72.84 717.93,71.47 718.95,72.48 719.97,66.85 720.99,75.84 722.01,73.26 723.03,74.75 724.05,68.95 725.07,73.17 726.09,71.89 727.11,72.51 728.13,67.89 729.15,73.14 730.17,73.95 731.19,73.48 732.21,74.12 733.23,68.08 734.25,72.68 735.27,71.59 736.29,72.70 737.31,67.82 738.33,72.50 739.35,71.44 740.37,72.38 741.39,66.22 742.41,71.55 743.43,69.52 744.45,70.77 745.47,65.42 746.49,71.04 747.51,70.27 748.53,72.58 749.55,66.18 750.57,72.04 751.59,71.02 752.61,73.06 753.63,67.46 754.65,72.57 755.67,69.98 756.69,72.48 757.71,66.37 758.73,73.14 759.75,69.05 760.77,71.91 761.79,65.55 762.81,71.56 763.83,69.77 764.85,73.34 765.87,66.13 766.89,73.04 767.91,70.45 768.93,73.11 769.95,66.62 770.97,70.92 771.99,67.49 773.01,69.54 774.03,62.80 775.05,69.52 776.07,65.41 777.09,67.41 778.11,61.51 779.13,67.28 780.15,64.81 781.17,60.91 782.19,66.03 783.21,64.69 784.23,66.92 785.25,63.15 786.27,71.12 787.29,71.76 788.31,71.04 789.33,71.86 790.35,64.53 791.37,69.83 792.39,67.27 793.41,68.99 794.43,63.32 795.45,70.30 796.47,68.32 797.49,71.26 798.51,65.46 799.53,71.31 800.55,69.93 801.57,71.00 802.59,66.25 803.61,71.49 804.63,70.18 805.65,72.62 806.67,66.65 807.69,72.38 808.71,70.69 809.73,72.92 810.75,67.13 811.77,73.06 812.79,69.70 813.81,72.29 814.83,64.12 815.85,71.11 816.87,67.87 817.89,71.55 818.91,65.63 819.93,72.24 820.95,68.78 821.97,72.20 822.99,64.92 824.01,70.69 825.03,67.48 826.05,69.84 827.07,63.58 828.09,69.72 829.11,66.83 830.13,69.21 831.15,63.50 832.17,69.27 833.19,68.51 834.21,72.13 835.23,67.01 836.25,74.68 837.27,71.87 838.29,75.07 839.31,67.60 840.33,72.96 841.35,68.02 842.37,71.04 843.39,63.65 844.41,70.40 845.43,68.01 846.45,72.06 847.47,65.78 848.49,72.82 849.51,70.95 850.53,72.83 851.55,67.57 852.57,71.81 853.59,70.99 854.61,73.11 855.63,67.27 856.65,73.29 857.67,71.24 858.69,72.37 859.71,66.96 860.73,71.87 861.76,71.01 862.78,72.19 863.80,67.02 864.82,72.21 865.84,71.66 866.86,72.56 867.88,67.72 868.90,72.34 869.92,70.67 870.94,72.85 871.96,67.28 872.98,73.63 874.00,71.64 875.02,74.30 876.04,69.82 877.06,74.11 878.08,72.30 879.10,56.98 880.12,59.97 881.14,60.76 882.16,61.24 883.18,59.45 884.20,61.66 885.22,61.63 886.24,61.63 887.26,60.47 888.28,61.16 889.30,61.20 890.32,61.62 891.34,60.62 892.36,61.82 893.38,62.10 894.40,61.80 895.42,61.50 896.44,60.12 897.46,60.91 898.48,60.79 899.50,60.74 900.52,59.61 901.54,60.36 902.56,60.59 903.58,60.93 904.60,59.79 905.62,61.59 906.64,61.58 907.66,61.76 908.68,60.49 909.70,61.90 910.72,61.38 911.74,61.82 912.76,60.20 913.78,61.07 914.80,60.88 915.82,60.15 916.84,61.35 917.86,61.67 918.88,61.68 919.90,61.93 920.92,60.11 921.94,61.35 922.96,61.67 923.98,61.61 925.00,60.17 926.02,61.60 927.04,61.61 928.06,61.74 929.08,59.93 930.10,60.58 931.12,60.35 932.14,60.34 933.16,59.96 934.18,61.17 935.20,61.50 936.22,60.86 937.24,59.63 938.26,60.33 939.28,60.63 940.30,61.17 941.32,59.20 942.34,60.03 943.36,60.31 944.38,60.07 945.40,59.38 946.42,61.26 947.44,61.55 948.46,61.40 949.48,58.86 950.50,60.56 951.52,60.51 952.54,60.85 953.56,59.16 954.58,60.94 955.60,61.18 956.62,61.57 957.64,58.98 958.66,61.42 959.68,61.52 960.70,61.06 961.72,59.32 962.74,61.20 963.76,61.96 964.78,61.39 965.80,61.68 966.82,59.84 967.84,61.02 968.86,61.59 969.88,61.81 970.90,60.94 971.92,63.22 972.94,63.61 973.96,64.38 974.98,69.92 976.00,68.03" fill="none" stroke="#0d6efd" stroke-width="2"/>
</svg>
