<svg xmlns="http://www.w3.org/2000/svg" width="1000" height="320" viewBox="0 0 1000 320">
  <rect width="100%" height="100%" fill="#ffffff"/>
  <text x="60" y="24" font-family="Arial" font-size="18" font-weight="bold">encoded_720p.mp4 - upscaled_3840x2160 VMAF Over Time</text>
  <text x="60" y="308" font-family="Arial" font-size="12" fill="#555">Mean=81.026 Min=64.478 Max=87.208</text>
  <line x1="60" y1="40" x2="60" y2="276" stroke="#333" stroke-width="1"/>
  <line x1="60" y1="276" x2="976" y2="276" stroke="#333" stroke-width="1"/>
  <line x1="60" y1="63.6" x2="976" y2="63.6" stroke="#ddd" stroke-width="1"/>
  <line x1="60" y1="87.2" x2="976" y2="87.2" stroke="#eee" stroke-width="1"/>
  <line x1="60" y1="158.0" x2="976" y2="158.0" stroke="#eee" stroke-width="1"/>
  <text x="12" y="44" font-family="Arial" font-size="12">100</text>
  <text x="20" y="67.6" font-family="Arial" font-size="12">90</text>
  <text x="20" y="91.2" font-family="Arial" font-size="12">80</text>
  <text x="20" y="162.0" font-family="Arial" font-size="12">50</text>
  <text x="60" y="300" font-family="Arial" font-size="12">00:00.000</text>
  <text x="924" y="300" font-family="Arial" font-size="12">00:14.982</text>
  <polyline points="60.00,111.80 61.02,118.58 62.04,121.45 63.06,122.82 64.08,120.51 65.10,122.56 66.12,123.83 67.14,122.60 68.16,118.69 69.18,121.99 70.20,115.38 71.22,114.23 72.24,111.21 73.26,109.89 74.28,106.67 75.30,104.86 76.32,97.58 77.34,98.89 78.36,93.56 79.38,92.48 80.40,84.37 81.42,87.10 82.44,86.51 83.46,86.08 84.48,83.56 85.50,86.31 86.52,84.91 87.54,85.03 88.56,81.84 89.58,84.32 90.60,84.04 91.62,83.84 92.64,81.10 93.66,83.37 94.68,83.43 95.70,82.58 96.72,79.34 97.74,81.58 98.76,81.39 99.78,81.79 100.80,78.93 101.82,80.94 102.84,81.47 103.86,81.65 104.88,78.43 105.90,81.52 106.92,81.04 107.94,82.21 108.96,78.90 109.98,81.95 111.00,81.72 112.02,81.29 113.04,78.10 114.06,81.36 115.08,80.72 116.10,81.77 117.12,77.84 118.14,80.18 119.16,80.11 120.18,78.50 121.20,81.61 122.22,81.95 123.24,82.30 124.26,81.97 125.28,77.96 126.30,81.02 127.32,81.23 128.34,82.93 129.36,79.22 130.38,82.59 131.40,80.67 132.42,80.59 133.44,77.85 134.46,80.64 135.48,81.48 136.50,74.13 137.52,82.77 138.54,83.22 139.56,82.21 140.58,83.95 141.60,77.31 142.62,82.27 143.64,80.93 144.66,83.39 145.68,78.00 146.70,84.05 147.72,82.88 148.74,84.58 149.76,79.84 150.78,86.39 151.80,84.53 152.82,86.43 153.84,82.25 154.86,87.33 155.88,85.71 156.90,87.79 157.92,82.25 158.94,87.01 159.96,86.02 160.98,86.83 162.00,82.05 163.02,86.66 164.04,85.25 165.06,85.60 166.08,82.26 167.10,86.85 168.12,86.17 169.14,87.62 170.16,83.27 171.18,86.63 172.20,85.56 173.22,87.02 174.24,83.68 175.27,88.95 176.29,87.59 177.31,89.02 178.33,83.80 179.35,88.19 180.37,87.12 181.39,88.43 182.41,84.37 183.43,89.07 184.45,87.69 185.47,87.93 186.49,84.61 187.51,87.48 188.53,88.32 189.55,88.79 190.57,85.06 191.59,88.88 192.61,88.23 193.63,88.84 194.65,83.76 195.67,88.64 196.69,88.51 197.71,88.73 198.73,84.49 199.75,88.41 200.77,87.86 201.79,89.48 202.81,82.83 203.83,87.58 204.85,85.11 205.87,87.39 206.89,81.32 207.91,86.50 208.93,83.92 209.95,85.51 210.97,78.00 211.99,85.56 213.01,82.51 214.03,86.28 215.05,80.15 216.07,86.68 217.09,83.74 218.11,86.79 219.13,79.25 220.15,85.70 221.17,82.40 222.19,82.31 223.21,76.98 224.23,83.37 225.25,81.74 226.27,82.81 227.29,77.46 228.31,84.90 229.33,82.95 230.35,85.05 231.37,80.84 232.39,87.33 233.41,86.46 234.43,89.62 235.45,82.62 236.47,89.97 237.49,87.12 238.51,89.71 239.53,82.57 240.55,88.15 241.57,84.75 242.59,87.22 243.61,78.91 244.63,86.36 245.65,84.82 246.67,88.60 247.69,83.19 248.71,90.67 249.73,88.34 250.75,91.06 251.77,83.16 252.79,90.09 253.81,86.46 254.83,89.53 255.85,82.15 256.87,89.17 257.89,85.55 258.91,87.25 259.93,79.83 260.95,85.36 261.97,82.14 262.99,83.11 264.01,76.07 265.03,83.43 266.05,81.33 267.07,85.78 268.09,80.30 269.11,88.12 270.13,84.75 271.15,87.57 272.17,82.44 273.19,88.69 274.21,86.38 275.23,88.60 276.25,82.20 277.27,88.83 278.29,84.41 279.31,86.19 280.33,78.70 281.35,85.03 282.37,81.81 283.39,83.82 284.41,77.88 285.43,84.21 286.45,81.43 287.47,85.07 288.49,78.09 289.51,84.77 290.53,82.60 291.55,85.23 292.57,77.21 293.59,85.53 294.61,85.19 295.63,87.69 296.65,82.82 297.67,90.42 298.69,91.19 299.71,87.55 300.73,89.82 301.75,82.56 302.77,90.76 303.79,97.55 304.81,93.14 305.83,92.70 306.85,84.07 307.87,89.60 308.89,87.21 309.91,88.93 310.93,82.45 311.95,88.01 312.97,87.76 313.99,87.47 315.01,81.03 316.03,86.46 317.05,85.50 318.07,85.43 319.09,79.02 320.11,87.11 321.13,84.99 322.15,88.30 323.17,81.28 324.19,88.54 325.21,85.56 326.23,87.18 327.25,80.22 328.27,87.23 329.29,83.64 330.31,87.22 331.33,78.19 332.35,85.61 333.37,83.55 334.39,86.92 335.41,78.81 336.43,87.63 337.45,90.07 338.47,88.52 339.49,90.00 340.51,82.80 341.53,90.12 342.55,85.77 343.57,88.78 344.59,79.89 345.61,87.56 346.63,83.55 347.65,84.59 348.67,77.97 349.69,84.65 350.71,81.02 351.73,86.11 352.75,83.75 353.77,90.45 354.79,88.81 355.81,92.15 356.83,85.59 357.85,91.41 358.87,86.73 359.89,89.56 360.91,80.23 361.93,85.99 362.95,83.21 363.97,84.95 364.99,78.29 366.01,88.17 367.03,89.91 368.05,89.48 369.07,91.98 370.09,84.29 371.11,93.91 372.13,89.57 373.15,92.68 374.17,83.26 375.19,91.00 376.21,92.01 377.23,89.75 378.25,92.98 379.27,83.82 380.29,92.00 381.31,88.20 382.33,90.29 383.35,82.79 384.37,87.62 385.39,84.90 386.41,86.89 387.43,79.72 388.45,82.57 389.47,80.81 390.49,83.43 391.51,71.77 392.53,81.73 393.55,81.43 394.57,83.31 395.59,77.85 396.61,85.74 397.63,84.54 398.65,88.85 399.67,82.33 400.69,90.18 401.71,87.66 402.73,90.79 403.76,84.67 404.78,91.05 405.80,88.96 406.82,90.96 407.84,82.91 408.86,89.75 409.88,87.56 410.90,90.94 411.92,83.24 412.94,92.05 413.96,88.99 414.98,92.46 416.00,82.20 417.02,90.32 418.04,92.98 419.06,89.68 420.08,91.66 421.10,83.09 422.12,89.56 423.14,89.13 424.16,86.77 425.18,86.87 426.20,78.42 427.22,85.88 428.24,85.76 429.26,86.91 430.28,90.34 431.30,83.83 432.32,92.37 433.34,86.28 434.36,89.49 435.38,81.80 436.40,90.00 437.42,86.51 438.44,91.42 439.46,83.59 440.48,92.08 441.50,88.99 442.52,90.52 443.54,82.67 444.56,91.44 445.58,87.68 446.60,90.41 447.62,82.89 448.64,91.45 449.66,87.09 450.68,88.91 451.70,82.76 452.72,90.95 453.74,87.48 454.76,90.95 455.78,81.02 456.80,85.84 457.82,82.44 458.84,85.58 459.86,78.00 460.88,85.56 461.90,81.02 462.92,83.30 463.94,76.83 464.96,85.01 465.98,83.54 467.00,85.12 468.02,93.47 469.04,89.24 470.06,90.61 471.08,80.36 472.10,85.18 473.12,82.36 474.14,85.37 475.16,76.77 476.18,83.93 477.20,82.33 478.22,86.64 479.24,78.24 480.26,85.00 481.28,82.85 482.30,84.76 483.32,77.95 484.34,85.38 485.36,89.07 486.38,86.83 487.40,89.12 488.42,82.51 489.44,88.88 490.46,86.88 491.48,89.21 492.50,82.08 493.52,88.45 494.54,86.11 495.56,87.27 496.58,80.65 497.60,87.07 498.62,85.13 499.64,87.40 500.66,82.87 501.68,89.03 502.70,86.79 503.72,89.51 504.74,83.00 505.76,88.33 506.78,86.19 507.80,86.26 508.82,80.75 509.84,87.20 510.86,85.56 511.88,88.18 512.90,82.49 513.92,90.15 514.94,87.36 515.96,91.24 516.98,83.21 518.00,88.79 519.02,84.36 520.04,85.73 521.06,79.07 522.08,87.02 523.10,84.82 524.12,88.80 525.14,80.83 526.16,88.06 527.18,83.71 528.20,85.59 529.22,77.65 530.24,84.07 531.26,81.28 532.28,85.82 533.30,81.86 534.32,89.75 535.34,86.88 536.36,88.00 537.38,80.31 538.40,86.02 539.42,84.37 540.44,87.92 541.46,80.75 542.48,88.00 543.50,86.08 544.52,88.99 545.54,81.00 546.56,89.20 547.58,85.89 548.60,88.23 549.62,80.79 550.64,88.26 551.66,85.50 552.68,88.83 553.70,82.30 554.72,88.08 555.74,87.35 556.76,90.65 557.78,84.12 558.80,89.77 559.82,86.89 560.84,87.80 561.86,80.28 562.88,85.79 563.90,83.60 564.92,86.30 565.94,79.65 566.96,87.50 567.98,86.01 569.00,88.56 570.02,83.66 571.04,90.00 572.06,88.52 573.08,90.86 574.10,84.66 575.12,89.17 576.14,86.68 577.16,86.95 578.18,82.21 579.20,88.52 580.22,87.14 581.24,90.25 582.26,83.82 583.28,89.61 584.30,88.22 585.32,88.60 586.34,84.42 587.36,88.59 588.38,87.31 589.40,87.83 590.42,82.32 591.44,88.14 592.46,84.14 593.48,85.81 594.50,78.88 595.52,84.92 596.54,82.34 597.56,85.68 598.58,79.69 599.60,85.68 600.62,82.48 601.64,86.28 602.66,77.84 603.68,85.19 604.70,81.29 605.72,83.23 606.74,74.82 607.76,82.62 608.78,78.96 609.80,73.65 610.82,84.12 611.84,91.56 612.86,90.12 613.88,90.52 614.90,80.25 615.92,85.71 616.94,80.97 617.96,82.53 618.98,75.74 620.00,83.57 621.02,80.03 622.04,82.69 623.06,74.85 624.08,82.16 625.10,78.18 626.12,81.82 627.14,75.13 628.16,83.14 629.18,80.37 630.20,81.77 631.22,75.25 632.24,82.17 633.27,83.21 634.29,83.23 635.31,85.36 636.33,77.16 637.35,86.76 638.37,87.59 639.39,87.52 640.41,89.01 641.43,83.43 642.45,87.82 643.47,88.66 644.49,85.91 645.51,88.17 646.53,74.91 647.55,85.24 648.57,89.17 649.59,86.84 650.61,88.33 651.63,79.75 652.65,88.43 653.67,84.90 654.69,89.39 655.71,82.81 656.73,90.49 657.75,88.07 658.77,90.97 659.79,83.81 660.81,90.66 661.83,88.71 662.85,89.42 663.87,83.93 664.89,90.87 665.91,87.40 666.93,89.16 667.95,81.43 668.97,88.35 669.99,83.37 671.01,86.96 672.03,79.12 673.05,87.29 674.07,83.10 675.09,86.71 676.11,79.91 677.13,88.40 678.15,85.34 679.17,88.71 680.19,81.63 681.21,88.92 682.23,86.66 683.25,90.71 684.27,84.88 685.29,92.87 686.31,88.17 687.33,90.55 688.35,80.49 689.37,88.62 690.39,85.37 691.41,79.31 692.43,87.29 693.45,83.33 694.47,89.34 695.49,81.66 696.51,88.72 697.53,86.79 698.55,89.66 699.57,82.28 700.59,89.78 701.61,86.98 702.63,88.88 703.65,82.31 704.67,88.52 705.69,87.70 706.71,90.52 707.73,83.66 708.75,89.49 709.77,88.62 710.79,89.19 711.81,84.73 712.83,89.39 713.85,87.92 714.87,89.57 715.89,84.30 716.91,89.35 717.93,88.61 718.95,89.34 719.97,83.76 720.99,94.15 722.01,91.17 723.03,91.34 724.05,86.25 725.07,89.38 726.09,88.60 727.11,89.04 728.13,84.86 729.15,89.73 730.17,90.60 731.19,90.75 732.21,91.10 733.23,85.39 734.25,90.46 735.27,88.93 736.29,89.73 737.31,84.59 738.33,90.98 739.35,88.58 740.37,90.11 741.39,82.72 742.41,88.34 743.43,86.89 744.45,86.62 745.47,81.00 746.49,87.40 747.51,87.06 748.53,89.84 749.55,82.74 750.57,90.57 751.59,88.46 752.61,91.46 753.63,83.61 754.65,90.62 755.67,87.31 756.69,89.11 757.71,82.17 758.73,89.55 759.75,85.69 760.77,88.10 761.79,81.54 762.81,88.89 763.83,86.61 764.85,89.04 765.87,82.13 766.89,91.23 767.91,86.70 768.93,90.54 769.95,82.57 770.97,87.22 771.99,83.20 773.01,84.27 774.03,77.06 775.05,82.89 776.07,79.49 777.09,80.97 778.11,74.30 779.13,80.25 780.15,77.77 781.17,73.12 782.19,77.49 783.21,77.27 784.23,80.16 785.25,76.42 786.27,85.08 787.29,84.15 788.31,87.07 789.33,80.00 790.35,85.69 791.37,82.45 792.39,84.51 793.41,76.23 794.43,84.93 795.45,86.66 796.47,85.10 797.49,88.46 798.51,81.25 799.53,87.85 800.55,87.32 801.57,89.65 802.59,81.96 803.61,86.91 804.63,86.31 805.65,87.64 806.67,82.05 807.69,87.76 808.71,87.59 809.73,88.93 810.75,82.40 811.77,90.31 812.79,87.19 813.81,89.39 814.83,79.58 815.85,87.46 816.87,83.95 817.89,88.94 818.91,81.45 819.93,88.13 820.95,84.50 821.97,87.39 822.99,80.26 824.01,87.23 825.03,82.94 826.05,85.76 827.07,77.62 828.09,84.66 829.11,81.39 830.13,84.27 831.15,77.48 832.17,83.90 833.19,83.10 834.21,88.44 835.23,82.63 836.25,92.95 837.27,89.25 838.29,92.96 839.31,84.17 840.33,90.06 841.35,83.94 842.37,87.22 843.39,77.76 844.41,86.03 845.43,83.41 846.45,87.85 847.47,80.74 848.49,88.68 849.51,86.97 850.53,89.77 851.55,83.02 852.57,88.84 853.59,86.94 854.61,83.29 855.63,89.34 856.65,90.82 857.67,89.05 858.69,89.60 859.71,83.17 860.73,88.88 861.76,87.68 862.78,88.38 863.80,83.30 864.82,89.86 865.84,87.77 866.86,88.71 867.88,84.09 868.90,89.41 869.92,88.03 870.94,90.24 871.96,84.20 872.98,91.15 874.00,88.90 875.02,93.17 876.04,88.17 877.06,92.92 878.08,90.70 879.10,70.19 880.12,73.04 881.14,73.39 882.16,73.85 883.18,73.02 884.20,74.44 885.22,74.54 886.24,74.90 887.26,74.03 888.28,74.46 889.30,74.79 890.32,74.93 891.34,74.26 892.36,74.95 893.38,75.29 894.40,75.08 895.42,74.98 896.44,74.11 897.46,74.34 898.48,74.21 899.50,73.55 900.52,72.36 901.54,72.96 902.56,73.22 903.58,73.32 904.60,72.69 905.62,74.58 906.64,74.49 907.66,74.60 908.68,73.78 909.70,74.58 910.72,74.38 911.74,74.41 912.76,73.47 913.78,73.85 914.80,74.00 915.82,73.31 916.84,74.43 917.86,74.81 918.88,74.28 919.90,74.88 920.92,73.16 921.94,73.98 922.96,73.80 923.98,73.63 925.00,72.88 926.02,73.10 927.04,73.26 928.06,73.27 929.08,72.73 930.10,72.91 931.12,73.03 932.14,72.88 933.16,72.71 934.18,73.37 935.20,73.59 936.22,73.58 937.24,72.50 938.26,73.13 939.28,73.49 940.30,73.32 941.32,72.41 942.34,73.15 943.36,73.03 944.38,72.99 945.40,72.60 946.42,73.84 947.44,73.85 948.46,73.21 949.48,71.60 950.50,72.56 951.52,72.87 952.54,72.63 953.56,72.23 954.58,73.82 955.60,73.86 956.62,73.44 957.64,72.00 958.66,74.67 959.68,74.76 960.70,74.55 961.72,72.50 962.74,73.85 963.76,75.06 964.78,74.40 965.80,74.53 966.82,72.94 967.84,73.95 968.86,74.69 969.88,75.02 970.90,74.77 971.92,77.36 972.94,78.21 973.96,78.08 974.98,84.32 976.00,83.19" fill="none" stroke="#0d6efd" stroke-width="2"/>
</svg>
